<svg width="434" height="635" viewBox="0 0 434 635" fill="none" xmlns="http://www.w3.org/2000/svg">
<path fill-rule="evenodd" clip-rule="evenodd" d="M183.26 371.865C182.686 377.847 183.86 383.559 186.657 388.388L187.567 389.96L185.835 390.564C182.683 391.665 179.178 392.2 175.119 392.2C170.941 392.2 166.597 391.619 163.107 391.152L160.872 390.854L161.97 388.916C162.853 387.358 163.016 385.471 163.189 383.472C163.236 382.935 163.284 382.38 163.347 381.831C166.654 352.317 170.835 322.417 174.878 293.502C175.942 285.894 177.042 278.026 178.109 270.286L181.171 270.404C181.994 284.73 182.793 299.297 183.566 313.385C183.906 319.58 184.246 325.775 184.589 331.969C185.81 347.629 185.388 360.31 183.26 371.865ZM182.012 548.851C186.508 548.851 191.012 548.384 195.4 547.462C209.13 544.584 221.604 537.795 232.218 531.658C232.76 531.351 233.31 531.044 233.874 530.729C238.03 528.408 243.201 525.52 246.442 521.997C249.998 518.132 250.609 514.28 248.368 509.876L248.013 509.18L248.383 508.491C250.705 504.177 250.532 498.84 247.964 495.512L245.805 492.716L249.354 493.092C252.933 493.471 256.539 493.985 260.027 494.481C263.897 495.033 267.9 495.602 271.841 495.984L272.937 496.09L273.189 497.144C273.329 497.73 273.502 498.087 274.718 498.087C275.773 498.087 277.19 497.778 278.689 497.452C280.55 497.048 282.66 496.589 284.695 496.589C285.59 496.589 286.394 496.674 287.156 496.849L287.599 496.951L287.914 497.273C288.115 497.479 288.459 497.607 288.809 497.607C289.074 497.607 289.32 497.534 289.485 497.405L289.982 497.017L290.612 497.086C301.601 498.291 311.076 500.405 319.578 503.548L319.617 503.563L319.801 503.642C322.876 504.967 326.054 506.337 328.949 506.337C331.065 506.337 332.784 505.618 334.357 504.075L334.802 503.639L335.43 503.633C341.795 503.575 344.703 496.164 345.106 491.197L345.156 490.572L345.641 490.165C356.735 480.871 363.284 468.106 365.663 451.141C367.83 435.687 366.166 419.394 364.253 405.494C359.826 369.472 355.209 337.179 343.473 306.552L342.925 305.12L344.386 304.596C349.455 302.777 353.329 300.608 356.229 297.963L356.43 297.779L356.683 297.676C360.84 295.971 362.876 289.676 363.401 287.788L363.443 287.636L363.516 287.495C364.365 285.871 364.56 283.611 364.053 281.296L363.999 281.046L364.03 280.793C364.304 278.594 363.395 276.296 362.432 273.862C361.992 272.75 361.538 271.601 361.206 270.456C360.064 267.185 358.923 263.857 357.82 260.637C355.344 253.413 352.785 245.943 350.058 238.677L349.686 237.683L350.507 236.998C351.909 235.829 351.441 234.452 349.419 231.161C348.941 230.383 348.489 229.647 348.145 228.923C345.553 224.45 342.775 220.157 339.886 216.161L339.827 216.079L339.779 215.991C324.958 188.354 298.667 173.134 265.75 173.134L265.079 173.135L264.708 172.912C258.539 169.208 254.135 162.853 251.244 153.483L251.152 153.185L251.188 152.874C251.287 152.011 251.395 150.879 251.358 149.78C251.264 146.998 250.171 144.515 248.361 142.968C244.927 140.033 239.713 139.787 234.666 139.787L233.942 139.788C227.49 139.807 222.935 140.925 219.607 143.308C215.74 146.077 213.603 150.547 213.074 156.973C212.916 158.896 212.921 160.888 212.926 162.814L212.927 163.352L212.862 163.565C212.399 165.093 211.855 166.56 211.248 167.927L210.623 169.334L209.202 168.7C208.283 168.29 207.118 168.079 205.64 168.055C205.214 168.046 204.798 168.041 204.379 168.041C200.946 168.041 197.274 168.354 193.723 168.656C191.048 168.884 188.281 169.12 185.602 169.225L185.566 169.226C185.566 169.226 185.196 169.224 185.03 169.224C178.521 169.224 173.802 170.246 170.18 172.441C166.281 174.803 163.476 178.595 161.356 184.374C149.983 217.499 145.308 253.178 141.183 284.657C138.844 301.118 138.133 317.994 137.444 334.314C136.718 351.54 135.967 369.352 133.307 386.764L133.097 388.141L131.685 388.05C125.47 387.649 118.754 386.787 111.644 385.874C100.841 384.486 89.6707 383.052 78.8718 383.052C63.7728 383.052 52.3246 386.018 43.8784 392.119C37.9901 397.658 34.9439 405.159 35.0691 413.815C35.2461 426.045 41.7255 439.567 51.5761 448.262L51.6133 448.296C64.0647 460.04 86.7929 470.226 119.167 478.571C148.936 486.245 179.729 490.415 195.435 492.218L199.323 492.664L196.167 494.942C194.89 495.864 193.725 496.675 192.605 497.423L191.883 497.906L191.091 497.543C188.834 496.51 187.401 496.293 186.595 496.293C185.88 496.293 185.018 496.448 184.971 497.187C184.939 497.67 185.284 498.388 186.012 498.479L189.875 498.96L186.721 501.207C184.614 502.707 181.47 504.515 177.829 506.61C165.918 513.461 147.918 523.816 151.014 532.909L151.217 533.506L150.929 534.069C150.098 535.697 150.027 537.208 150.713 538.689C152.183 541.862 156.78 544.271 160.684 545.25L160.751 545.267L160.817 545.29C167.61 547.653 174.742 548.851 182.012 548.851Z" fill="white"/>
<mask id="mask0" mask-type="alpha" maskUnits="userSpaceOnUse" x="33" y="145" width="336" height="406">
<path fill-rule="evenodd" clip-rule="evenodd" d="M368.481 145.678H33.7897V550.259H368.481V145.678Z" fill="white"/>
</mask>
<g mask="url(#mask0)">
<path fill-rule="evenodd" clip-rule="evenodd" d="M159.455 390.469C158.657 386.126 160.17 381.641 160.432 377.267C164.392 346.07 168.765 314.894 174.559 283.97C175.98 276.57 177.416 269.2 179.062 261.839C178.813 257.382 178.595 252.925 178.452 248.466C170.411 243.419 161.345 240.152 151.968 238.505C149.434 252.6 146.902 266.685 145.145 280.906C139.669 316.105 142.793 351.923 137.482 387.082C144.851 387.906 152.163 389.127 159.455 390.469ZM145.311 417.891C150.852 419.362 156.399 420.77 161.984 422.068C171.924 424.378 181.861 426.698 191.775 429.111C196.724 430.316 201.683 431.485 206.622 432.728C208.965 433.319 211.293 433.975 213.587 434.735C214.731 435.114 215.849 435.549 216.968 435.996C217.948 436.387 218.872 436.927 219.949 436.85C220.013 436.845 220.053 436.783 220.022 436.726C219.458 435.691 218.297 435.201 217.272 434.678C216.142 434.101 214.964 433.607 213.785 433.134C211.167 432.085 208.44 431.314 205.72 430.567C195.834 427.85 185.863 425.417 175.903 422.982C165.895 420.536 155.886 418.193 145.746 416.341C144.724 416.154 144.282 417.618 145.311 417.891ZM194.397 501.528C193.954 501.409 193.508 501.301 193.064 501.198C185.954 507.107 152.471 522.453 155.017 531.62C155.918 532.76 158.072 533.019 159.434 533.388C161.807 534.028 164.202 534.583 166.621 535.022C174.438 536.442 182.535 536.69 190.343 535.07C193.215 534.634 195.808 533.41 198.424 532.227C206.878 528.515 216.188 524.413 224.601 520.731C235.288 516.501 254.034 508.164 246.324 494.097C239.02 502.3 229.748 501.583 225.078 491.388C223.467 488.293 222.062 484.121 218.278 482.87C216.283 481.523 213.731 481.243 212.064 482.744C211.943 482.557 211.835 482.295 211.777 482.063C209.897 484.734 208.276 487.547 206.073 489.988C206.829 490.029 214.703 495.847 212.379 495.85C209.584 494.412 206.806 493.214 203.787 492.44C201.599 494.637 199.194 496.68 196.701 498.569C199.122 500.166 201.297 502.12 203.046 504.242C203.197 504.429 203.013 504.671 202.787 504.57C200.071 503.361 197.278 502.3 194.397 501.528ZM158.356 541.164C185.551 553.36 214.34 539.779 237.531 525.301C242.884 522.317 249.924 518.087 248.842 511.062C244.9 516.821 238.401 520.1 232.163 522.943C221.683 527.672 211.134 532.25 200.629 536.922C199.636 540.208 194.892 540.334 192.024 541.063C179.259 543.535 165.537 542.307 153.524 537.378C154.219 539.434 156.494 540.377 158.356 541.164ZM266.859 493.676C267.53 493.762 268.202 493.84 268.874 493.915C268.805 493.028 269.341 492.14 270.203 491.865C269.816 489.983 269.672 488.038 269.88 486.129C268.756 489.027 265.13 488.147 262.826 487.312C259.536 486.419 256.266 485.458 253.013 484.434C251.731 486.813 250.372 489.156 248.702 491.31C254.781 491.85 260.803 492.922 266.859 493.676ZM269.533 484.56C269.695 484.901 269.925 485.261 269.931 485.67C270.095 484.26 270.415 482.868 270.903 481.533C270.446 482.542 269.99 483.551 269.533 484.56ZM273.37 477.001C276.36 473.109 281.887 469.928 286.996 471.012C287.325 471.083 287.333 471.61 286.996 471.676C280.133 472.607 274.106 478.042 273.867 485.07C273.326 488.25 275.542 491.373 274.796 494.425C274.944 494.435 275.093 494.443 275.239 494.453C275.293 494.657 275.342 494.838 275.406 494.998C274.665 495.121 274.447 496.312 275.322 496.524C275.839 496.65 276.381 496.715 276.932 496.743C279.73 495.989 282.682 495.815 285.358 494.7C288.004 493.532 287.343 490.25 288.276 487.978C288.961 485.357 289.749 482.746 290.741 480.232C290.813 480.03 291.087 480.075 291.11 480.28C291.81 485.297 291.787 490.399 291.618 495.456C292.536 495.55 293.449 495.653 294.365 495.767C294.306 494.354 298.551 477.144 300.787 481.561C299.661 486.417 299.525 491.489 299.405 496.486C306.045 497.578 312.588 499.205 318.954 501.419C323.44 502.776 328.775 506.792 333.129 503.162C336.502 500.378 337.638 495.519 337.32 491.386C332.935 466.926 298.294 464.068 277.845 465.877C275.914 470.326 273.947 474.761 271.954 479.185C272.367 478.423 272.839 477.692 273.37 477.001ZM343.114 490.909C343.488 485.355 342.552 478.441 338.43 474.302C328.997 466.339 315.788 463.834 304 460.951C298.509 459.869 292.944 459.15 287.355 458.792C285.372 458.635 282.854 459.084 281.453 457.465C280.732 459.17 280.002 460.873 279.271 462.575C302.738 459.506 351.701 470.17 337.989 502.267C340.893 499.127 342.816 495.303 343.114 490.909ZM359.499 388.098C358.842 383.331 358.124 378.569 357.365 373.814C354.262 351.072 347.847 328.939 344.023 306.351C337.403 308.5 330.624 310.137 323.94 312.072C338.424 336.12 350.271 361.656 359.499 388.098ZM305.114 365.721C306.387 359.677 307.815 353.518 308.464 347.374C308.494 347.098 308.068 347.069 307.992 347.312C306.929 350.714 306.204 354.241 305.307 357.69C304.406 361.152 303.569 364.629 302.682 368.094C302.399 369.2 302.115 370.306 301.831 371.412C301.661 371.419 301.491 371.425 301.322 371.429C300.673 371.444 300.478 372.258 301 372.597C301.153 372.696 301.306 372.783 301.459 372.86C298.744 383.404 295.962 393.924 292.926 404.387C289.388 416.58 285.405 428.626 282.221 440.918C282.148 441.202 282.28 441.401 282.473 441.487C280.817 447.08 279.429 452.746 277.915 458.382C277.6 459.555 279.336 460.316 279.93 459.217C280.843 457.525 281.045 455.212 281.493 453.353C281.996 451.258 282.475 449.159 282.953 447.059C283.714 443.718 284.396 440.336 284.959 436.949C287.055 431.691 288.931 426.371 290.592 420.95C294.312 408.809 297.743 396.586 300.798 384.267C301.699 380.63 302.583 376.989 303.426 373.338C307.266 373.397 311.278 369.061 315.136 371.369C315.315 371.476 315.495 371.233 315.355 371.091C313.817 369.535 311.691 369.399 309.625 369.784C308.283 370.034 306.996 370.509 305.682 370.867C305.104 371.024 304.509 371.14 303.909 371.226C304.323 369.394 304.727 367.559 305.114 365.721ZM222.394 480.154C224.356 481.435 225.956 483.329 227.085 485.365C234.318 504.257 242.053 494.138 251.663 484C243.53 480.936 232.758 478.64 226.52 472.549C225.441 475.243 224.12 477.808 222.394 480.154ZM224.982 434.07C225.61 430.962 226.128 427.835 226.599 424.7C227.051 421.694 227.757 418.473 227.641 415.43C227.637 415.308 227.466 415.287 227.429 415.402C226.451 418.435 226.158 421.79 225.538 424.915C224.938 427.935 224.279 430.944 223.615 433.952C222.252 440.126 220.324 446.205 219.157 452.416C219.031 453.081 219.932 453.315 220.177 452.693C222.513 446.753 223.724 440.298 224.982 434.07ZM357.265 294.017C360.425 290.619 362.908 286.281 362.428 281.678C360.53 279.15 359.901 275.853 358.796 272.933C354.474 260.709 350.463 248.392 345.759 236.301C335.754 239.373 325.91 243.058 316.626 247.898C314.918 248.768 313.227 249.671 311.557 250.607C309.808 251.586 307.9 253.286 305.802 252.799C308.095 256.04 312.817 259.413 313.615 263.158C313.786 264.344 312.945 265.444 311.652 265.179C291.419 279.529 270.523 293.575 251.398 309.559C237.076 320.88 226.081 330.061 221.169 348.429C217.858 360.327 217.848 372.762 218.335 384.995C218.429 387.374 218.432 389.808 218.624 392.202C218.337 393.993 218.883 397.637 220.899 397.703C220.853 398.137 220.71 398.538 220.481 398.891C220.545 398.977 220.612 399.058 220.681 399.141C220.781 398.651 220.879 398.165 220.971 397.675C222.541 390.734 222.751 382.68 222.49 375.289C222.38 373.171 225.634 373.221 225.816 375.289C226.306 380.876 226.796 386.463 227.286 392.048C227.873 395.667 226.947 400.402 229.845 403.154C232.792 400.435 231.818 395.072 231.674 391.564C231.444 385.84 231.195 380.12 230.982 374.397C230.915 372.583 233.924 372.116 234.265 373.96C235.232 379.217 236.278 384.458 237.404 389.684C238.084 391.705 238.551 400.77 241.946 399.196C243.97 397.817 242.51 389.727 242.777 387.049C242.651 381.747 242.577 376.452 242.187 371.163C242.028 369.029 245.509 368.575 245.986 370.658C246.76 374.031 247.502 377.403 248.174 380.798C249.648 386.521 249.112 394.28 254.437 398.084C256.522 383.217 253.521 368.454 253.101 353.64C253.352 348.84 254.178 344.088 254.906 339.346C255.711 334.102 256.181 328.394 254.296 323.337C254.811 321.072 256.837 327.198 257.027 327.708C258.553 324.706 262.27 324.474 265.209 323.538C271.741 321.427 278.433 319.836 285.043 317.959C302.571 313.098 320.119 308.314 337.672 303.539C344.684 301.602 352.066 299.309 357.265 294.017ZM181.743 373.095C184.161 360.006 184.095 346.744 183.061 333.512C181.925 312.99 180.822 292.463 179.642 271.944C174.52 309.083 169.06 346.179 164.884 383.437C164.587 386.03 164.633 388.774 163.322 391.087C170.565 392.056 178.286 393.032 185.328 390.572C182.238 385.238 181.148 379.164 181.743 373.095ZM338.95 221.335C326.741 196.311 301.847 178.546 273.929 174.672C273.899 174.702 273.865 174.733 273.834 174.765C273.927 174.849 274.011 174.939 274.088 175.033C273.337 174.48 272.306 175.174 272.639 175.938C272.226 176.879 271.921 177.848 271.539 178.796C271.377 178.781 271.213 178.766 271.049 178.741C269.392 182.025 268.495 185.811 266.764 189.085C257.289 205.475 233.908 212.129 216.37 205.513C202.453 199.492 200.478 182.348 201.725 169.168C201.789 168.28 202.24 167.652 202.843 167.282C195.254 168.495 187.665 169.718 180.068 170.871C176.408 171.426 172.648 172.228 169.822 174.738C158.698 186.166 156.713 216.921 152.971 232.911C161.924 233.846 171.932 238.941 178.35 245.119C178.047 238.096 178.48 231.11 179.291 224.138C179.304 223.797 179.873 223.681 179.927 224.055C181.53 231.122 182.763 238.25 183.271 245.492C185.382 274.633 186.636 303.831 188.444 332.992C189.063 343.725 189.835 354.551 188.303 365.246C183.374 387.263 192.066 398.069 215.395 394.409C212.562 366.507 214.616 334.581 238.019 315.235C238.733 314.599 239.589 314.642 240.238 315.021C259.266 298.878 279.349 283.925 300.724 270.904C300.57 268.213 307.313 265.835 309.201 263.978C302.191 256.729 296.854 247.916 292.199 239.052C291.788 238.089 286.436 228.393 288.139 229.003C293.225 236.528 298.282 244.1 304.271 250.986C303.945 247.81 312.186 245.681 314.723 244.231C324.523 240.109 334.769 236.883 345.328 235.213C343.428 230.489 341.35 225.835 338.95 221.335ZM208.534 170.296C208.855 169.748 209.16 169.189 209.452 168.621C208.462 168.659 207.498 168.694 206.524 168.856C206.567 170.422 206.48 172.001 206.462 173.58C206.949 172.425 207.903 171.37 208.534 170.296ZM43.1504 390.878C66.5388 373.897 104.955 384.716 132.049 386.461C137.215 352.644 135.106 318.274 139.921 284.402C144.355 250.562 149.031 216.25 160.167 183.828C164.763 171.292 172.714 167.569 185.805 167.67C192.448 167.41 199.473 166.348 205.928 166.5C207.344 166.522 208.824 166.709 210.101 167.279C211.896 163.238 212.871 158.9 213.364 154.529C213.395 154.251 213.748 154.201 213.854 154.465C215.372 158.272 215.533 162.426 214.708 166.411C214.11 169.267 210.552 180.504 206.421 176.107C206.093 185.326 208.121 196.336 217.167 201.121C232.974 208.002 254.824 201.737 263.98 187.132C265.75 184.214 267.276 181.109 269.235 178.307C255.583 174.448 247.919 158.115 251.135 145.678C253.123 155.351 256.747 166.159 265.773 171.577C298.638 171.504 325.963 186.449 341.404 215.234C344.425 219.413 347.218 223.757 349.778 228.176C351.155 231.132 355.189 235.244 351.766 238.099C355.72 248.637 359.229 259.322 362.938 269.944C363.956 273.482 366.285 277.195 365.821 280.916C366.323 283.209 366.3 285.92 365.149 288.125C364.056 292.055 361.604 297.341 357.539 299.009C354.089 302.154 349.726 304.321 345.176 305.953C357.311 337.613 361.93 371.758 366.041 405.21C370.071 434.474 372.15 470.072 346.903 491.221C346.413 497.273 342.817 504.984 335.707 505.049C330.783 509.877 324.781 507.228 319.3 504.868C310.049 501.447 300.346 499.551 290.705 498.494C289.672 499.301 287.989 499.167 287.069 498.226C281.228 496.882 273.134 502.325 271.954 497.394C264.424 496.665 256.976 495.298 249.453 494.5C252.623 498.607 252.395 504.663 250.007 509.1C256.088 521.043 241.923 527.96 233.262 532.861C221.569 539.62 209.357 546.035 195.985 548.837C184.228 551.306 171.911 550.557 160.567 546.612C154.607 545.116 146.281 540.206 149.818 533.287C145.335 520.12 176.82 506.477 186.082 499.883C182.296 499.412 182.158 491.567 192.004 496.075C193.194 495.28 194.363 494.46 195.52 493.625C155.694 489.055 79.6347 476.481 50.8114 449.3C34.9766 435.324 25.8405 407.053 43.1504 390.878Z" fill="black"/>
</g>
<path fill-rule="evenodd" clip-rule="evenodd" d="M183.153 82.6408C182.854 79.8193 186.104 72.292 186.025 73.8188C191.234 65.6541 201.4 62.4433 210.172 59.748C228.792 53.4997 243.332 61.0458 256.414 74.4199C264.138 81.7537 271.487 89.9457 275.364 100.098C282.992 119.465 271.559 141.548 254.172 150.8C252.769 151.572 251.24 152.305 249.904 153.237C242.716 157.458 234.276 158.919 226.267 160.756C211.284 164.237 192.466 162.578 183.636 148.077C177.646 137.786 179.237 125.31 179.706 113.889C180.41 103.883 181.647 92.5742 183.153 82.6408Z" fill="white"/>
<path fill-rule="evenodd" clip-rule="evenodd" d="M263.243 54.0817C253.535 44.8572 239.188 40.3862 226.069 41.1682C218.964 41.5917 212.117 43.4014 205.696 46.5105C203.688 47.4828 201.731 48.6209 199.927 49.961C198.709 50.5384 197.519 51.1632 196.367 51.8426C190.593 55.2424 186.13 60.3919 183.273 66.5003C181.91 69.4158 180.834 72.4903 180.224 75.658L180.126 76.1795C179.815 77.7691 179.201 79.8634 179.978 81.3509C180.494 82.3371 181.574 82.9588 182.596 82.8752C182.374 83.7892 182.108 84.703 181.938 85.6229L181.475 88.1309C181.399 88.5489 181.322 88.9669 181.248 89.3849C180.801 91.8762 180.389 94.3645 180.061 96.8753C179.372 102.103 178.75 107.342 178.202 112.59C177.809 116.342 177.441 120.099 177.083 123.855L176.869 126.108C176.502 129.987 176.214 133.9 176.464 137.795C176.84 143.639 178.608 148.971 182.04 153.309C181.713 154.108 181.603 155.008 181.357 156.002C181.016 157.378 180.572 158.725 180.1 160.06C179.879 160.584 179.657 161.109 179.438 161.636L178.862 163.029V163.029L178.413 163.943C177.926 164.937 177.455 165.945 177.156 166.974C175.216 168.027 173.633 169.744 173.555 172.097C173.487 174.223 174.572 176.475 176.406 177.558C178.216 178.629 180.079 178.208 181.812 177.39C183.323 177.837 184.94 177.894 186.436 177.416C187.588 178.476 189.075 179.208 190.722 179.406C193.205 179.706 195.563 178.999 197.842 178.07L198 178.005C198.072 177.976 198.143 177.946 198.211 177.915C200.832 177.787 203.442 176.734 205.301 174.867C205.907 174.262 206.43 173.571 206.852 172.796C208.385 169.979 208.623 166.52 207.116 163.726C207.439 163.739 207.765 163.753 208.089 163.762C212.402 163.887 216.724 163.663 221.026 163.375L222.04 163.305C224.824 163.101 228.931 162.621 229.009 159.114C229.02 158.665 228.565 158.328 228.148 158.448C226.566 158.901 225.012 159.615 223.372 159.872C221.228 160.209 219.008 160.245 216.842 160.368L216.219 160.403C211.852 160.646 207.328 160.794 203.031 159.913C199.824 159.258 196.482 158.065 193.543 156.589C190.722 155.168 188.159 153.309 186.092 150.882C181.538 145.542 180.935 138.01 181.157 131.255C181.426 123.187 182.358 115.131 182.884 107.075L183.122 103.456C183.319 100.437 183.498 97.415 183.572 94.3954C183.627 92.1911 183.592 89.9813 183.581 87.777C183.575 86.6763 183.589 85.5699 183.564 84.4692C183.55 83.8506 183.479 83.2458 183.427 82.6408C183.668 82.5129 183.893 82.3343 184.096 82.0977C184.255 81.911 184.378 81.7132 184.463 81.5125C185.486 81.2085 185.96 80.8044 186.623 79.8879C187.183 79.116 187.816 78.4026 188.493 77.7338C189.935 76.3125 191.583 75.1505 193.324 74.1386C196.923 72.0461 200.865 70.6472 204.84 69.4991C210.926 67.7435 217.248 66.8406 223.424 65.4302C225.127 67.8435 226.931 70.1846 228.817 72.4502C234.703 79.5172 241.452 85.8177 248.684 91.4359C250.156 92.5813 251.648 93.7099 253.161 94.8048C255.154 97.8942 257.168 100.969 259.213 104.023L260.091 105.33L260.105 105.355C260.225 105.542 260.341 105.729 260.456 105.916C260.7 106.311 260.974 106.693 261.264 107.064C261.453 107.345 261.645 107.626 261.84 107.908C261.467 108.111 261.127 108.34 260.861 108.594C260.318 109.114 260.409 109.942 260.861 110.472C262.32 112.183 264.628 109.954 266.306 109.36C268.123 109.923 269.639 112.122 270.393 113.802C271.479 116.224 271.915 119.144 271.424 121.766C270.975 124.163 269.763 126.233 267.748 127.532C267.676 127.576 267.6 127.624 267.526 127.665C267.523 127.671 267.523 127.671 267.52 127.668C267.452 127.713 267.38 127.755 267.309 127.794C266.363 128.323 265.324 128.635 264.247 128.71C263.63 128.755 262.986 128.722 262.369 128.797C261.736 128.872 261.215 129.168 260.606 129.324C259.935 129.499 259.502 130.416 259.924 131.032C260.132 131.336 260.329 131.626 260.541 131.885C259.847 132.715 259.244 133.632 258.698 134.504C257.953 135.699 257.292 136.968 256.689 138.261C256.132 139.005 255.6 139.763 255.085 140.537C252.165 144.935 249.931 149.834 248.558 154.953C247.198 160.016 246.348 165.704 247.606 170.873C248.766 175.628 252.152 179.565 257.163 179.819C258.209 179.871 259.238 179.752 260.205 179.482C262.329 180.816 264.962 181.487 267.318 181.566C269.225 181.629 271.312 181.221 272.868 180.049C274.715 180.866 276.719 181.33 278.461 181.436C280.41 181.554 282.451 181.014 284.04 179.944C285.552 181.261 287.184 182.372 289.038 183.135C292.226 184.444 296.02 184.283 298.94 182.324C301.865 180.362 303.353 176.84 302.46 173.345C301.637 170.124 299.052 167.761 296.623 165.726L296.143 165.326C293.741 163.333 291.314 161.404 289.772 158.595C288.136 155.616 287.538 152.155 287.376 148.783C287.025 141.36 288.511 134.003 288.964 126.618C289.43 118.991 289.169 111.341 288.147 103.77C286.159 89.0617 280.928 74.6433 271.465 63.1786C270.096 61.5197 268.63 59.9385 267.086 58.4398C265.905 56.8703 264.63 55.3993 263.243 54.0817ZM137.363 138.06C137.311 138.063 137.261 138.066 137.215 138.085C137.184 138.098 137.157 138.12 137.133 138.143L136.902 138.378C136.82 138.461 136.826 138.589 136.902 138.673C136.97 138.749 137.091 138.751 137.171 138.693L137.193 138.673L137.432 138.43C137.458 138.401 137.48 138.37 137.492 138.33C137.503 138.291 137.503 138.247 137.505 138.205C137.508 138.13 137.437 138.06 137.363 138.06ZM265.985 115.293C263.787 114.615 261.149 116.226 259.839 117.926C259.181 118.779 258.995 119.947 259.839 120.785C260.557 121.499 261.961 121.629 262.654 120.785C263.441 119.824 264.083 118.492 265.207 117.876C266.427 117.207 268.06 117.374 268.348 119.004C268.398 119.281 268.787 119.188 268.803 118.941C268.91 117.291 267.488 115.752 265.985 115.293Z" fill="black"/>
<path fill-rule="evenodd" clip-rule="evenodd" d="M207.43 143.332C209.273 142.568 210.917 141.293 212.119 139.664C212.537 139.098 212.646 138.501 212.558 137.954C212.459 137.339 212.102 136.782 211.614 136.408C211.124 136.033 210.512 135.848 209.92 135.942C209.405 136.024 208.893 136.311 208.488 136.904L208.404 137.023C207.689 138.006 206.758 138.812 205.696 139.332C204.674 139.833 203.53 140.067 202.346 139.931C200.091 139.672 198.538 138.433 196.886 136.75C196.681 136.537 196.476 136.318 196.27 136.095C196.14 135.893 195.96 135.764 195.76 135.696C195.537 135.62 195.286 135.624 195.055 135.706C194.833 135.785 194.634 135.934 194.501 136.133C194.375 136.322 194.303 136.556 194.326 136.824C194.477 138.568 195.374 140.125 196.649 141.347C198.064 142.705 199.94 143.644 201.706 143.973C203.652 144.336 205.635 144.076 207.43 143.332V143.332ZM200.788 116.424C198.718 117.703 195.563 120.685 197.79 123.857C200.412 126.653 204.186 123.447 206.046 121.997C207.77 120.873 209.708 123.763 208.108 125.075C194.668 135.19 189.214 116.758 199.741 114.92C200.9 114.717 201.33 116.028 200.788 116.424ZM224.872 104.658C224.643 101.772 220.319 101.117 219.889 103.973C219.504 106.531 219.957 108.881 221.091 111.184C222.174 113.384 224.896 112.358 225.102 110.354C225.378 107.668 225.014 106.453 224.872 104.658ZM191.957 103.38C191.354 102.578 190.483 102.03 189.441 102.34C186.182 103.307 187.143 108.009 188.287 110.298C188.909 111.541 190.918 111.856 191.827 110.762C193.307 108.977 194.016 105.413 192.134 103.655C192.083 103.565 192.026 103.473 191.957 103.38ZM221.137 92.0299L220.622 91.9383C219.03 91.6584 217.05 91.3895 215.924 92.6906C215.326 93.3806 215.121 94.6631 215.924 95.3235C217.336 96.4856 218.898 96.0352 220.59 96.1336C221.985 96.215 223.326 96.4496 224.669 96.84C227.617 97.6964 230.019 99.2597 232.536 100.976C232.866 101.201 233.204 100.772 233.046 100.458C231.593 97.5646 228.776 95.1878 225.955 93.739C224.45 92.9657 222.802 92.3242 221.137 92.0299ZM194.927 90.7338L194.533 90.8158C190.246 91.7266 184.677 93.5461 182.646 97.8264C182.569 98.4316 182.651 98.5613 182.717 98.6461L182.739 98.6743C182.794 98.7466 182.838 98.8464 183.096 98.9288C183.168 98.9114 183.24 98.893 183.313 98.8736C184.244 98.6257 184.98 98.2842 185.693 97.9299L186.465 97.5428C187.362 97.096 188.266 96.6653 189.225 96.3474C191.271 95.6692 193.375 95.1914 195.512 94.9363C195.975 94.881 196.421 94.7221 196.773 94.4498C197.107 94.1913 197.362 93.8335 197.478 93.3578C197.629 92.7422 197.585 92.2761 197.26 91.7208C197.016 91.3037 196.667 91.0146 196.265 90.8486C195.856 90.6794 195.39 90.6395 194.927 90.7338Z" fill="black"/>
<path fill-rule="evenodd" clip-rule="evenodd" d="M200.036 157.025C200.036 157.025 212.205 158.842 217.652 156.273C223.083 153.713 228.366 151.235 233.292 147.843C238.339 144.367 242.621 140.24 245.678 134.957C248.521 130.042 250.884 124.826 253.263 119.651C253.402 119.348 254.768 116.342 255.251 115.334C255.994 113.77 258.165 114.261 258.165 116.688C258.165 119.115 258.272 137.493 254.099 144.723C250.335 151.253 243.956 155.815 237.618 159.797C230.605 164.2 221.29 168.96 212.923 170.218C205.351 171.355 196.71 168.161 191.228 162.897C185.495 157.392 183.872 149.913 180.914 142.75C180.254 141.149 182.596 140.184 183.283 141.758C184.577 144.723 200.036 157.025 200.036 157.025Z" fill="black"/>
<path fill-rule="evenodd" clip-rule="evenodd" d="M180.623 121.739C185.128 123.991 191.413 120.67 194.442 117.191C195.544 115.924 196.395 112.3 195.971 110.001C194.822 103.776 190.506 100.04 185.949 98.7641C179.632 96.9951 173.275 101.476 174.016 106.765C174.719 111.776 175.784 119.046 180.623 121.739M211.285 109.782C211.647 116.566 216.896 122.503 223.169 124.263C233.277 127.19 238.272 119.815 240.535 111.871C240.76 111.081 241.289 108.672 239.87 106.605C234.292 98.475 220.721 99.8607 213.942 102.093C211.958 104.062 211.147 106.904 211.285 109.782M175.728 98.0808C175.731 98.0849 175.735 98.0883 175.738 98.0924C175.761 98.0777 175.784 98.0628 175.807 98.0484C175.781 98.0597 175.754 98.0693 175.728 98.0808M167.271 98.8649C167.858 91.9579 188.739 94.6027 191.18 95.1687C197.843 97.2025 203.597 102.736 211.046 100.303C218.765 91.3735 244.756 93.9344 250.205 98.4833C251.236 98.0633 252.49 98.2886 253.819 98.6849C260.643 98.4291 291.796 100.871 285.424 109.91C284.457 110.607 283.49 109.898 283.464 108.464C250.246 96.0183 253.466 107.675 249.527 106.314C248.925 106.494 248.297 106.608 247.748 106.727C244.699 107.745 243.664 107.431 243.262 110.983C240.503 138.415 205.306 128.947 208.193 106.446C205.335 106.283 202.835 105 199.812 106.253C197.714 127.449 181.279 128.305 176.334 120.957C172.604 115.857 174.083 108.161 168.956 104.148C166.933 105.906 166.802 99.9737 167.271 98.8649" fill="black"/>
</svg>
