<svg width="54" height="45" viewBox="0 0 54 45" fill="none" xmlns="http://www.w3.org/2000/svg">
<path fill-rule="evenodd" clip-rule="evenodd" d="M37.1862 16.5918C37.2505 16.004 36.5514 14.4358 36.5683 14.7539C35.4476 13.0529 33.2605 12.384 31.3734 11.8225C27.3675 10.5208 24.2394 12.0929 21.4248 14.8791C19.7631 16.407 18.182 18.1137 17.3479 20.2287C15.7069 24.2635 18.1666 28.8642 21.9073 30.7917C22.2091 30.9525 22.538 31.1052 22.8255 31.2994C24.3718 32.1788 26.1876 32.483 27.9107 32.8658C31.1342 33.5911 35.1827 33.2454 37.0824 30.2244C38.3709 28.0804 38.0286 25.4813 37.9278 23.1019C37.7762 21.0172 37.5103 18.6613 37.1862 16.5918Z" fill="white"/>
<path fill-rule="evenodd" clip-rule="evenodd" d="M19.9557 10.642C22.0442 8.72025 25.131 7.7888 27.9532 7.9517C29.4818 8.03995 30.955 8.41696 32.3364 9.0647C32.7684 9.26725 33.1894 9.50436 33.5776 9.78355C33.8394 9.90384 34.0955 10.034 34.3435 10.1755C35.5856 10.8838 36.5457 11.9566 37.1603 13.2292C37.4537 13.8366 37.6852 14.4771 37.8163 15.1371L37.8374 15.2457C37.9043 15.5769 38.0365 16.0132 37.8692 16.3231C37.7583 16.5286 37.526 16.6581 37.306 16.6407C37.3537 16.8311 37.411 17.0215 37.4475 17.2131L37.5471 17.7356C37.5636 17.8227 37.58 17.9098 37.5962 17.9969C37.6923 18.5159 37.7808 19.0343 37.8515 19.5574C37.9996 20.6465 38.1334 21.738 38.2514 22.8312C38.3359 23.613 38.4152 24.3956 38.4921 25.1781L38.538 25.6475C38.6171 26.4556 38.679 27.2707 38.6253 28.0824C38.5444 29.2999 38.164 30.4107 37.4256 31.3143C37.496 31.4809 37.5197 31.6684 37.5727 31.8755C37.646 32.162 37.7415 32.4426 37.8431 32.7208C37.8906 32.8301 37.9383 32.9395 37.9854 33.0491L38.1093 33.3394V33.3394L38.206 33.5298C38.3108 33.7369 38.4121 33.947 38.4765 34.1613C38.8937 34.3806 39.2344 34.7383 39.2511 35.2285C39.2658 35.6715 39.0323 36.1406 38.6377 36.3663C38.2484 36.5894 37.8476 36.5016 37.4748 36.3313C37.1497 36.4244 36.8018 36.4362 36.4799 36.3367C36.232 36.5576 35.9122 36.7101 35.5578 36.7513C35.0235 36.8137 34.5163 36.6665 34.0261 36.4729L33.992 36.4593C33.9766 36.4534 33.9613 36.447 33.9465 36.4407C33.3827 36.414 32.8212 36.1945 32.4213 35.8056C32.291 35.6796 32.1784 35.5356 32.0875 35.3742C31.7578 34.7872 31.7065 34.0667 32.0309 33.4845C31.9613 33.4874 31.8911 33.4902 31.8215 33.492C30.8935 33.5181 29.9639 33.4715 29.0382 33.4114L28.82 33.3968C28.221 33.3544 27.3377 33.2544 27.3209 32.5237C27.3184 32.4302 27.4164 32.3599 27.506 32.3849C27.8464 32.4795 28.1808 32.6282 28.5335 32.6816C28.9947 32.7518 29.4723 32.7594 29.9383 32.7849L30.0723 32.7923C31.012 32.8429 31.9853 32.8737 32.9097 32.6903C33.5997 32.5539 34.3187 32.3053 34.9509 31.9976C35.5578 31.7016 36.1093 31.3144 36.554 30.8087C37.5336 29.6963 37.6634 28.1271 37.6156 26.7198C37.5578 25.039 37.3572 23.3607 37.244 21.6823L37.1928 20.9282C37.1506 20.2995 37.112 19.6698 37.096 19.0407C37.0842 18.5815 37.0918 18.1211 37.0942 17.6619C37.0954 17.4326 37.0925 17.2021 37.0978 16.9728C37.1007 16.8439 37.1161 16.7179 37.1273 16.5918C37.0754 16.5652 37.027 16.528 36.9834 16.4787C36.9492 16.4398 36.9226 16.3986 36.9043 16.3568C36.6843 16.2934 36.5823 16.2093 36.4396 16.0183C36.3193 15.8575 36.183 15.7089 36.0373 15.5695C35.7271 15.2734 35.3726 15.0314 34.9981 14.8206C34.2237 14.3846 33.3756 14.0932 32.5204 13.854C31.211 13.4882 29.851 13.3001 28.5223 13.0063C28.156 13.5091 27.7679 13.9968 27.3621 14.4688C26.0958 15.9411 24.6438 17.2537 23.0879 18.4242C22.7712 18.6628 22.4503 18.8979 22.1248 19.126C21.696 19.7696 21.2626 20.4102 20.8227 21.0464L20.6338 21.3188L20.6309 21.3241C20.6049 21.363 20.5801 21.4019 20.5554 21.4408C20.5029 21.5232 20.4439 21.6027 20.3814 21.6799C20.3407 21.7385 20.2994 21.7972 20.2575 21.8559C20.3378 21.8982 20.4109 21.9458 20.4681 21.9987C20.5849 22.1072 20.5654 22.2797 20.4681 22.39C20.1543 22.7464 19.6577 22.282 19.2968 22.1583C18.9057 22.2755 18.5796 22.7337 18.4174 23.0837C18.1838 23.5882 18.0901 24.1966 18.1956 24.7429C18.2923 25.2422 18.5531 25.6736 18.9865 25.9442C19.0019 25.9534 19.0183 25.9633 19.0343 25.972C19.0349 25.9732 19.0349 25.9732 19.0355 25.9726C19.0502 25.9818 19.0656 25.9906 19.0809 25.9987C19.2844 26.109 19.5079 26.1741 19.7396 26.1897C19.8724 26.199 20.011 26.192 20.1437 26.2077C20.28 26.2234 20.392 26.285 20.5229 26.3175C20.6674 26.354 20.7606 26.545 20.6697 26.6733C20.625 26.7366 20.5825 26.797 20.537 26.851C20.6863 27.024 20.816 27.215 20.9334 27.3967C21.0938 27.6457 21.236 27.9099 21.3658 28.1793C21.4855 28.3343 21.5999 28.4922 21.7108 28.6536C22.3389 29.5698 22.8196 30.5904 23.1151 31.6568C23.4076 32.7117 23.5904 33.8966 23.3197 34.9736C23.0702 35.9641 22.3419 36.7844 21.2637 36.8372C21.0387 36.8481 20.8174 36.8234 20.6094 36.7672C20.1523 37.0451 19.5858 37.1849 19.0789 37.2012C18.6688 37.2144 18.2198 37.1294 17.8849 36.8853C17.4875 37.0555 17.0565 37.1521 16.6817 37.1741C16.2623 37.1987 15.8234 37.0862 15.4815 36.8634C15.1562 37.1377 14.8051 37.3693 14.4062 37.5281C13.7203 37.8009 12.9041 37.7672 12.2759 37.3592C11.6466 36.9504 11.3264 36.2166 11.5186 35.4885C11.6956 34.8175 12.2518 34.3251 12.7743 33.9013L12.8776 33.818C13.3944 33.4027 13.9164 33.0008 14.2482 32.4157C14.6003 31.7951 14.7289 31.074 14.7637 30.3715C14.8392 28.8249 14.5195 27.2922 14.4222 25.7537C14.3219 24.1647 14.3779 22.571 14.5979 20.9937C15.0255 17.9295 16.1508 14.9257 18.1868 12.5372C18.4813 12.1916 18.7966 11.8622 19.1289 11.55C19.3829 11.223 19.6574 10.9165 19.9557 10.642ZM47.0375 28.1375C47.0487 28.1381 47.0593 28.1387 47.0693 28.1427C47.0761 28.1455 47.0817 28.15 47.087 28.1548L47.1366 28.2037C47.1543 28.2211 47.1531 28.2478 47.1366 28.2652C47.1221 28.2811 47.0959 28.2815 47.0789 28.2693L47.074 28.2652L47.0227 28.2146C47.0171 28.2086 47.0122 28.2021 47.0098 28.1938C47.0074 28.1857 47.0074 28.1764 47.0068 28.1677C47.0062 28.152 47.0216 28.1375 47.0375 28.1375ZM19.3657 23.3943C19.8387 23.2532 20.4061 23.5888 20.688 23.943C20.8296 24.1206 20.8697 24.3639 20.688 24.5386C20.5335 24.6872 20.2315 24.7145 20.0823 24.5386C19.9131 24.3383 19.775 24.0608 19.5332 23.9325C19.2708 23.7932 18.9193 23.828 18.8573 24.1676C18.8467 24.2251 18.763 24.2059 18.7594 24.1543C18.7364 23.8106 19.0425 23.4901 19.3657 23.3943Z" fill="black"/>
<path fill-rule="evenodd" clip-rule="evenodd" d="M31.9633 29.2358C31.5668 29.0766 31.213 28.811 30.9544 28.4718C30.8645 28.3538 30.8412 28.2293 30.86 28.1154C30.8812 27.9873 30.9582 27.8712 31.0632 27.7933C31.1685 27.7152 31.3002 27.6767 31.4276 27.6964C31.5383 27.7134 31.6484 27.7731 31.7356 27.8968L31.7538 27.9215C31.9076 28.1263 32.1079 28.2943 32.3362 28.4025C32.5563 28.5069 32.8024 28.5556 33.057 28.5273C33.5421 28.4734 33.8764 28.2152 34.2317 27.8645C34.2758 27.8203 34.3198 27.7746 34.3641 27.7282C34.3921 27.6862 34.4309 27.6591 34.474 27.6449C34.5218 27.6292 34.576 27.6301 34.6255 27.6471C34.6734 27.6635 34.7161 27.6947 34.7448 27.7361C34.772 27.7755 34.7874 27.8241 34.7824 27.8801C34.7499 28.2434 34.5569 28.5677 34.2828 28.8224C33.9783 29.1052 33.5747 29.3009 33.1947 29.3695C32.7761 29.4451 32.3495 29.3909 31.9633 29.2358V29.2358ZM33.3923 23.63C33.8377 23.8964 34.5163 24.5178 34.0371 25.1785C33.4732 25.761 32.6612 25.0931 32.2611 24.791C31.89 24.5569 31.4732 25.159 31.8174 25.4323C34.7088 27.5395 35.8821 23.6996 33.6175 23.3166C33.3682 23.2744 33.2756 23.5475 33.3923 23.63ZM28.2108 21.1788C28.2601 20.5775 29.1903 20.441 29.2828 21.036C29.3657 21.5689 29.2682 22.0585 29.0243 22.5383C28.7913 22.9967 28.2056 22.7829 28.1613 22.3655C28.1019 21.8059 28.1802 21.5528 28.2108 21.1788ZM35.2922 20.9126C35.4219 20.7454 35.6091 20.6312 35.8335 20.6957C36.5345 20.8974 36.3279 21.877 36.0817 22.3538C35.9479 22.6127 35.5155 22.6784 35.3201 22.4504C35.0017 22.0786 34.8491 21.3361 35.254 20.9699C35.265 20.951 35.2772 20.9319 35.2922 20.9126ZM29.0144 18.5479L29.1252 18.5288C29.4677 18.4705 29.8936 18.4145 30.1359 18.6856C30.2644 18.8293 30.3087 19.0965 30.1359 19.2341C29.8321 19.4762 29.4961 19.3823 29.132 19.4028C28.8319 19.4198 28.5435 19.4687 28.2544 19.55C27.6203 19.7284 27.1036 20.0541 26.562 20.4117C26.4909 20.4586 26.4184 20.3692 26.4523 20.3038C26.7649 19.701 27.3708 19.2058 27.9777 18.904C28.3016 18.7429 28.6561 18.6092 29.0144 18.5479ZM34.6532 18.2779L34.7379 18.295C35.6602 18.4847 36.8584 18.8638 37.2952 19.7555C37.3118 19.8816 37.2942 19.9086 37.2799 19.9263L37.2752 19.9321C37.2634 19.9472 37.254 19.968 37.1985 19.9852C37.1831 19.9816 37.1675 19.9777 37.1518 19.9737C36.9516 19.922 36.7932 19.8509 36.6398 19.7771L36.4736 19.6964C36.2807 19.6033 36.0861 19.5136 35.8799 19.4474C35.4398 19.3061 34.9871 19.2065 34.5274 19.1534C34.4277 19.1419 34.3318 19.1088 34.2561 19.0521C34.1842 18.9982 34.1294 18.9236 34.1043 18.8245C34.0719 18.6963 34.0812 18.5992 34.1511 18.4835C34.2037 18.3966 34.2789 18.3364 34.3653 18.3018C34.4533 18.2666 34.5535 18.2582 34.6532 18.2779Z" fill="black"/>
<path fill-rule="evenodd" clip-rule="evenodd" d="M33.5541 32.0885C33.5541 32.0885 30.936 32.4672 29.7641 31.932C28.5957 31.3985 27.4592 30.8823 26.3993 30.1755C25.3135 29.4515 24.3923 28.5917 23.7347 27.4912C23.1231 26.4671 22.6147 25.3805 22.1027 24.3023C22.0728 24.2393 21.7789 23.6129 21.6751 23.4028C21.5153 23.0771 21.0482 23.1794 21.0482 23.685C21.0482 24.1906 21.0252 28.0194 21.9228 29.5256C22.7326 30.886 24.1051 31.8365 25.4686 32.6661C26.9773 33.5834 28.9814 34.575 30.7815 34.8371C32.4105 35.0739 34.2695 34.4086 35.4491 33.3119C36.6823 32.165 37.0315 30.6068 37.6678 29.1146C37.81 28.7811 37.3061 28.5799 37.1583 28.9079C36.8799 29.5256 33.5541 32.0885 33.5541 32.0885Z" fill="black"/>
<path fill-rule="evenodd" clip-rule="evenodd" d="M37.7305 24.7373C36.7613 25.2065 35.4092 24.5145 34.7575 23.7897C34.5203 23.5258 34.3373 22.7707 34.4285 22.2919C34.6757 20.995 35.6043 20.2166 36.5847 19.9508C37.9437 19.5823 39.3113 20.5159 39.1519 21.6176C39.0007 22.6618 38.7716 24.1763 37.7305 24.7373M31.1338 22.2462C31.0561 23.6595 29.9268 24.8965 28.5772 25.2631C26.4025 25.8729 25.3278 24.3365 24.841 22.6814C24.7927 22.5169 24.679 22.0149 24.9841 21.5843C26.1841 19.8906 29.1039 20.1793 30.5622 20.6443C30.9891 21.0546 31.1636 21.6467 31.1338 22.2462M38.7836 19.8085C38.7829 19.8094 38.7821 19.8101 38.7815 19.8109C38.7765 19.8079 38.7716 19.8047 38.7665 19.8018C38.7721 19.8041 38.7781 19.8061 38.7836 19.8085M40.603 19.9719C40.4767 18.5329 35.9844 19.0839 35.4592 19.2018C34.0259 19.6255 32.7878 20.7782 31.1853 20.2715C29.5247 18.4111 23.933 18.9447 22.7608 19.8923C22.5389 19.8049 22.2691 19.8518 21.9832 19.9343C20.5151 19.8811 13.8129 20.3897 15.1837 22.273C15.3918 22.418 15.5997 22.2704 15.6054 21.9716C22.7518 19.3788 22.0591 21.8074 22.9066 21.5238C23.0361 21.5612 23.1711 21.5849 23.2892 21.6098C23.9452 21.8219 24.1679 21.7564 24.2543 22.4965C24.848 28.2115 32.4201 26.239 31.7991 21.5513C32.414 21.5173 32.9519 21.25 33.6021 21.511C34.0536 25.927 37.5893 26.1052 38.6533 24.5744C39.4557 23.5119 39.1375 21.9084 40.2405 21.0726C40.6759 21.4388 40.7039 20.2029 40.603 19.9719" fill="black"/>
</svg>
