<svg width="422" height="848" viewBox="0 0 422 848" fill="none" xmlns="http://www.w3.org/2000/svg">
<path fill-rule="evenodd" clip-rule="evenodd" d="M125.888 768.443C124.342 762.2 126.617 757.22 133.15 753.543C133.712 752.057 146.337 747.241 156.369 740.17C165.382 733.818 171.919 725.097 172.193 724.614C172.193 724.614 174.22 719.905 174.451 717.78C175.559 707.586 174.918 700.904 175.602 697.733C170.992 697.129 159.66 398.096 161.492 388.185C158.491 387.526 155.307 386.831 152.445 385.141C152.217 385.082 152.593 384.419 152.582 384.295C145.402 370.216 156.416 322.343 163.319 309.089C157.837 308.946 150.617 308.202 147.223 303.63C145.617 303.102 144.604 302.182 143.824 300.703C142.926 299.295 142.093 297.817 141.343 296.303C137.691 288.724 135.437 280.309 136.655 271.959C136.423 271.885 135.228 271.877 135.168 271.543C135.051 269.491 135.428 267.682 136.046 265.743C142.317 243.905 149.867 222.405 159.847 201.846C164.847 190.842 175.194 186.826 185.914 182.695C191.072 180.671 196.231 178.335 201.614 177.009C201.681 176.633 201.36 175.489 202.065 175.582C202.937 175.763 202.765 177.163 203.088 177.948C215.534 167.77 207.995 157.574 215.5 152C223.265 147.974 232.438 150.129 241 151C244.159 151.091 246.629 155.147 247.374 158.323C250.089 164.895 256.451 169.731 263.392 171.214C263.965 170.194 265.542 167.269 266.426 168.193C276.449 168.534 291.648 172.21 301.03 174.96C310.448 177.363 319.977 181.75 322.441 191.972C326.912 210.189 319.799 285.053 308.131 299.47L307.752 299.477C305.683 301.591 302.872 303.141 299.686 304.18C299.757 310.92 301.884 317.501 302.942 324.092C305.325 336.047 307.157 348.015 309.811 360.033C309.823 361.372 314.874 379.696 309.894 376.021C308.867 376.527 307.608 377.076 306.501 377.548C311.791 389.591 314.211 409.022 313.836 423.899C313.743 432.759 314.109 440.52 316.099 449.593C330.818 526.465 343.796 698.405 344.101 700.704C344.381 702.901 342.519 714.826 344.101 717.972C345.505 720.764 351.493 719.115 352.639 720.192C355.614 725.033 354.252 728.116 356.692 732.949C357.944 734.067 360.742 736.514 361.66 738.234C363.519 740.022 394.296 760.196 393.049 763.258C393.049 763.258 393.189 764.726 393.236 765.045C395.86 780.296 391.491 780.169 377.354 782.413C356.703 786.052 341.269 779.051 323.816 769.697C318.016 765.79 309.773 758.331 312.456 749.496C312.53 748.956 314.121 739.664 314.753 734.945C314.753 734.945 313.042 731.167 319.662 731.638C318.573 730.444 316.182 714.981 316.998 712.935C317.516 707.666 316.711 702.883 316.966 697.46C314.193 697.666 265.507 467.105 234.97 452.778C234.781 454.309 235.147 457.16 233.112 457.445C223.667 531.054 200.957 695.955 199.914 696.244C201.479 704.65 201.431 724.136 201.461 732.481C201.7 732.704 202.8 733.684 202.977 733.923C203.013 733.861 203.729 734.576 203.766 734.594L203.863 734.373C207.08 741.618 211.768 749.081 207.624 756.182C210.699 755.958 210.206 761.87 210.343 764.59C208.592 769.913 158.796 784.276 147.668 784.958C144.012 785.596 126.985 780.186 123.709 779.408C119.463 778.615 123.628 770.733 125.888 768.443Z" fill="white"/>
<path fill-rule="evenodd" clip-rule="evenodd" d="M242 151C240.388 150.95 243.383 158.51 244.485 159.35L244.53 159.383C245.47 160.049 245.91 160.644 246.42 161.706C248.905 168.276 255.914 172.045 262.769 170.649C260.388 175.086 258.789 179.379 256.406 183.741C245.431 206.322 209.39 213.669 205.08 182.685C211.684 181.411 215.597 166.576 211.36 162.151L211.245 162.689C210.024 168.5 209.188 174.448 204.779 178.829C204.645 178.868 204.516 178.88 204.39 178.88C204.222 178.085 204.028 177.298 203.787 176.526C203.2 174.644 200.263 174.998 200.345 177.034C191.551 179.711 183.1 183.503 174.688 187.165C167.695 190.213 161.977 195.663 158.719 202.565C149.585 221.446 142.611 241.376 136.531 261.425C136.124 264.135 131.577 274.205 135.245 275.173C134.346 283.468 136.647 291.858 140.202 299.307C141.852 302.106 143.016 305.986 146.33 307.154C149.771 311.471 156.063 312.591 161.301 312.896C154.256 329.462 144.683 371.66 151.157 388.121C150.582 390.822 158.042 392.104 160.038 392.721C158.429 402.323 158.78 412.214 159.474 421.886C165.97 504.374 167.203 587.317 160.368 669.827C159.966 674.969 159.533 680.112 159.074 685.252L158.797 688.334C158.433 692.438 158.124 696.525 158.219 700.662C158.249 702.097 159.441 702.959 160.632 703.033C164.632 705.583 170.005 705.604 174.633 706.219C173.816 710.675 173.358 717.628 171.927 721.378C168.949 720.6 167.03 723.374 169.998 724.94C166.344 726.965 164.465 730.841 161.54 733.562C153.506 730.303 152.01 735.173 158.575 736.283C156.79 737.772 154.896 739.146 152.937 740.452L152.798 740.432C150.482 740.082 146.115 738.168 145.019 740.702C144.527 742.536 146.794 743.119 148.436 743.341C146.979 744.259 145.517 745.172 144.055 746.083C142.775 745.52 141.506 744.818 140.202 744.367C136.99 743.653 136.713 747.816 140.904 748.051C138.278 749.988 134.654 748.872 132.976 751.606C126.836 754.083 123.934 761.562 125.367 767.539C123.211 769.454 121.697 772.325 121.522 775.209C121.107 778.3 123.569 781.207 126.904 782.02C130.661 783.27 134.473 784.41 138.274 785.482L138.672 785.618C141.805 786.685 145.226 787.64 148.484 787.454C167.805 786.303 193.57 778.375 209.035 768.511C212.892 765.615 213.567 758.453 208.258 756.162C210.704 751.733 209.536 748.514 208.499 743.689C207.779 740.543 206.801 737.314 205.031 734.403C204.874 734.144 204.497 734.222 204.476 734.476C204.244 737.768 204.551 741.136 204.797 744.451L204.824 744.819C205.044 747.877 205.54 749.002 204.709 751.896C202.722 759.281 183.562 762.969 176.033 766.015C170.122 767.843 164.121 769.481 158.036 770.921L157.59 771.018C152.453 772.147 147.164 773.855 141.754 772.968C138.948 770.929 134.737 771.503 131.98 769.171C127.821 764.685 131.091 758.11 134.005 754.034C136.822 754.932 139.231 752.516 141.305 751.238L141.382 751.191C143.5 749.853 145.613 750.79 147.734 749.455L148.213 749.546C156.007 751.03 162.041 752.722 149.611 748.282C151.658 747.003 153.711 745.714 155.7 744.359C159.782 744.85 164.255 746.992 168.049 747.186C165.495 744.81 162.012 743.494 158.73 742.187C160.641 740.738 162.459 739.187 164.085 737.48L165.639 737.867C175.185 740.235 178.937 740.919 166.086 735.145C168.614 732.342 169.024 728.191 171.803 725.555C176.272 726.49 180.378 728.453 184.017 730.988C185.489 732.041 186.598 733.356 187.764 734.672C193.288 741.771 201.845 742.866 204.459 733.659C204.504 733.47 204.208 733.353 204.125 733.512L204.115 733.535C202.865 736.362 198.83 738.655 195.46 736.898L195.358 736.843C192.063 735.128 190.532 731.628 187.937 729.244C184.433 726.084 180.043 723.966 175.512 722.377C176.61 718.368 176.981 711.07 176.856 706.367C184.484 706.727 192.163 706.36 199.656 704.911C198.456 713.654 199.245 725.032 198.693 732.829C197.895 735.445 202.748 737.081 203.264 734.474C203.549 726.039 202.723 713.87 201.436 704.456L201.975 704.325C202.483 704.199 203.016 704.047 203.452 703.801C208.261 704.345 206.949 692.139 207.757 688.706C213.182 613.005 224.611 537.983 234.323 462.781C235.67 462.266 235.909 460.614 236.132 459.234C248.371 467.509 250.81 484.046 256.288 496.865C280.214 563.237 290.904 633.261 307.487 701.608L307.396 701.632C307.331 701.652 307.33 701.661 307.466 701.652L307.498 701.649V701.654C306.473 701.79 305.666 702.864 306.291 703.865C308.158 707.628 313.333 706.296 316.739 706.057C316.409 711.854 317.651 724.359 316.864 729.523C312.662 729.601 312.395 734.221 311.838 736.967L311.795 737.249C311.052 741.941 308.557 750.738 310.421 754.531C307.539 757.956 309.612 762.61 312.602 764.949C315.804 767.311 319.789 768.696 323.408 770.517C340.442 777.391 356.921 790.644 377.795 785.544L378.703 785.352C393.333 782.264 397.536 780.892 394.631 766.43C395.824 763.49 395.832 760.271 394.153 757.672C391.159 753.834 386.129 751.735 382.126 748.819C375.347 744.269 368.131 740.29 361.51 735.554C361.756 735.341 361.414 735.262 361.213 735.298C356.54 731.644 356.977 725.317 353.717 720.803C352.902 718.477 348.785 717.91 346.073 718.232C346.92 713.897 342.782 694.162 342.257 708.102L342.257 708.302C342.247 710.454 341.894 717.638 342.528 719.045C333.529 721.792 331.588 730.428 329.662 737.401L329.538 737.434C328.923 737.593 328.1 737.721 327.793 738.324C324.899 736.487 324.09 732.87 321.287 730.924C322.073 730.31 322.115 729.138 321.714 728.229C320.408 723.449 319.626 711.282 317.654 705.942C326.919 704.556 336.357 703.851 345.405 701.335C346.581 702.488 348.994 702.079 348.899 699.996C346.097 654.619 341.277 609.381 335.201 564.33C330.206 522.16 321.418 480.526 315.297 438.577L315.245 432.82C315.08 415.512 314.617 397.945 308.156 381.651C308.725 381.403 309.288 381.147 309.844 380.878C316.85 383.779 311.33 366.153 311.072 362.977C307.629 344.559 303.574 326.146 300.988 307.614C303.699 306.635 306.201 305.245 308.289 303.227C320.948 292.934 328.286 209.581 323.685 192.821C321.284 182.278 311.107 177.099 301.408 174.716L299.976 174.312C289.143 171.268 278.123 168.51 266.845 167.832C266.443 167.468 265.262 167.573 265.107 167.876C264.401 168.301 263.73 169.131 263.163 170.008C247.509 168.211 248.44 152.455 242 151ZM207.853 756.829C210.044 761.801 207.132 765.582 202.25 767.673C185.342 775.503 166.466 781.795 147.088 782.997C141.175 781.569 135.319 779.208 129.327 777.748L129.069 777.701C126.96 777.315 125.969 776.927 126.15 774.738L126.073 773.854C125.938 772.281 125.824 770.712 125.933 769.141C127.777 773.543 133.294 775.963 138.131 776.852C145.799 780.488 154.388 776.791 161.922 775.234C174.16 771.517 200.636 765.677 207.853 756.829ZM314.072 756.933L314.325 757.01C316.52 757.688 318.751 758.519 321.211 757.908C332.2 761.629 342.896 765.849 353.512 770.243C364.966 775.72 383.409 782.088 393.335 768.851C391.908 775.794 393.925 778.169 384.448 779.901C369.411 784.799 357.329 782.291 344.852 775.599C335.71 771.159 325.877 767.629 317.029 762.804L316.909 762.72C315.169 761.479 313.069 759.215 314.072 756.933ZM336.896 727.043C339.765 721.756 347.486 718.852 353.228 720.801C353.812 725.9 352.299 731.609 355.54 736.036C352.67 736.539 349.809 737.118 346.952 737.717L344.338 738.269C343.055 738.55 341.422 739.031 341.637 740.39C341.874 741.892 343.848 741.433 345.162 741.055L345.671 740.906C349.36 739.821 353.044 738.715 356.686 737.475C358.607 739.586 361.184 741.241 363.684 742.84L362.647 742.958C359.015 743.365 355.347 743.735 351.758 744.47C350.19 744.934 350.528 747.07 352.133 746.899C356.418 745.782 360.691 744.52 365.049 743.719C367.18 745.126 369.3 746.54 371.436 747.94C367.236 748.547 363.017 748.602 358.819 748.96C356.101 749.21 356.102 752.921 358.819 752.707C363.723 752.258 368.624 750.808 373.293 749.162L375.754 750.778C378.626 752.663 381.505 754.543 384.412 756.383C386.161 757.496 388.42 758.555 389.643 760.167C393.503 766.394 383.857 772.345 377.339 772.247C367.44 772.352 359.195 767.218 350.523 764.144C345.726 762.958 321.338 750.763 319.119 753.973C317.724 753.303 315.783 753.062 314.778 751.959C314.575 746.859 315.651 741.517 316.553 736.374C316.737 735.476 317.177 734.399 317.226 733.478C321.288 734.974 322.445 740.638 327.793 740.156C328.629 741.491 331.207 740.869 332.37 739.809C333.635 738.655 333.794 737.03 334.096 735.583L334.236 734.918C334.804 732.252 335.485 729.521 336.896 727.043ZM216.515 294.547L217.169 294.712C223.823 296.375 230.784 297.578 237.622 297.132C238.804 301.599 238.188 312.225 242.996 313.923C244.639 314.541 247.111 314.04 247.864 312.364C257.809 312.188 267.824 311.3 277.77 310.709C285.257 310.121 293.025 310.144 300.233 307.874C299.359 312.266 299.059 316.579 299.547 321.071C301.229 340.229 306.763 358.895 308.618 377.971L308.704 378.88L308.758 378.849C308.758 378.885 308.76 378.921 308.763 378.956C308.222 379.112 307.682 379.276 307.144 379.442C306.952 379.345 306.69 379.44 306.552 379.624C266.943 391.93 224.899 397.275 183.616 391.859C176.386 390.958 169.209 389.695 162.082 388.198C162.144 387.561 161.171 387.394 161.001 387.996C159.419 387.72 157.838 387.418 156.264 387.215C156.454 386.68 156.487 386.102 156.292 385.58C153.225 376.385 154.626 365.901 155.594 356.365C156.828 341.724 159.904 327.362 162.389 312.919C174.152 312.385 185.845 310.467 197.666 310.707C198.911 313.931 203.252 316.638 206.65 314.795C209.049 313.501 209.76 310.679 210.723 308.347C212.627 303.736 214.571 299.141 216.515 294.547ZM266.359 168.269C278.712 171.914 291.368 174.517 303.608 178.563C313.781 181.095 320.725 187.47 321.154 198.342C321.994 221.633 319.437 245.042 315.579 267.994L315.377 269.03C313.236 280.092 311.317 291.347 307.274 301.891C301.372 304.631 294.671 305.412 288.213 305.729C278.791 306.208 269.368 306.7 259.953 307.316L252.572 307.794C250.43 307.933 247.452 307.567 245.843 309.23C245.7 309.465 245.41 309.435 245.189 309.581L245.146 309.612C244.911 309.772 244.674 310.159 244.336 310.084C243.785 309.913 243.574 308.817 243.445 308.293L243.433 308.245C242.716 305.444 242.196 302.581 241.534 299.764C240.025 294.221 239.375 288.362 237.081 283.057C240.365 280.964 243.457 278.571 246.109 275.731L249.307 274.606C256.958 271.925 264.695 269.327 272.669 267.72C272.86 269.468 275.371 270.468 276.308 268.638C277.861 263.977 278.149 258.917 279.22 254.113C281.65 239.78 284.538 225.499 286.219 211.052C281.584 223.847 279.183 239.552 275.641 253.381C275.476 253.286 275.249 253.341 275.242 253.568C262.7 248.83 248.776 249.023 236.399 254.051C233.299 255.293 230.15 256.408 227.066 257.689C226.012 258.283 223.914 258.247 223.561 259.546C223.182 258.664 222.673 257.838 221.996 257.281C221.785 256.847 219.388 256.072 219.154 256.931C205.093 258.859 191.421 264.969 176.953 263.937C178.665 257.694 178.462 250.952 178.577 244.504L178.542 243.778C178.245 237.427 178.029 229.565 175.874 224.338C177.253 237.497 176.251 250.678 174.568 263.715C164.363 262.399 169.062 268.228 175.859 268.009C189.576 268.996 202.234 262.937 214.858 258.521C221.753 255.768 222.534 258.1 222.227 264.643C222.22 273.163 218.358 280.939 214.859 288.498L213.287 292.028C210.674 297.903 208.097 303.74 205.559 309.685C194.468 306.012 181.982 308.027 170.492 308.697C161.726 309.797 155.431 309.406 148.014 304.341C145.339 299.236 141.814 294.394 140.436 288.636C138.837 283.358 138.305 277.83 137.838 272.36L138.259 270.83C143.664 251.194 149.646 231.654 157.82 212.951L158.262 211.921C161.033 205.444 163.848 198.647 169.454 194.11C178.864 187.17 190.5 184.092 200.391 177.918L200.455 178.37C201.458 185.453 203.192 192.795 207.731 198.494C216.117 208.78 231.951 209.069 242.683 202.389C253.848 196.223 260.546 184.743 263.804 172.744L263.843 172.612C264.148 171.542 264.997 168.304 266.359 168.269ZM236.04 283.706C236.047 287.478 236.792 291.195 237.296 294.919C231.492 293.775 225.705 292.977 219.997 291.43C225.557 289.332 230.961 286.804 236.04 283.706ZM250.016 253.283C258.479 251.629 267.144 252.618 275.513 253.951C274.603 258.174 273.565 262.358 272.696 266.586C269.699 266.449 241.27 271.478 244.479 275.514C240.282 277.756 236.307 280.391 232.129 282.681C227.928 284.984 223.554 286.964 219.041 288.572L219.279 288.042C223.163 279.376 226.792 269.624 223.799 260.153C227.823 261.766 233.316 258.301 237.214 257.004C241.353 255.346 245.615 254.037 250.016 253.283ZM310.946 219.727C310.917 218.146 306.028 222.679 305.39 223.15L305.005 223.499C300.313 227.751 295.679 232.429 293.065 238.265C292.874 243.999 301.43 230.107 302.617 229.258C305.205 225.931 308.358 223.041 310.946 219.727ZM175.66 233.226C176.983 233.661 173.373 229.18 171.965 229.507C171.405 229.425 170.918 230.236 171.539 230.515L171.848 230.651C173.293 231.277 174.77 231.811 175.66 233.226Z" fill="black"/>
<path fill-rule="evenodd" clip-rule="evenodd" d="M182.153 84.0653C181.854 81.087 185.104 73.1416 185.025 74.7532C190.234 66.1349 200.4 62.7457 209.172 59.9007C227.792 53.3052 242.332 61.2705 255.414 75.3877C263.138 83.1289 270.487 91.776 274.364 102.492C281.992 122.935 270.559 146.245 253.172 156.011C251.769 156.826 250.24 157.6 248.904 158.584C241.716 163.039 233.276 164.581 225.267 166.52C210.284 170.195 191.466 168.444 182.636 153.137C176.646 142.274 178.237 129.105 178.706 117.05C179.41 106.487 180.647 94.5506 182.153 84.0653Z" fill="white"/>
<path fill-rule="evenodd" clip-rule="evenodd" d="M262.243 53.9195C252.535 44.1825 238.188 39.4632 225.069 40.2886C217.964 40.7357 211.117 42.6459 204.696 45.9277C202.688 46.954 200.731 48.1553 198.927 49.5699C197.709 50.1794 196.519 50.8389 195.366 51.556C189.593 55.1447 185.13 60.5803 182.273 67.0281C180.91 70.1056 179.834 73.3508 179.224 76.6945L179.126 77.2449C178.815 78.9228 178.201 81.1335 178.978 82.7037C179.494 83.7447 180.574 84.4009 181.596 84.3127C181.374 85.2775 181.108 86.242 180.938 87.213L180.475 89.8604C180.399 90.3016 180.322 90.7428 180.248 91.184C179.801 93.8138 179.389 96.4402 179.061 99.0905C178.372 104.609 177.75 110.139 177.202 115.678C176.809 119.639 176.441 123.605 176.083 127.569L175.869 129.947C175.502 134.042 175.214 138.172 175.464 142.284C175.84 148.453 177.608 154.081 181.04 158.659C180.713 159.503 180.603 160.453 180.357 161.502C180.016 162.954 179.572 164.376 179.1 165.785C178.879 166.339 178.657 166.893 178.438 167.449L177.862 168.92V168.92L177.413 169.884C176.926 170.933 176.455 171.998 176.156 173.084C174.216 174.195 172.633 176.007 172.555 178.491C172.487 180.735 173.572 183.112 175.406 184.256C177.216 185.386 179.079 184.941 180.812 184.078C182.323 184.55 183.94 184.61 185.436 184.106C186.588 185.225 188.075 185.998 189.722 186.206C192.205 186.523 194.563 185.777 196.842 184.796L197 184.727C197.072 184.697 197.143 184.665 197.211 184.633C199.832 184.498 202.442 183.385 204.301 181.415C204.907 180.777 205.43 180.047 205.852 179.229C207.385 176.255 207.623 172.605 206.116 169.655C206.439 169.669 206.765 169.684 207.089 169.693C211.402 169.825 215.723 169.589 220.026 169.284L221.04 169.211C223.824 168.995 227.931 168.489 228.009 164.787C228.02 164.313 227.565 163.957 227.148 164.083C225.566 164.563 224.012 165.316 222.372 165.587C220.228 165.943 218.008 165.981 215.842 166.11L215.219 166.147C210.852 166.404 206.328 166.56 202.031 165.631C198.824 164.939 195.482 163.68 192.543 162.121C189.722 160.621 187.159 158.659 185.092 156.097C180.538 150.461 179.935 142.51 180.157 135.38C180.426 126.864 181.358 118.361 181.884 109.857L182.122 106.036C182.319 102.851 182.498 99.6602 182.572 96.4729C182.627 94.1461 182.592 91.8135 182.581 89.4868C182.575 88.3249 182.589 87.1571 182.564 85.9952C182.55 85.3422 182.479 84.7039 182.427 84.0653C182.668 83.9303 182.893 83.7417 183.096 83.492C183.255 83.2949 183.378 83.0861 183.463 82.8743C184.486 82.5534 184.96 82.1268 185.623 81.1594C186.183 80.3446 186.816 79.5916 187.493 78.8856C188.935 77.3854 190.583 76.1588 192.324 75.0907C195.923 72.882 199.865 71.4053 203.84 70.1934C209.926 68.3403 216.248 67.3872 222.424 65.8985C224.127 68.4459 225.931 70.917 227.817 73.3085C233.703 80.7682 240.452 87.4186 247.684 93.349C249.156 94.558 250.648 95.7493 252.161 96.905C254.154 100.166 256.168 103.412 258.213 106.635L259.091 108.015L259.105 108.042C259.225 108.239 259.341 108.436 259.456 108.633C259.7 109.051 259.974 109.454 260.264 109.845C260.453 110.142 260.645 110.439 260.84 110.736C260.467 110.951 260.127 111.192 259.861 111.46C259.318 112.01 259.409 112.884 259.861 113.442C261.32 115.249 263.628 112.895 265.306 112.269C267.123 112.863 268.639 115.184 269.393 116.957C270.479 119.514 270.915 122.596 270.424 125.364C269.975 127.894 268.763 130.08 266.748 131.45C266.676 131.497 266.6 131.547 266.526 131.591C266.523 131.597 266.523 131.597 266.52 131.594C266.452 131.641 266.38 131.686 266.309 131.727C265.363 132.286 264.324 132.615 263.247 132.694C262.63 132.742 261.986 132.706 261.369 132.786C260.736 132.865 260.215 133.177 259.606 133.342C258.935 133.527 258.502 134.495 258.924 135.145C259.132 135.465 259.329 135.771 259.541 136.045C258.847 136.922 258.244 137.889 257.698 138.81C256.953 140.072 256.292 141.41 255.689 142.775C255.132 143.561 254.6 144.361 254.085 145.178C251.165 149.82 248.931 154.991 247.558 160.395C246.198 165.739 245.348 171.743 246.606 177.2C247.766 182.218 251.152 186.374 256.163 186.642C257.209 186.697 258.238 186.572 259.205 186.287C261.329 187.695 263.962 188.403 266.318 188.486C268.225 188.553 270.312 188.122 271.868 186.885C273.715 187.748 275.719 188.237 277.461 188.349C279.41 188.474 281.451 187.904 283.04 186.775C284.552 188.164 286.184 189.338 288.038 190.142C291.226 191.525 295.02 191.354 297.94 189.286C300.865 187.216 302.353 183.497 301.46 179.809C300.637 176.408 298.052 173.914 295.623 171.766L295.143 171.344C292.741 169.24 290.314 167.204 288.772 164.239C287.136 161.095 286.538 157.442 286.376 153.882C286.025 146.046 287.511 138.281 287.964 130.486C288.43 122.435 288.169 114.36 287.147 106.368C285.159 90.8428 279.928 75.6235 270.465 63.5218C269.096 61.7707 267.63 60.1017 266.086 58.5198C264.905 56.8631 263.63 55.3103 262.243 53.9195ZM136.363 142.563C136.311 142.566 136.261 142.569 136.215 142.59C136.184 142.604 136.157 142.626 136.133 142.651L135.902 142.899C135.82 142.987 135.826 143.122 135.902 143.21C135.97 143.291 136.091 143.293 136.17 143.231L136.193 143.21L136.432 142.954C136.458 142.924 136.48 142.891 136.492 142.849C136.503 142.807 136.503 142.76 136.505 142.716C136.508 142.637 136.437 142.563 136.363 142.563ZM264.985 118.531C262.787 117.816 260.149 119.517 258.839 121.311C258.181 122.211 257.995 123.444 258.839 124.329C259.557 125.082 260.961 125.22 261.654 124.329C262.441 123.314 263.083 121.908 264.207 121.258C265.427 120.552 267.06 120.729 267.348 122.449C267.398 122.741 267.787 122.643 267.803 122.382C267.91 120.64 266.488 119.016 264.985 118.531Z" fill="black"/>
<path fill-rule="evenodd" clip-rule="evenodd" d="M206.43 148.128C208.273 147.321 209.917 145.976 211.119 144.257C211.537 143.659 211.646 143.028 211.558 142.451C211.459 141.802 211.102 141.214 210.614 140.82C210.124 140.424 209.512 140.229 208.92 140.328C208.405 140.415 207.893 140.717 207.488 141.344L207.404 141.469C206.689 142.506 205.758 143.358 204.696 143.906C203.674 144.435 202.53 144.682 201.346 144.538C199.091 144.265 197.538 142.957 195.886 141.18C195.681 140.956 195.476 140.725 195.27 140.49C195.14 140.276 194.96 140.14 194.76 140.068C194.537 139.988 194.286 139.992 194.055 140.079C193.833 140.162 193.634 140.32 193.501 140.529C193.375 140.729 193.303 140.975 193.326 141.259C193.477 143.1 194.374 144.743 195.649 146.033C197.064 147.466 198.94 148.458 200.706 148.805C202.652 149.188 204.635 148.914 206.43 148.128V148.128ZM199.788 119.725C197.718 121.075 194.563 124.224 196.79 127.571C199.412 130.522 203.186 127.138 205.046 125.608C206.77 124.422 208.708 127.472 207.108 128.857C193.668 139.533 188.214 120.078 198.741 118.138C199.9 117.924 200.33 119.307 199.788 119.725ZM223.872 107.306C223.643 104.259 219.319 103.568 218.889 106.582C218.504 109.282 218.957 111.763 220.091 114.194C221.174 116.517 223.896 115.433 224.102 113.318C224.378 110.483 224.014 109.201 223.872 107.306ZM190.957 105.957C190.354 105.11 189.483 104.532 188.441 104.858C185.182 105.88 186.143 110.843 187.287 113.259C187.909 114.571 189.918 114.904 190.827 113.749C192.307 111.865 193.016 108.103 191.134 106.247C191.083 106.152 191.026 106.055 190.957 105.957ZM220.137 93.976L219.622 93.8793C218.03 93.5839 216.05 93.3 214.924 94.6734C214.326 95.4017 214.121 96.7554 214.924 97.4526C216.336 98.6792 217.898 98.2038 219.59 98.3077C220.985 98.3935 222.326 98.6412 223.669 99.0533C226.617 99.9573 229.019 101.607 231.536 103.419C231.866 103.657 232.204 103.204 232.046 102.872C230.593 99.8181 227.776 97.3093 224.955 95.78C223.45 94.9638 221.802 94.2866 220.137 93.976ZM193.927 92.6079L193.533 92.6944C189.246 93.6559 183.677 95.5765 181.647 100.094C181.569 100.733 181.651 100.87 181.717 100.96L181.739 100.989C181.794 101.066 181.838 101.171 182.096 101.258C182.168 101.24 182.24 101.22 182.313 101.2C183.244 100.938 183.98 100.578 184.693 100.204L185.465 99.7952C186.362 99.3235 187.266 98.869 188.225 98.5334C190.271 97.8175 192.375 97.3131 194.512 97.0438C194.975 96.9855 195.421 96.8178 195.773 96.5303C196.107 96.2575 196.362 95.8798 196.478 95.3777C196.629 94.7279 196.585 94.2359 196.261 93.6497C196.016 93.2095 195.667 92.9043 195.265 92.7291C194.856 92.5505 194.39 92.5084 193.927 92.6079Z" fill="black"/>
<path fill-rule="evenodd" clip-rule="evenodd" d="M199.036 162.582C199.036 162.582 211.205 164.5 216.652 161.789C222.083 159.086 227.366 156.47 232.292 152.889C237.339 149.221 241.621 144.865 244.678 139.288C247.521 134.1 249.884 128.595 252.263 123.132C252.402 122.812 253.768 119.639 254.251 118.574C254.994 116.924 257.165 117.442 257.165 120.004C257.165 122.565 257.272 141.965 253.099 149.596C249.335 156.489 242.956 161.305 236.618 165.508C229.605 170.156 220.29 175.18 211.923 176.508C204.351 177.708 195.71 174.337 190.228 168.78C184.495 162.969 182.872 155.074 179.914 147.514C179.254 145.824 181.596 144.805 182.283 146.467C183.577 149.596 199.036 162.582 199.036 162.582Z" fill="black"/>
<path fill-rule="evenodd" clip-rule="evenodd" d="M179.623 125.336C184.128 127.713 190.413 124.207 193.442 120.534C194.544 119.197 195.395 115.372 194.971 112.945C193.822 106.375 189.506 102.431 184.949 101.084C178.632 99.217 172.275 103.947 173.016 109.529C173.719 114.82 174.784 122.493 179.623 125.336M210.285 112.714C210.647 119.875 215.896 126.142 222.169 127.999C232.277 131.089 237.272 123.305 239.535 114.919C239.76 114.086 240.289 111.542 238.87 109.361C233.292 100.779 219.721 102.242 212.942 104.598C210.958 106.676 210.147 109.677 210.285 112.714M174.728 100.363C174.731 100.367 174.735 100.371 174.738 100.375C174.761 100.36 174.784 100.344 174.807 100.329C174.781 100.341 174.754 100.351 174.728 100.363M166.271 101.191C166.858 93.9 187.739 96.6917 190.18 97.2892C196.843 99.436 202.597 105.276 210.046 102.709C217.765 93.2831 243.756 95.9863 249.205 100.788C250.236 100.345 251.49 100.582 252.819 101.001C259.643 100.731 290.796 103.308 284.424 112.85C283.457 113.585 282.49 112.837 282.464 111.323C249.246 98.186 252.466 110.491 248.527 109.054C247.925 109.243 247.297 109.363 246.748 109.49C243.699 110.564 242.664 110.232 242.262 113.982C239.503 142.938 204.307 132.944 207.193 109.193C204.335 109.021 201.835 107.667 198.813 108.989C196.714 131.363 180.279 132.266 175.334 124.51C171.604 119.127 173.083 111.003 167.956 106.768C165.933 108.623 165.802 102.361 166.271 101.191" fill="black"/>
</svg>
