<svg width="434" height="635" viewBox="0 0 434 635" fill="none" xmlns="http://www.w3.org/2000/svg">
<path fill-rule="evenodd" clip-rule="evenodd" d="M183.26 371.865C182.686 377.847 183.86 383.559 186.657 388.388L187.567 389.96L185.835 390.564C182.683 391.665 179.178 392.2 175.119 392.2C170.941 392.2 166.597 391.619 163.107 391.152L160.872 390.854L161.97 388.916C162.853 387.358 163.016 385.471 163.189 383.472C163.236 382.935 163.284 382.38 163.347 381.831C166.654 352.317 170.835 322.417 174.878 293.502C175.942 285.894 177.042 278.026 178.109 270.286L181.171 270.404C181.994 284.73 182.793 299.297 183.566 313.385C183.906 319.58 184.246 325.775 184.589 331.969C185.81 347.629 185.388 360.31 183.26 371.865M182.012 548.851C186.508 548.851 191.012 548.384 195.4 547.462C209.13 544.584 221.604 537.795 232.218 531.658C232.76 531.351 233.31 531.045 233.874 530.729C238.03 528.408 243.201 525.52 246.442 521.997C249.998 518.132 250.609 514.28 248.368 509.876L248.013 509.179L248.383 508.491C250.705 504.177 250.532 498.84 247.964 495.512L245.805 492.716L249.354 493.092C252.933 493.471 256.539 493.985 260.027 494.481C263.897 495.033 267.9 495.602 271.841 495.984L272.937 496.09L273.189 497.144C273.329 497.73 273.502 498.087 274.718 498.087C275.773 498.087 277.19 497.778 278.689 497.452C280.55 497.048 282.66 496.589 284.695 496.589C285.59 496.589 286.394 496.674 287.156 496.849L287.599 496.951L287.914 497.273C288.115 497.479 288.459 497.607 288.809 497.607C289.074 497.607 289.32 497.534 289.485 497.405L289.982 497.017L290.612 497.086C301.601 498.291 311.076 500.405 319.578 503.548L319.617 503.563L319.801 503.642C322.876 504.967 326.054 506.337 328.949 506.337C331.065 506.337 332.784 505.618 334.357 504.075L334.802 503.639L335.43 503.633C341.795 503.575 344.703 496.164 345.106 491.197L345.156 490.572L345.641 490.165C356.735 480.871 363.284 468.106 365.663 451.141C367.83 435.687 366.166 419.394 364.253 405.494C359.826 369.472 355.209 337.179 343.473 306.552L342.925 305.12L344.386 304.596C349.455 302.777 353.329 300.608 356.229 297.963L356.43 297.779L356.683 297.676C360.84 295.971 362.876 289.676 363.401 287.788L363.443 287.636L363.516 287.495C364.365 285.871 364.56 283.611 364.053 281.296L363.999 281.046L364.03 280.793C364.304 278.594 363.395 276.295 362.432 273.862C361.992 272.75 361.538 271.601 361.206 270.456C360.064 267.185 358.923 263.857 357.82 260.637C355.345 253.413 352.785 245.943 350.058 238.677L349.686 237.683L350.507 236.998C351.909 235.829 351.441 234.452 349.419 231.161C348.941 230.383 348.489 229.647 348.145 228.923C345.553 224.45 342.775 220.157 339.886 216.161L339.827 216.079L339.779 215.991C324.958 188.354 298.667 173.134 265.75 173.134L265.079 173.135L264.708 172.912C258.539 169.208 254.135 162.853 251.244 153.483L251.152 153.185L251.188 152.874C251.287 152.011 251.395 150.879 251.358 149.78C251.264 146.998 250.171 144.515 248.361 142.968C244.927 140.033 239.713 139.787 234.666 139.787L233.942 139.788C227.49 139.807 222.935 140.925 219.607 143.308C215.74 146.077 213.603 150.547 213.074 156.973C212.916 158.896 212.921 160.888 212.926 162.814L212.927 163.352L212.862 163.565C212.399 165.093 211.855 166.56 211.248 167.927L210.623 169.334L209.202 168.7C208.283 168.29 207.118 168.079 205.64 168.055C205.214 168.046 204.798 168.041 204.379 168.041C200.946 168.041 197.274 168.354 193.723 168.656C191.048 168.884 188.281 169.12 185.603 169.225L185.566 169.226C185.566 169.226 185.196 169.224 185.03 169.224C178.521 169.224 173.802 170.246 170.18 172.441C166.281 174.803 163.476 178.595 161.356 184.374C149.983 217.499 145.308 253.178 141.183 284.657C138.844 301.118 138.133 317.994 137.444 334.314C136.718 351.54 135.967 369.352 133.307 386.764L133.097 388.141L131.685 388.05C125.47 387.649 118.754 386.787 111.644 385.874C100.841 384.486 89.6706 383.052 78.8718 383.052C63.7728 383.052 52.3245 386.018 43.8784 392.119C37.9901 397.658 34.9439 405.159 35.0691 413.815C35.2461 426.045 41.7255 439.567 51.5762 448.262L51.6133 448.296C64.0647 460.04 86.793 470.226 119.167 478.571C148.936 486.245 179.729 490.415 195.435 492.218L199.323 492.664L196.167 494.942C194.89 495.864 193.725 496.675 192.605 497.423L191.883 497.906L191.091 497.543C188.834 496.51 187.401 496.293 186.595 496.293C185.88 496.293 185.018 496.448 184.971 497.187C184.94 497.67 185.284 498.388 186.012 498.479L189.875 498.96L186.721 501.207C184.614 502.707 181.47 504.515 177.829 506.61C165.918 513.461 147.918 523.816 151.014 532.909L151.217 533.506L150.929 534.069C150.098 535.697 150.027 537.208 150.713 538.689C152.183 541.862 156.78 544.271 160.684 545.25L160.751 545.267L160.817 545.29C167.61 547.653 174.742 548.851 182.012 548.851" fill="white"/>
<mask id="mask0" mask-type="alpha" maskUnits="userSpaceOnUse" x="33" y="145" width="336" height="406">
<path fill-rule="evenodd" clip-rule="evenodd" d="M368.481 145.678H33.7897V550.259H368.481V145.678Z" fill="white"/>
</mask>
<g mask="url(#mask0)">
<path fill-rule="evenodd" clip-rule="evenodd" d="M159.455 390.469C158.657 386.126 160.17 381.641 160.432 377.267C164.392 346.07 168.765 314.894 174.559 283.97C175.98 276.57 177.416 269.2 179.062 261.839C178.813 257.382 178.595 252.925 178.452 248.466C170.411 243.419 161.345 240.152 151.968 238.505C149.434 252.6 146.902 266.685 145.145 280.906C139.669 316.105 142.793 351.923 137.482 387.082C144.851 387.906 152.163 389.127 159.455 390.469M145.311 417.891C150.852 419.362 156.399 420.77 161.984 422.068C171.924 424.378 181.861 426.698 191.775 429.111C196.724 430.316 201.683 431.485 206.622 432.728C208.965 433.319 211.293 433.975 213.587 434.735C214.731 435.114 215.849 435.549 216.968 435.996C217.947 436.387 218.872 436.927 219.949 436.85C220.013 436.845 220.053 436.783 220.022 436.726C219.458 435.691 218.297 435.201 217.272 434.678C216.142 434.101 214.964 433.607 213.785 433.134C211.167 432.085 208.44 431.314 205.72 430.567C195.834 427.85 185.863 425.417 175.903 422.982C165.895 420.536 155.886 418.193 145.746 416.341C144.724 416.154 144.282 417.618 145.311 417.891M194.397 501.528C193.954 501.409 193.508 501.301 193.064 501.198C185.954 507.107 152.471 522.453 155.017 531.62C155.918 532.76 158.072 533.019 159.434 533.388C161.807 534.028 164.202 534.583 166.621 535.022C174.438 536.442 182.535 536.69 190.343 535.07C193.215 534.634 195.808 533.41 198.424 532.227C206.878 528.515 216.188 524.413 224.601 520.731C235.288 516.501 254.034 508.164 246.324 494.097C239.02 502.3 229.748 501.583 225.078 491.388C223.467 488.293 222.062 484.121 218.278 482.87C216.283 481.523 213.731 481.243 212.064 482.744C211.943 482.557 211.835 482.295 211.777 482.063C209.897 484.734 208.276 487.547 206.073 489.988C206.829 490.029 214.703 495.847 212.379 495.85C209.584 494.412 206.806 493.214 203.787 492.44C201.599 494.637 199.194 496.68 196.701 498.569C199.122 500.166 201.297 502.12 203.046 504.242C203.197 504.429 203.013 504.671 202.787 504.57C200.071 503.361 197.278 502.3 194.397 501.528M158.356 541.164C185.551 553.36 214.34 539.779 237.531 525.301C242.884 522.317 249.924 518.087 248.842 511.062C244.9 516.821 238.401 520.1 232.163 522.943C221.683 527.672 211.134 532.25 200.629 536.922C199.636 540.208 194.892 540.334 192.024 541.063C179.259 543.535 165.537 542.307 153.524 537.378C154.219 539.434 156.494 540.377 158.356 541.164M266.859 493.676C267.53 493.762 268.202 493.84 268.874 493.915C268.805 493.028 269.341 492.14 270.203 491.865C269.815 489.983 269.672 488.038 269.88 486.129C268.756 489.027 265.13 488.147 262.826 487.312C259.536 486.419 256.266 485.458 253.013 484.434C251.731 486.813 250.372 489.156 248.702 491.31C254.781 491.85 260.803 492.922 266.859 493.676M269.533 484.56C269.695 484.901 269.925 485.261 269.931 485.67C270.095 484.26 270.415 482.868 270.903 481.533C270.446 482.542 269.99 483.551 269.533 484.56M273.37 477.001C276.36 473.109 281.887 469.928 286.996 471.012C287.325 471.083 287.333 471.61 286.996 471.676C280.133 472.607 274.106 478.042 273.867 485.07C273.326 488.25 275.542 491.373 274.796 494.425C274.944 494.435 275.093 494.443 275.239 494.453C275.293 494.657 275.342 494.838 275.406 494.998C274.665 495.121 274.447 496.312 275.322 496.524C275.839 496.65 276.381 496.715 276.932 496.743C279.73 495.989 282.682 495.815 285.358 494.7C288.004 493.532 287.343 490.25 288.276 487.978C288.961 485.357 289.749 482.746 290.741 480.232C290.813 480.03 291.087 480.075 291.11 480.28C291.81 485.297 291.787 490.399 291.618 495.456C292.536 495.55 293.449 495.653 294.365 495.767C294.306 494.354 298.551 477.144 300.787 481.561C299.661 486.416 299.525 491.489 299.405 496.486C306.045 497.578 312.588 499.205 318.954 501.419C323.44 502.776 328.775 506.792 333.129 503.162C336.502 500.378 337.638 495.519 337.32 491.386C332.935 466.926 298.294 464.068 277.845 465.877C275.914 470.326 273.947 474.761 271.954 479.185C272.367 478.423 272.839 477.692 273.37 477.001M343.114 490.909C343.488 485.355 342.552 478.441 338.43 474.302C328.997 466.339 315.788 463.834 304 460.951C298.509 459.869 292.944 459.15 287.355 458.792C285.372 458.635 282.854 459.084 281.453 457.465C280.732 459.17 280.002 460.873 279.271 462.575C302.738 459.506 351.701 470.17 337.989 502.267C340.893 499.127 342.816 495.303 343.114 490.909M359.499 388.098C358.842 383.331 358.124 378.569 357.365 373.814C354.262 351.072 347.847 328.939 344.023 306.351C337.403 308.5 330.624 310.137 323.94 312.072C338.424 336.12 350.271 361.656 359.499 388.098M305.114 365.721C306.387 359.677 307.815 353.518 308.464 347.374C308.494 347.098 308.068 347.069 307.992 347.312C306.929 350.714 306.204 354.241 305.307 357.69C304.406 361.152 303.569 364.629 302.682 368.094C302.399 369.2 302.115 370.306 301.831 371.412C301.661 371.419 301.491 371.425 301.322 371.429C300.673 371.444 300.478 372.258 301 372.597C301.153 372.696 301.306 372.783 301.459 372.86C298.744 383.404 295.962 393.924 292.926 404.387C289.388 416.58 285.405 428.626 282.221 440.918C282.148 441.202 282.28 441.401 282.473 441.487C280.817 447.08 279.429 452.746 277.915 458.382C277.6 459.555 279.336 460.316 279.93 459.217C280.843 457.525 281.045 455.212 281.493 453.353C281.996 451.258 282.475 449.159 282.953 447.059C283.714 443.718 284.396 440.336 284.959 436.949C287.055 431.691 288.931 426.371 290.592 420.95C294.312 408.809 297.743 396.586 300.798 384.267C301.699 380.63 302.583 376.989 303.426 373.338C307.266 373.397 311.278 369.061 315.136 371.369C315.315 371.476 315.495 371.233 315.355 371.091C313.817 369.535 311.691 369.399 309.625 369.784C308.283 370.034 306.996 370.509 305.682 370.867C305.104 371.024 304.509 371.14 303.909 371.226C304.323 369.394 304.727 367.559 305.114 365.721M222.394 480.154C224.356 481.435 225.956 483.329 227.085 485.365C234.318 504.257 242.053 494.138 251.663 484C243.53 480.936 232.758 478.64 226.52 472.549C225.441 475.243 224.12 477.808 222.394 480.154M224.982 434.07C225.61 430.962 226.128 427.835 226.599 424.7C227.051 421.694 227.757 418.473 227.641 415.43C227.637 415.308 227.466 415.287 227.429 415.402C226.451 418.435 226.158 421.79 225.538 424.915C224.938 427.935 224.279 430.944 223.615 433.952C222.252 440.126 220.324 446.205 219.157 452.416C219.031 453.081 219.932 453.315 220.177 452.693C222.513 446.753 223.724 440.298 224.982 434.07M357.265 294.017C360.425 290.619 362.908 286.281 362.428 281.678C360.53 279.15 359.901 275.853 358.796 272.933C354.474 260.709 350.463 248.392 345.759 236.301C335.754 239.373 325.91 243.058 316.626 247.898C314.918 248.768 313.227 249.671 311.557 250.607C309.808 251.586 307.9 253.286 305.802 252.799C308.095 256.04 312.817 259.413 313.615 263.158C313.786 264.344 312.945 265.444 311.652 265.179C291.419 279.529 270.523 293.575 251.398 309.559C237.076 320.88 226.081 330.061 221.169 348.429C217.858 360.327 217.848 372.762 218.335 384.995C218.429 387.374 218.432 389.808 218.624 392.202C218.337 393.993 218.883 397.637 220.899 397.703C220.853 398.137 220.71 398.538 220.481 398.891C220.545 398.977 220.612 399.058 220.681 399.141C220.781 398.651 220.879 398.165 220.971 397.675C222.541 390.734 222.751 382.68 222.49 375.289C222.38 373.171 225.634 373.221 225.816 375.289C226.306 380.876 226.796 386.463 227.286 392.048C227.873 395.667 226.947 400.402 229.845 403.154C232.792 400.435 231.818 395.072 231.674 391.564C231.444 385.84 231.195 380.12 230.982 374.397C230.915 372.583 233.924 372.116 234.265 373.96C235.232 379.217 236.278 384.458 237.404 389.684C238.084 391.705 238.551 400.77 241.946 399.196C243.97 397.817 242.51 389.727 242.777 387.049C242.651 381.747 242.577 376.452 242.187 371.163C242.028 369.029 245.509 368.575 245.986 370.658C246.76 374.031 247.502 377.403 248.174 380.798C249.648 386.521 249.112 394.28 254.437 398.084C256.522 383.217 253.521 368.454 253.1 353.64C253.352 348.84 254.178 344.088 254.906 339.346C255.711 334.102 256.181 328.394 254.296 323.337C254.811 321.072 256.837 327.198 257.027 327.708C258.553 324.706 262.27 324.474 265.209 323.538C271.741 321.427 278.433 319.836 285.043 317.959C302.571 313.098 320.119 308.314 337.672 303.539C344.684 301.602 352.066 299.309 357.265 294.017M181.743 373.095C184.161 360.006 184.095 346.744 183.061 333.512C181.925 312.99 180.822 292.463 179.642 271.944C174.52 309.083 169.06 346.179 164.884 383.437C164.587 386.03 164.633 388.774 163.322 391.087C170.565 392.056 178.286 393.032 185.328 390.572C182.238 385.238 181.148 379.164 181.743 373.095M338.95 221.335C326.741 196.311 301.847 178.546 273.929 174.672C273.899 174.702 273.865 174.733 273.834 174.765C273.927 174.849 274.011 174.939 274.088 175.033C273.337 174.48 272.306 175.174 272.639 175.938C272.226 176.879 271.921 177.848 271.539 178.796C271.377 178.781 271.213 178.766 271.049 178.741C269.392 182.025 268.495 185.811 266.764 189.085C257.289 205.475 233.908 212.129 216.37 205.513C202.453 199.492 200.478 182.348 201.725 169.168C201.789 168.28 202.24 167.652 202.843 167.282C195.254 168.495 187.665 169.718 180.068 170.871C176.408 171.426 172.648 172.228 169.822 174.738C158.698 186.166 156.713 216.921 152.971 232.911C161.924 233.846 171.932 238.941 178.35 245.119C178.047 238.096 178.48 231.11 179.291 224.138C179.304 223.797 179.873 223.681 179.927 224.055C181.53 231.122 182.763 238.25 183.271 245.492C185.382 274.633 186.636 303.831 188.444 332.992C189.063 343.725 189.835 354.551 188.303 365.246C183.374 387.263 192.066 398.069 215.395 394.409C212.562 366.507 214.616 334.581 238.019 315.235C238.733 314.599 239.589 314.642 240.238 315.021C259.266 298.878 279.349 283.925 300.724 270.904C300.57 268.213 307.313 265.835 309.201 263.978C302.191 256.729 296.854 247.916 292.199 239.052C291.788 238.089 286.436 228.393 288.139 229.003C293.225 236.528 298.282 244.1 304.271 250.986C303.945 247.81 312.186 245.681 314.723 244.231C324.523 240.109 334.769 236.883 345.328 235.213C343.428 230.489 341.35 225.835 338.95 221.335M208.534 170.296C208.855 169.748 209.16 169.189 209.452 168.621C208.462 168.659 207.498 168.694 206.524 168.856C206.567 170.422 206.48 172.001 206.462 173.58C206.949 172.425 207.903 171.37 208.534 170.296M43.1504 390.878C66.5388 373.897 104.955 384.716 132.049 386.461C137.215 352.644 135.106 318.274 139.921 284.402C144.355 250.562 149.031 216.25 160.167 183.828C164.763 171.292 172.714 167.569 185.805 167.67C192.448 167.41 199.473 166.348 205.928 166.5C207.344 166.522 208.824 166.709 210.101 167.279C211.896 163.238 212.871 158.9 213.364 154.529C213.395 154.251 213.748 154.201 213.854 154.465C215.372 158.272 215.533 162.426 214.708 166.411C214.11 169.267 210.552 180.504 206.421 176.107C206.093 185.326 208.121 196.336 217.167 201.121C232.974 208.002 254.824 201.737 263.98 187.132C265.75 184.214 267.276 181.109 269.235 178.307C255.583 174.448 247.919 158.115 251.135 145.678C253.123 155.351 256.747 166.159 265.773 171.577C298.638 171.504 325.963 186.449 341.404 215.234C344.425 219.413 347.218 223.757 349.778 228.176C351.155 231.132 355.189 235.244 351.766 238.099C355.72 248.637 359.229 259.322 362.938 269.944C363.956 273.482 366.285 277.195 365.821 280.916C366.323 283.209 366.3 285.92 365.149 288.125C364.056 292.055 361.604 297.341 357.539 299.009C354.089 302.154 349.726 304.321 345.176 305.953C357.311 337.613 361.93 371.758 366.041 405.21C370.071 434.474 372.15 470.072 346.903 491.221C346.413 497.273 342.817 504.984 335.707 505.049C330.783 509.877 324.781 507.228 319.3 504.868C310.049 501.447 300.346 499.55 290.705 498.494C289.672 499.301 287.989 499.167 287.069 498.226C281.228 496.882 273.134 502.325 271.954 497.394C264.424 496.665 256.976 495.298 249.453 494.501C252.623 498.607 252.395 504.663 250.007 509.1C256.088 521.043 241.923 527.96 233.262 532.861C221.569 539.62 209.357 546.035 195.985 548.837C184.228 551.306 171.911 550.557 160.567 546.612C154.607 545.116 146.281 540.206 149.818 533.287C145.335 520.12 176.82 506.477 186.082 499.883C182.296 499.412 182.158 491.567 192.004 496.075C193.194 495.28 194.363 494.46 195.52 493.625C155.694 489.055 79.6347 476.481 50.8114 449.3C34.9766 435.324 25.8405 407.053 43.1504 390.878" fill="black"/>
</g>
</svg>
