<svg width="247" height="324" viewBox="0 0 247 324" fill="none" xmlns="http://www.w3.org/2000/svg">
<path fill-rule="evenodd" clip-rule="evenodd" d="M5.50371 179.325C8.52048 179.621 11.5373 179.917 14.554 180.213C29.0022 181.318 43.4447 183.624 57.7822 185.008C58.1392 184.427 58.838 184.523 59.2622 184.926C60.6929 184.801 62.2963 183.707 63.5923 184.845C63.6343 184.839 63.6764 184.832 63.7189 184.828C66.0264 180.398 67.6214 175.672 69.1694 170.94C70.1575 168.031 71.4868 165.215 73.9434 163.261C78.1358 160.35 87.7417 154.446 92.6646 154.694C92.7462 153.813 93.1571 152.904 93.8317 152.317C92.3448 149.781 98.2902 148.126 98.7095 148.42C98.4407 139.947 102.425 132.59 111.209 130.902C119.079 129.262 130.272 128.986 134.505 137.214C134.97 137.161 139.726 137.137 140.186 137.188C140.902 136.282 148.759 144.871 145.538 147.862C174.328 160.603 190.698 159.082 198.667 194.9C199.744 198.264 199.823 201.946 200.96 205.236C205.007 214.69 208.29 224.757 209.107 235.043C211.08 235.549 211.307 239.03 209.022 239.533C208.149 239.726 207.419 239.988 206.782 240.487C207.28 248.917 205.242 268.174 203.957 268.115C201.339 276.451 189.66 278.804 181.391 275.874C182.817 278.557 181.391 280.243 181.391 281.677C151.639 282.803 119.108 282.154 89.3644 283.699C85.5596 283.645 81.5578 284.633 77.805 284.064C75.5164 283.515 75.5126 279.915 77.834 279.47L67.6905 277.266C67.9172 277.181 63.5093 274.248 60.1778 268.767C57.0768 262.635 59.1873 255.234 57.7822 248.565C46.8081 247.667 35.6525 247.283 24.7984 245.424C23.3185 249.854 16.9121 244.556 14.8757 242.425C14.8782 242.422 14.8808 242.419 14.8833 242.415C13.8978 242.145 13.1075 241.221 13.0811 240.128C12.39 239.14 12.2449 237.747 12.9077 236.793C9.86994 219.257 5.23894 201.353 3.56506 183.653C2.97334 183.522 2.41608 183.263 1.94363 182.863L1.98192 182.825C1.18146 181.932 1.02581 180.391 2.36026 179.632C3.4367 179.02 4.33549 179.21 5.50371 179.325Z" fill="white"/>
<path fill-rule="evenodd" clip-rule="evenodd" d="M133.957 135.303C133.06 133.049 130.03 133.925 130.368 136.293C130.57 137.711 131.346 139.209 132.044 140.452C132.612 141.464 133.259 142.451 134.138 143.209C132.574 144.669 130.952 146.074 129.288 147.409C127.472 148.866 125.563 150.208 123.589 151.442C121.859 152.524 120.05 153.483 118.419 154.718C116.902 155.865 115.521 157.246 114.817 159.048C114.068 160.967 114.394 162.949 114.945 164.867L115.009 165.084C115.572 166.984 116.548 169.274 115.195 171.064C114.507 171.976 113.506 172.621 112.641 173.35C111.873 173.997 111.152 174.702 110.491 175.458C109.049 177.107 107.876 178.962 107.136 181.03L107.07 181.218C106.436 183.048 105.972 185.29 106.829 187.087C107.075 187.602 107.868 187.434 108.006 186.933C108.317 185.797 108.301 184.607 108.562 183.454C108.834 182.256 109.286 181.119 109.877 180.042C111.019 177.96 112.566 176.182 114.394 174.679L114.942 174.233C116.368 173.063 117.678 171.82 117.967 169.883C118.277 167.81 117.447 165.835 116.913 163.873C116.541 162.505 116.419 161.194 116.822 159.959C117.313 160.761 117.983 161.522 118.513 162.201C119.569 163.554 120.634 164.899 121.697 166.246C122.787 167.627 123.85 169.03 124.862 170.47C125.315 171.114 125.763 171.761 126.209 172.41C126.545 172.897 127.013 173.384 127.379 173.881C127.29 174.147 127.297 174.454 127.458 174.671C129.398 177.294 132.159 171.822 132.879 170.439C134.345 167.623 135.436 164.632 136.907 161.816C138.432 158.898 140.167 156.058 142.102 153.393C143.272 151.782 144.584 150.268 145.654 148.605C148.176 150.893 151.495 152.427 154.543 153.817C157.892 155.345 161.371 156.593 164.805 157.918L165.82 158.312C171.736 160.622 177.797 163.16 182.715 167.263C188.494 172.085 191.912 178.805 194.458 185.764C197.387 193.775 199.811 202.002 202.071 210.225C203.227 214.431 204.324 218.657 205.356 222.897C206.264 226.632 207.018 230.404 208.07 234.101C205.936 234.025 203.503 234.851 201.681 235.09C193.378 236.177 185.187 237.91 177.349 240.911C176.38 241.282 176.1 242.249 176.311 243.033C175.753 242.875 175.195 242.716 174.636 242.559C175.248 241.621 174.956 239.945 174.908 238.905L174.905 238.834C174.856 237.449 174.705 236.062 174.608 234.68C174.423 232.045 174.181 229.428 173.86 226.808L173.778 226.153C173.414 223.302 173.145 220.435 172.748 217.589L172.702 217.264C172.892 216.535 173.114 215.816 173.346 215.1C173.966 213.193 174.841 211.397 175.608 209.55C175.698 209.332 175.388 209.207 175.244 209.338C173.945 210.506 172.914 211.989 172.085 213.539C172.071 213.466 172.058 213.393 172.043 213.32L171.949 212.854C171.715 211.719 171.432 210.524 170.736 209.603C170.661 209.505 170.515 209.485 170.445 209.603C169.778 210.731 169.704 212.16 169.601 213.443C169.485 214.895 169.471 216.366 169.491 217.822C169.531 220.667 169.732 223.521 169.891 226.361C170.048 229.153 170.356 231.909 170.752 234.673L170.828 235.192C171.021 236.507 171.18 237.839 171.436 239.146L171.508 239.502C171.645 240.15 171.729 241.063 172.001 241.822C165 239.869 157.988 237.96 150.963 236.084C145.886 234.729 140.803 233.394 135.723 232.05C135.454 231.566 135.121 231.115 134.704 230.712C133.331 229.382 131.512 228.788 129.844 229.812C129.708 229.896 129.697 230.108 129.844 230.189C130.164 230.363 130.484 230.543 130.799 230.729L127.748 229.903C125.468 229.285 123.16 228.512 120.826 228.081C116.528 225.959 111.904 224.423 107.376 222.905L106.842 222.724C104.524 221.934 102.125 221.048 99.73 220.61C97.9762 220.289 95.9176 220.676 95.2124 222.474C94.3196 223.062 93.4796 223.754 92.669 224.434C92.0829 224.926 91.5212 225.448 90.9499 225.957L90.8446 226.05C90.3776 226.455 90.0076 226.727 89.8929 227.372C89.8338 227.705 90.0455 228.156 90.4564 228.112C91.7136 227.977 92.736 226.519 93.5886 225.649C94.2474 224.976 94.9114 224.28 95.5126 223.54C95.8631 223.731 96.3436 223.697 96.5667 223.274C97.7236 221.083 100.893 222.601 102.646 223.121L105.158 223.865C106.414 224.237 107.67 224.612 108.923 224.992C112.367 226.039 115.795 227.21 119.271 228.171C118.96 228.513 119.003 229.121 119.593 229.353C122.314 230.421 125.299 230.973 128.125 231.706C129.91 232.169 131.693 232.634 133.476 233.103C133.782 233.598 134.002 234.159 134.095 234.811C134.435 237.21 133.779 239.978 133.139 242.298L133.043 242.645C132.518 244.51 131.745 246.797 130.136 247.975C129.743 248.262 129.243 248.462 128.739 248.507C125.59 246.885 122.44 245.264 119.289 243.645C118.706 243.345 118.166 243.751 118.035 244.234C116.924 244.052 115.816 243.764 114.806 243.422C113.11 242.845 111.785 241.746 110.194 240.986C107.117 239.515 103.975 241.322 101.219 242.695L100.584 243.007C99.3487 243.607 96.7782 244.759 96.1853 243.119C95.6119 241.532 97.4248 239.836 98.5957 239.122C99.9913 238.27 101.616 237.815 103.194 237.435C104.094 237.218 105.006 237.041 105.923 236.912C106.963 236.766 108.038 236.788 109.039 236.45C109.537 236.283 109.614 235.492 109.039 235.361C107.498 235.01 105.657 235.393 104.048 235.784L103.207 235.992C101.586 236.39 99.9497 236.889 98.4731 237.683C97.3995 238.26 96.2662 239.137 95.526 240.211C94.8831 239.614 94.083 239.634 93.2495 239.855L92.7971 239.981C92.0501 240.188 91.4446 240.331 90.7177 240.187C90.6205 239.658 90.5221 239.129 90.4167 238.6C89.3808 233.398 88.2448 228.215 86.9914 223.061C84.8293 214.17 82.3275 205.376 79.507 196.673L79.2239 195.803C78.5734 193.812 78.0499 191.643 77.0012 189.815C76.0093 188.085 74.4201 187.089 72.532 186.562C70.3893 185.963 68.1379 185.65 65.9521 185.246C65.4645 185.156 64.9756 185.07 64.4876 184.981C64.9 184.237 65.2078 183.391 65.4851 182.742L65.5338 182.63C66.1295 181.271 66.6646 179.888 67.1814 178.497L67.5679 177.452C68.5009 174.934 69.4641 172.458 70.776 170.104C72.1568 167.626 73.9887 165.6 76.2723 163.924C80.9282 160.505 86.5401 158.761 91.0559 155.107C91.241 154.958 91.0038 154.702 90.816 154.796C87.7667 156.329 84.475 157.371 81.3034 158.619L80.6778 158.866C78.171 159.86 75.6252 160.942 73.4555 162.552C71.0364 164.347 69.1312 166.576 67.6993 169.226C66.288 171.839 65.3853 174.763 64.3896 177.554L64.1232 178.298C63.7216 179.413 63.3068 180.524 62.8315 181.609C62.4541 182.471 61.75 183.454 61.4299 184.438C60.5542 184.286 59.6787 184.134 58.8022 183.987C39.8162 180.816 20.6181 178.953 1.37729 178.408C0.624542 178.387 0.235184 179.105 0.3461 179.762C2.19258 190.685 3.83349 201.645 5.63391 212.576C6.41983 217.347 7.22138 222.114 8.04173 226.879C8.4573 229.293 8.93772 231.698 9.33131 234.116C9.64906 236.068 9.87975 238.036 10.4252 239.943C10.9145 241.653 11.6654 243.302 12.8986 244.607C14.2279 246.013 16.0832 246.694 17.9508 247.015C22.6919 247.832 27.5548 248.165 32.3343 248.709L57.7809 251.605C57.409 254.986 57.3812 258.315 57.5518 261.735L57.6491 263.603C57.7286 265.105 57.8236 266.609 58.0393 268.096C58.3097 269.96 59.1624 271.539 60.4184 272.932C61.5717 274.211 62.9728 275.303 64.3357 276.348C65.7503 277.434 67.2121 278.482 68.8754 279.154L69.0913 279.24C70.5505 279.81 73.2878 280.692 75.2823 280.37C75.0216 281.676 74.5171 283.081 74.9643 284.374C75.1718 284.975 75.9567 285.274 76.4375 284.764C77.3901 283.751 77.4645 282.414 77.6901 281.093C77.9248 279.718 78.1272 278.338 78.307 276.956C78.6548 274.282 78.9254 271.584 79.008 268.887C79.0929 266.118 79.0602 263.345 78.911 260.579C78.8343 259.158 78.7393 257.739 78.5591 256.327C78.4822 255.725 78.4036 255.123 78.3138 254.523C78.281 254.304 78.2447 254.086 78.2056 253.868L80.4896 254.126C83.9917 254.517 87.4955 254.87 91.0224 254.925C91.44 254.932 91.7614 254.741 91.9714 254.464C92.1951 254.829 92.5847 255.09 93.1426 255.088C98.0679 255.069 102.655 253.458 107.134 251.559C109.392 250.602 111.615 249.565 113.877 248.616C115.987 247.73 118.244 247.098 120.304 246.1L125.717 248.94C125.756 249.08 125.807 249.212 125.861 249.323C126.214 250.042 126.908 250.433 127.618 250.727C128.299 251.009 129.005 251.097 129.692 251.026C133.797 253.178 137.903 255.328 142.012 257.473L146.121 259.616C154.309 263.881 162.465 268.215 170.704 272.38L171.311 272.686C174.157 274.113 177.213 275.56 180.371 276.64C180.427 277.44 180.392 278.218 180.325 279.064L180.308 279.248C180.214 280.249 180.012 281.502 180.814 282.214C181.232 282.585 181.977 282.586 182.261 282.028C182.776 281.015 182.313 279.419 182.15 278.319C182.092 277.927 182.022 277.525 181.918 277.135C185.538 278.213 189.269 278.736 192.953 278.131C196.54 277.542 199.319 275.281 201.559 272.516C203.923 269.597 205.602 266.197 206.504 262.551C207.529 258.403 207.596 254.119 207.572 249.869C207.547 245.345 207.379 240.797 206.829 236.303C207.432 236.161 208.1 236.039 208.709 236.081C209.011 236.564 209.596 236.767 210.125 236.704C211.275 237.973 208.358 239.27 207.426 239.594C207.103 239.707 207.137 240.233 207.51 240.217L207.746 240.206C209.186 240.129 210.674 239.883 211.521 238.544C212.199 237.471 211.995 236.2 211.187 235.324C210.652 230.271 209.375 225.349 208.186 220.419C207.019 215.581 205.722 210.773 204.347 205.989L203.73 203.848C201.565 196.348 199.302 188.787 196.316 181.584C194.824 177.988 193.106 174.458 190.777 171.322C188.607 168.399 186.044 165.897 183.098 163.761C177.606 159.778 171.162 157.371 164.83 155.078L164.547 154.976C161.265 153.788 157.992 152.587 154.748 151.3C151.88 150.163 149.131 148.72 146.276 147.565C146.369 147.397 146.458 147.227 146.545 147.054L146.597 147.099C146.606 147.106 146.616 147.113 146.625 147.12C146.912 147.319 147.335 147.221 147.572 146.997C148.24 146.367 148.014 145.667 147.568 145.013L147.51 144.929C146.964 144.165 146.478 143.357 145.974 142.565L145.659 142.069C144.814 140.746 143.926 139.414 142.799 138.32C142.277 137.813 141.706 137.434 141.101 137.151C141.152 137.042 140.699 136.818 140.57 136.931C138.652 136.228 136.446 136.376 134.355 136.569M59.0121 251.745L61.6783 252.048C64.6115 252.382 67.5459 252.705 70.4807 253.024L76.8551 253.717C76.8714 254.081 76.9155 254.436 76.9236 254.711C76.9652 256.126 76.9963 257.542 77.0256 258.958C77.0846 261.796 77.0199 264.637 76.8332 267.47C76.6521 270.214 76.4137 272.959 76.0433 275.685L75.9674 276.23L75.9234 276.517C75.6211 276.546 75.3241 276.69 75.0771 276.985C74.5379 277.629 72.5856 277.003 71.8232 276.732C70.5693 276.285 69.3885 275.531 68.299 274.775C67.235 274.037 66.2769 273.176 65.3563 272.269L64.603 271.523C63.8537 270.778 63.1035 269.985 62.6444 269.048C62.0218 267.777 61.9413 266.217 61.7588 264.833C61.534 263.131 61.2663 261.429 60.9834 259.735M136.411 233.877L136.688 233.949C146.734 236.62 156.765 239.369 166.842 241.922C171.828 243.185 176.839 244.357 181.832 245.596L182.64 245.798C186.579 246.794 190.565 247.992 193.581 250.851C193.693 250.956 193.854 250.794 193.749 250.682C190.499 247.22 185.875 245.755 181.436 244.484C180.616 244.25 179.794 244.02 178.973 243.787C185.01 241.634 191.143 239.761 197.417 238.425C199.032 238.081 200.667 237.828 202.281 237.483C203.407 237.242 204.506 236.893 205.62 236.604L206.497 236.384L206.508 239.154C206.523 243.078 206.516 246.998 206.316 250.922L206.278 251.648C206.044 256.014 205.68 260.471 204.131 264.587C202.873 267.933 200.867 271.084 198.243 273.521C196.916 274.754 195.489 275.713 193.725 276.187C192.087 276.627 190.371 276.679 188.687 276.561C180.61 275.998 173.421 271.608 166.405 267.975C154.93 262.031 143.453 256.09 131.966 250.169C132.277 249.956 132.569 249.712 132.835 249.437C134.375 247.845 135.188 245.667 135.721 243.557C136.29 241.311 136.629 238.904 136.669 236.585M121.795 252.463C121.693 252.409 121.576 252.477 121.571 252.592C121.536 253.469 122.021 254.335 122.383 255.126L122.421 255.21C122.861 256.189 123.343 257.156 123.842 258.107C124.838 260.007 125.873 261.887 126.953 263.74C129.126 267.469 131.54 271.04 134.394 274.287C135.039 275.02 136.099 274.08 135.685 273.29C133.691 269.484 131.366 265.89 128.973 262.327C127.775 260.543 126.577 258.758 125.367 256.982C124.863 256.241 124.351 255.502 123.826 254.775L123.51 254.341M2.64968 180.588C12.7307 180.893 22.8 181.55 32.8331 182.581C42.1639 183.54 51.4605 184.815 60.7048 186.406C62.6356 186.738 64.564 187.084 66.49 187.444L67.6453 187.661C69.5717 188.026 71.925 188.177 73.64 189.206C75.4483 190.292 75.9369 192.56 76.5386 194.43C77.246 196.63 77.9353 198.836 78.6061 201.047C81.2698 209.828 83.7029 218.684 85.8735 227.599C86.951 232.024 87.9069 236.473 88.9143 240.914C89.8092 244.86 90.7967 248.762 91.8283 252.668C91.7011 252.569 91.5452 252.494 91.3569 252.454C86.2342 251.363 81.0049 250.889 75.8056 250.287L75.3025 250.228C69.9238 249.596 64.5452 248.968 59.1634 248.362L23.5312 244.354C21.4297 244.117 19.1784 244.085 17.1333 243.521C13.6564 242.561 12.8414 238.673 12.258 235.576L12.2404 235.482C10.4816 226.125 9.08151 216.687 7.44123 207.306M90.9991 241.791C92.3825 241.699 94.2758 240.432 95.3254 240.523C94.7744 241.448 94.5258 242.502 94.8433 243.629C95.727 246.764 99.7236 245.142 101.649 244.184C103.227 243.399 104.751 242.437 106.498 242.069C108.478 241.653 109.819 242.441 111.492 243.348C112.865 244.094 114.361 244.629 115.9 244.906C116.718 245.054 117.495 245.069 118.27 245.012C118.317 245.05 118.37 245.085 118.43 245.117L118.84 245.332C116.985 245.417 115.095 245.99 113.369 246.514C111.58 247.057 109.823 247.712 108.076 248.382L106.358 249.042C102.119 250.666 97.7306 252.209 93.1428 252.195C92.813 252.194 92.5428 252.285 92.3301 252.434M98.739 231.968C97.3723 231.801 96.1108 231.98 95.0188 232.87C93.7017 233.944 92.8169 235.724 90.9236 235.841C90.3715 235.875 90.2433 236.651 90.7919 236.813C92.2013 237.231 93.3424 236.468 94.3026 235.478L94.9482 234.803C95.8971 233.82 96.7722 233.06 98.3824 233.119C100.107 233.182 101.834 233.58 103.547 233.783C105.488 234.013 107.428 234.208 109.375 234.377C109.465 234.385 109.481 234.242 109.396 234.222L107.216 233.679M100.058 229.379L99.8326 229.356C97.848 229.164 96.033 229.156 94.2606 230.224L93.9206 230.43C92.3226 231.402 90.5833 232.546 89.5839 234.119C89.4204 234.377 89.6906 234.68 89.9642 234.614C91.8849 234.153 93.2889 232.744 94.9041 231.688C96.7168 230.505 98.5892 230.7 100.656 230.884C102.657 231.062 104.657 231.307 106.639 231.64C108.501 231.954 110.368 232.448 112.249 232.606L112.249 232.602C112.464 232.602 112.586 232.279 112.367 232.169C110.458 231.216 108.248 230.765 106.172 230.329M39.7697 206.756C39.9615 205.838 38.8329 205.413 38.3098 206.141L38.1986 206.294C37.0685 207.843 35.4341 209.787 35.5173 211.757C34.5239 211.778 33.494 212.382 33.107 213.279C32.928 213.694 32.8674 214.185 32.9069 214.694C32.0039 214.765 31.0192 215.358 30.4672 215.935C29.5522 216.892 29.4799 218.245 30.1363 219.363C31.5675 221.801 34.6941 222.688 37.3335 222.886L37.4276 222.893C40.1538 223.082 44.0821 223.031 45.9514 220.691C47.7545 218.434 45.7617 216.606 43.7181 215.614C44.25 215.128 44.5255 214.431 44.2665 213.697C43.8117 212.405 42.2058 211.906 41.2984 211.008C40.1923 209.913 39.4613 208.412 39.7528 206.842M38.2714 208.741C38.572 210.048 39.3106 211.243 40.3393 212.191C40.7326 212.553 41.163 212.875 41.6202 213.153L41.6751 213.184C42.0809 213.412 43.0782 213.839 43.0015 214.35C42.9224 214.876 41.2976 215.698 40.8548 215.699C40.754 215.699 40.6969 215.856 40.7998 215.902C41.6024 216.256 42.3034 216.408 43.0883 216.034C43.6126 216.569 44.122 217.123 44.6265 217.673C45.5187 218.645 45.2134 219.671 44.1592 220.395C42.4653 221.558 39.8903 221.529 37.9139 221.445C35.9246 221.36 33.7982 220.916 32.2443 219.59L32.1766 219.531C31.3321 218.78 30.5608 217.507 31.8541 216.783C32.3605 216.5 32.9077 216.516 33.3886 216.379C33.8386 217.261 34.5685 217.968 35.4592 218.104C36.179 218.214 36.6748 217.309 36.02 216.876L35.8729 216.785C35.0506 216.26 34.349 215.451 34.3676 214.398C34.3803 213.667 35.4007 212.744 36.0655 213.431L36.0959 213.463C36.6522 214.091 37.6321 213.3 37.2662 212.605L37.2486 212.574M168.015 172.393C168.018 172.236 167.797 172.177 167.72 172.313C166.428 174.586 165.753 177.372 165.065 179.876C164.345 182.498 163.763 185.148 163.241 187.817C162.183 193.221 161.619 198.595 161.581 204.103C161.575 204.889 162.856 205.099 162.981 204.293C163.813 198.935 164.61 193.571 165.448 188.215C165.87 185.521 166.361 182.837 166.83 180.151M155.231 176.352C155.326 176.038 154.871 175.933 154.754 176.22C152.163 182.584 151.285 189.795 152.949 196.509C153.203 197.536 154.707 197.091 154.515 196.077M121.805 170.697C121.818 170.463 121.514 170.426 121.399 170.587C120.171 172.318 119.662 174.636 117.508 175.53C116.432 175.977 115.222 175.899 114.271 176.653C113.636 177.158 113.149 177.954 113.626 178.718C113.78 178.965 114.21 179.089 114.419 178.82C114.724 178.43 114.885 177.962 115.299 177.669C115.882 177.256 116.67 177.23 117.339 177.036C118.205 176.785 118.968 176.345 119.593 175.692M101.292 141.83C101.165 141.766 101.044 141.807 100.963 141.916C100.847 142.072 100.861 142.224 101.003 142.331C100.814 142.718 100.59 143.686 100.559 143.827C100.429 144.399 100.292 144.967 100.148 145.534C99.8575 146.679 99.6032 147.833 99.3127 148.978C99.0047 150.192 98.6377 151.393 98.2293 152.577C98.203 152.654 98.174 152.732 98.1436 152.811L98.0971 152.931L98.0856 152.913C98.0026 152.782 97.8298 152.874 97.8503 153.012C97.8693 153.139 97.8949 153.264 97.9164 153.391L97.8736 153.504C97.6065 154.223 97.4235 154.981 97.9137 155.616C98.0971 155.853 98.2988 155.993 98.5502 156.035C98.9533 157.365 99.4591 158.669 100.001 159.922L100.159 160.288C100.956 162.116 101.805 163.921 103.073 165.477C104.458 167.176 106.363 168.336 107.569 170.198C108.13 171.065 108.52 171.975 108.837 172.953L108.957 173.325C109.181 174.017 109.441 174.687 110.09 175.093C110.297 175.222 110.607 175.181 110.774 175.005C112.104 173.597 110.711 170.968 109.909 169.605C108.794 167.71 107.18 166.497 105.564 165.067C103.822 163.526 102.711 161.464 101.637 159.433C100.978 158.188 100.343 156.917 99.6737 155.667C100.373 155.049 100.597 153.821 100.833 152.968L100.855 152.891C101.246 151.525 101.557 150.123 101.754 148.714C101.943 147.36 102.022 146.026 101.972 144.664L101.957 144.317M98.6924 148.275C98.8469 148.063 98.5913 147.823 98.3794 147.867C97.091 148.134 95.8314 148.914 94.6751 149.545L94.5516 149.612C93.6286 150.11 92.6998 150.72 92.2152 151.687C91.6881 152.738 91.7315 153.949 91.8034 155.092L91.8102 155.199C91.8983 156.569 91.9125 157.993 92.2023 159.338C92.3506 160.027 92.9741 160.221 93.5071 160.058C94.1413 162.061 95.9229 163.537 97.2243 165.118C98.8836 167.134 98.5714 169.855 98.3979 172.282C98.3278 173.265 99.5498 173.544 100.179 173.02L101.63 171.815C101.871 171.614 102.112 171.412 102.353 171.21C102.559 171.036 102.763 170.862 102.966 170.685L103.268 170.417C103.402 170.297 103.994 169.636 104.167 169.609C104.586 169.542 105.582 170.647 105.923 170.993L105.966 171.037C106.607 171.666 107.187 172.343 107.726 173.061C107.826 173.193 108.02 173.083 107.949 172.931C107.465 171.894 106.903 170.903 106.235 169.976L106.1 169.791C105.656 169.192 105.059 168.135 104.275 167.958C103.318 167.742 102.361 168.702 101.665 169.236L101.621 169.269C101.289 169.518 100.961 169.771 100.634 170.026C100.669 168.219 100.44 166.393 99.5077 164.835C98.8501 163.737 97.8647 162.923 97.0215 161.979C96.0829 160.928 95.5927 159.637 94.743 158.542C94.6336 158.401 94.4827 158.325 94.3194 158.301C94.2868 157.421 94.1572 156.533 94.0571 155.662L94.0281 155.402C93.9269 154.456 93.6877 153.301 94.1506 152.415C94.5879 151.578 95.5911 150.988 96.334 150.42L96.9406 149.949M140.505 138.274C140.893 138.498 141.256 138.777 141.585 139.126C142.62 140.225 143.36 141.593 144.081 142.908C144.469 143.617 144.843 144.333 145.234 145.04C145.404 145.347 145.579 145.651 145.756 145.955C145.837 146.095 146.08 146.373 146.201 146.544C146.067 146.732 145.929 146.917 145.787 147.099C145.734 147.169 142.019 151.217 140.725 152.801C138.742 155.227 136.97 157.79 135.455 160.534C133.972 163.22 132.842 166.065 131.468 168.803C130.78 170.174 130.012 171.535 129.032 172.722C128.995 172.768 128.955 172.812 128.916 172.858C128.542 171.848 127.585 170.766 127.114 170.145L127.07 170.086C126.004 168.648 124.877 167.253 123.726 165.881C122.675 164.629 121.597 163.404 120.493 162.199L120.078 161.748C119.308 160.917 118.331 159.673 117.205 159.079C117.326 158.864 117.466 158.651 117.626 158.441C118.681 157.062 120.173 156.061 121.644 155.158L122.599 154.577C126.196 152.384 129.738 150.089 132.861 147.239C134.513 145.732 136.142 144.152 137.531 142.393L138.023 141.772M134.503 137.188C136.188 137.33 138.007 137.296 139.564 137.845C138.18 139.154 136.864 140.567 135.513 141.898C135.392 140.998 135.146 140.109 134.938 139.231" fill="black"/>
<path fill-rule="evenodd" clip-rule="evenodd" d="M87.5733 88.9374C87.3875 86.9911 89.407 81.7987 89.3583 82.8519C92.5959 77.2197 98.9142 75.0049 104.366 73.1456C115.938 68.8354 124.975 74.0408 133.106 83.2665C137.906 88.3254 142.474 93.9764 144.884 100.98C149.624 114.339 142.519 129.573 131.712 135.955C130.84 136.487 129.89 136.993 129.06 137.636C124.593 140.548 119.347 141.555 114.369 142.822C105.057 145.224 93.3611 144.079 87.873 134.076C84.1507 126.977 85.1396 118.371 85.4309 110.493C85.8686 103.59 86.637 95.7896 87.5733 88.9374Z" fill="white"/>
<path fill-rule="evenodd" clip-rule="evenodd" d="M137.35 69.2369C131.317 62.8737 122.399 59.7895 114.246 60.3289C109.83 60.6211 105.575 61.8695 101.584 64.0142C100.336 64.6849 99.1196 65.4699 97.9981 66.3944C97.2416 66.7927 96.502 67.2237 95.7855 67.6923C92.1973 70.0375 89.4234 73.5897 87.648 77.8034C86.8005 79.8146 86.1317 81.9354 85.753 84.1205L85.692 84.4802C85.4987 85.5768 85.1167 87.0215 85.6 88.0476C85.9203 88.7279 86.5916 89.1567 87.2272 89.0991C87.0892 89.7296 86.9239 90.3599 86.8183 90.9945L86.5305 92.7245C86.4828 93.0129 86.4355 93.3012 86.3889 93.5896C86.1112 95.3081 85.8556 97.0245 85.6511 98.7565C85.2235 102.363 84.8367 105.977 84.4959 109.597C84.2517 112.185 84.0229 114.777 83.8006 117.367L83.6679 118.922C83.4396 121.597 83.2606 124.296 83.4159 126.984C83.6495 131.015 84.7484 134.693 86.8815 137.685C86.6782 138.237 86.6097 138.857 86.4567 139.543C86.2449 140.492 85.9691 141.421 85.6755 142.342C85.5382 142.704 85.4005 143.066 85.2644 143.429L84.9064 144.39V144.39L84.627 145.021C84.3244 145.706 84.0317 146.402 83.8457 147.112C82.6405 147.838 81.6562 149.022 81.6079 150.645C81.5653 152.112 82.2401 153.665 83.3799 154.413C84.5046 155.152 85.6625 154.861 86.7395 154.297C87.6785 154.605 88.6836 154.644 89.6137 154.315C90.3299 155.046 91.2535 155.551 92.2773 155.687C93.8209 155.894 95.2863 155.407 96.7023 154.766L96.801 154.721C96.8453 154.701 96.8896 154.68 96.9322 154.659C98.5611 154.571 100.183 153.844 101.339 152.556C101.715 152.139 102.04 151.662 102.303 151.128C103.255 149.184 103.403 146.799 102.466 144.871C102.667 144.88 102.87 144.89 103.071 144.896C105.752 144.982 108.438 144.828 111.112 144.629L111.742 144.581C113.473 144.44 116.025 144.109 116.073 141.689C116.08 141.38 115.797 141.147 115.538 141.23C114.555 141.543 113.589 142.035 112.57 142.212C111.238 142.445 109.858 142.47 108.511 142.554L108.124 142.579C105.41 142.746 102.598 142.848 99.9276 142.241C97.9342 141.789 95.8571 140.966 94.0306 139.948C92.2773 138.967 90.6843 137.685 89.3996 136.011C86.5695 132.328 86.1947 127.132 86.3327 122.472C86.4996 116.907 87.0791 111.35 87.4061 105.792L87.554 103.296C87.676 101.214 87.7875 99.1288 87.8337 97.0459C87.8678 95.5253 87.8458 94.0009 87.839 92.4804C87.8356 91.7211 87.844 90.9579 87.8286 90.1986C87.8201 89.7719 87.7758 89.3547 87.7434 88.9374C87.8934 88.8492 88.0331 88.726 88.1592 88.5628C88.258 88.434 88.3347 88.2975 88.3875 88.1591C89.023 87.9493 89.3178 87.6706 89.7301 87.0384C90.0777 86.5059 90.4713 86.0138 90.8921 85.5524C91.7883 84.5721 92.8123 83.7705 93.8944 83.0725C96.1314 81.629 98.5815 80.664 101.052 79.872C104.835 78.661 108.764 78.0381 112.602 77.0653C113.66 78.73 114.782 80.3449 115.954 81.9077C119.612 86.7827 123.807 91.1288 128.302 95.0044C129.216 95.7945 130.144 96.573 131.084 97.3283C132.323 99.4594 133.575 101.58 134.845 103.687L135.391 104.589L135.4 104.606C135.475 104.735 135.546 104.864 135.618 104.993C135.769 105.266 135.94 105.529 136.12 105.785C136.238 105.979 136.357 106.173 136.478 106.367C136.246 106.507 136.035 106.665 135.87 106.84C135.533 107.199 135.589 107.77 135.87 108.136C136.776 109.316 138.211 107.778 139.254 107.369C140.383 107.757 141.326 109.274 141.794 110.433C142.469 112.103 142.74 114.118 142.435 115.927C142.156 117.58 141.402 119.008 140.15 119.904C140.106 119.935 140.058 119.967 140.012 119.996C140.01 120 140.01 120 140.009 119.998C139.966 120.029 139.922 120.058 139.877 120.085C139.29 120.45 138.644 120.665 137.974 120.717C137.591 120.748 137.19 120.725 136.807 120.777C136.413 120.828 136.09 121.032 135.711 121.14C135.294 121.261 135.025 121.894 135.287 122.318C135.417 122.528 135.539 122.728 135.671 122.907C135.24 123.479 134.865 124.112 134.526 124.713C134.062 125.538 133.652 126.413 133.277 127.305C132.931 127.818 132.6 128.341 132.28 128.875C130.465 131.909 129.077 135.288 128.223 138.819C127.378 142.312 126.85 146.235 127.632 149.802C128.353 153.081 130.457 155.797 133.571 155.972C134.221 156.008 134.861 155.926 135.462 155.74C136.782 156.66 138.419 157.123 139.883 157.177C141.068 157.221 142.365 156.94 143.333 156.131C144.48 156.695 145.726 157.015 146.808 157.088C148.02 157.169 149.288 156.797 150.276 156.059C151.216 156.967 152.23 157.734 153.382 158.26C155.364 159.163 157.722 159.051 159.536 157.7C161.354 156.347 162.279 153.917 161.724 151.506C161.213 149.284 159.606 147.654 158.096 146.251L157.798 145.975C156.305 144.6 154.797 143.269 153.839 141.332C152.821 139.277 152.45 136.889 152.349 134.563C152.131 129.442 153.055 124.368 153.336 119.273C153.626 114.012 153.464 108.735 152.828 103.512C151.593 93.3666 148.342 83.4206 142.46 75.512C141.609 74.3677 140.699 73.277 139.739 72.2432C139.005 71.1605 138.212 70.1457 137.35 69.2369ZM59.1139 127.166C59.0816 127.168 59.0509 127.17 59.0219 127.184C59.0025 127.193 58.9861 127.208 58.971 127.224L58.8277 127.385C58.7766 127.443 58.78 127.532 58.8277 127.589C58.8695 127.642 58.9451 127.643 58.9944 127.603L59.0083 127.589L59.1567 127.422C59.1729 127.402 59.1869 127.38 59.194 127.353C59.2008 127.326 59.2008 127.295 59.2025 127.266C59.2042 127.214 59.1599 127.166 59.1139 127.166ZM139.055 111.461C137.688 110.994 136.049 112.105 135.235 113.278C134.826 113.866 134.71 114.671 135.235 115.25C135.681 115.742 136.553 115.832 136.984 115.25C137.473 114.587 137.872 113.668 138.571 113.243C139.329 112.782 140.344 112.897 140.523 114.022C140.554 114.212 140.796 114.148 140.806 113.978C140.873 112.84 139.988 111.778 139.055 111.461Z" fill="black"/>
<path fill-rule="evenodd" clip-rule="evenodd" d="M91.4168 95.4755C87.8995 95.4755 85.8924 96.4008 85.1568 96.4729L85.1347 96.4748C84.8288 96.4987 84.5543 96.53 84.2664 96.6662C83.2076 97.165 83.0352 98.5234 83.653 99.3795C83.6964 101.151 83.5059 103.221 83.8327 104.998C84.2358 112.49 87.1161 113.754 88.7533 114.216C89.5752 114.447 90.5494 114.54 91.4225 114.295C92.912 114.227 94.3845 113.657 95.6444 112.663C97.399 111.279 98.7022 109.151 99.1251 106.626C99.3255 105.422 99.4192 104.17 99.3101 102.946L99.2939 102.778C99.8643 102.444 100.525 102.381 101.206 102.351C101.532 102.337 101.853 102.324 102.164 102.341C102.469 102.383 102.77 102.438 103.072 102.514C103.401 102.635 103.713 102.836 104 103.154L104.02 103.619C104.074 104.778 104.198 105.941 104.39 107.079C104.674 108.758 105.13 110.361 106.1 111.551C106.428 112.152 106.835 112.687 107.328 113.151C109.12 114.839 111.555 115.459 113.79 115.225C118.327 114.752 120.95 110.346 121.554 108.463L121.59 108.349C122.027 106.949 122.375 105.132 123.754 104.831L124.048 104.767C124.677 104.622 125.258 104.421 125.627 103.67C125.789 103.342 125.872 102.975 125.893 102.601C126.108 102.621 126.323 102.641 126.537 102.659C128.247 103.102 138.501 103.477 139.319 103.477C139.319 103.477 140.892 104.287 141.557 103.659C142.017 103.223 142.168 102.641 141.915 101.982C141.533 100.991 139.768 100.394 138.985 100.205C138.985 100.205 126.343 100.334 125.433 100.123C124.87 99.4126 123.863 99.5098 123.022 99.3976C122.325 98.79 121.351 98.383 120.581 98.1106C120.424 98.0379 120.269 97.9676 120.118 97.9013C118.706 97.2865 117.239 96.9609 115.75 96.7861C114.215 96.6075 112.675 96.6883 111.148 96.9442C110.505 97.0509 109.867 97.189 109.234 97.3695C108.101 97.5523 106.975 97.8533 105.841 98.2104L105.614 98.2825C104.42 98.6653 103.194 98.9965 101.958 98.737C100.952 98.527 99.9844 98.0534 99.0569 97.5413L98.9361 97.4743C96.8966 96.3351 93.7114 95.4755 91.4168 95.4755Z" fill="#231F20"/>
<path fill-rule="evenodd" clip-rule="evenodd" d="M98.066 140.249C98.066 140.249 105.629 141.502 109.015 139.73C112.39 137.964 115.673 136.255 118.735 133.915C121.872 131.517 124.533 128.67 126.433 125.026C128.2 121.636 129.669 118.038 131.148 114.468C131.234 114.259 132.083 112.185 132.383 111.489C132.845 110.411 134.194 110.749 134.194 112.424C134.194 114.098 134.261 126.775 131.667 131.763C129.328 136.267 125.363 139.414 121.424 142.161C117.065 145.198 111.276 148.482 106.076 149.349C101.37 150.134 95.9993 147.931 92.5916 144.299C89.0289 140.502 88.0202 135.342 86.1818 130.402C85.7712 129.297 87.2269 128.631 87.6539 129.717C88.458 131.763 98.066 140.249 98.066 140.249Z" fill="black"/>
<path fill-rule="evenodd" clip-rule="evenodd" d="M114.336 117.728C111.379 117.276 108.512 118.417 105.621 118.993C104.094 119.296 102.566 119.523 101.021 119.607C100.71 119.624 100.4 119.634 100.089 119.642C100.06 119.297 99.9065 118.981 99.5746 118.791C98.8942 118.402 98.3497 118.227 97.6027 118.264C96.9189 118.298 96.2327 118.387 95.5594 118.542C94.3367 118.825 93.1085 119.466 92.2142 120.58C90.1443 123.158 90.4594 127.299 92.0587 130.107C95.363 135.909 101.394 136.179 106.559 136.103L107.036 136.095C111.739 136.01 118.467 136.894 120.604 130.149C121.39 127.668 121.28 124.793 120.318 122.414C119.171 119.577 116.756 118.099 114.336 117.728ZM99.6458 127.389L99.688 127.391C101.856 127.497 104.024 127.571 106.194 127.619C106.129 128.321 106.063 129.024 105.987 129.725C105.928 130.276 105.864 130.827 105.798 131.378C105.769 131.611 105.667 131.972 105.696 132.203L105.706 132.294V132.294C105.595 132.358 105.494 132.46 105.418 132.608C105.392 132.66 105.373 132.712 105.354 132.763C103.67 132.78 101.857 132.739 100.14 132.353L100.137 132.306V132.306C100.106 132.029 100.014 131.843 99.8932 131.715C99.7726 130.834 99.7836 129.894 99.7369 129.019C99.7078 128.476 99.6763 127.932 99.6458 127.389ZM107.851 127.656C109.414 127.69 110.977 127.716 112.54 127.692L113.249 127.678V127.678C113.099 128.691 112.936 129.701 112.801 130.721C112.66 131.783 113.402 132.459 114.044 132.432C113.972 132.447 113.9 132.462 113.828 132.475C111.821 132.833 109.737 132.738 107.701 132.735C107.81 131.929 107.766 131.019 107.782 130.346L107.785 130.242C107.816 129.38 107.838 128.518 107.851 127.656ZM118.467 127.471C118.413 127.997 118.307 128.513 118.149 128.993C117.482 131.021 115.953 131.967 114.334 132.366C114.615 132.244 114.838 131.95 114.894 131.447C115.035 130.196 115.085 128.925 115.089 127.655C116.217 127.642 117.352 127.611 118.467 127.471ZM93.7645 127.037C94.5674 127.276 95.5005 127.167 96.2883 127.212C97.0263 127.254 97.7647 127.291 98.5028 127.329C98.468 127.964 98.4341 128.599 98.3972 129.234C98.3497 130.054 98.3452 130.921 98.2206 131.738C96.7352 131.099 95.4043 130.074 94.4058 128.435C94.157 128.027 93.9342 127.548 93.7645 127.037ZM114.676 121.056C116.012 121.455 117.277 122.298 117.957 123.839C118.361 124.754 118.538 125.839 118.504 126.907C117.375 126.742 116.225 126.679 115.082 126.627C115.078 126.367 115.073 126.108 115.067 125.849L115.049 125.186C115.018 123.921 115.002 122.332 114.676 121.056ZM107.757 121.21L108.346 121.127C109.98 120.892 111.614 120.646 113.248 120.787C113.485 120.807 113.725 120.84 113.965 120.884C113.677 122.199 113.701 123.742 113.58 125.043C113.533 125.546 113.475 126.045 113.409 126.542L113.126 126.525V126.525C111.372 126.405 109.617 126.331 107.861 126.244C107.862 125.828 107.86 125.413 107.854 124.997L107.848 124.581C107.828 123.519 107.882 122.322 107.757 121.21ZM99.55 121.041C101.262 121.39 103.031 121.464 104.712 121.466C105.384 121.468 106.055 121.416 106.726 121.341C106.682 121.791 106.66 122.246 106.627 122.69C106.56 123.588 106.485 124.484 106.402 125.379L106.329 126.162V126.162C104.172 126.039 102.015 125.906 99.8578 125.768L99.5535 125.747V125.747L99.4681 124.242C99.4101 123.238 99.3462 122.234 99.256 121.235L99.3236 121.204V121.204C99.4032 121.163 99.4786 121.106 99.55 121.041ZM98.8067 121.415C98.7124 122.834 98.6602 124.259 98.5909 125.681L97.169 125.585C96.9321 125.569 96.6951 125.552 96.4582 125.535C95.5368 125.468 94.3529 125.117 93.442 125.445C93.3724 124.401 93.6091 123.384 94.3565 122.682C95.6685 121.451 97.3391 121.889 98.8067 121.415ZM103.665 108.728C101.547 107.199 96.2349 105.637 95.8985 110.44C95.7438 112.651 97.0473 114.482 98.5695 115.299L98.6267 115.33C100.054 116.07 102.585 116.905 103.82 115.301C104.849 113.965 103.485 111.571 102.207 112.665C101.55 113.227 100.168 112.813 99.4355 112.545L99.3896 112.529C98.5989 112.236 97.5448 111.298 97.8717 110.071C98.161 108.985 99.3922 108.787 100.163 108.751C101.314 108.699 102.434 109.036 103.575 109.146C103.755 109.163 103.811 108.834 103.665 108.728ZM94.8945 101.004C92.0209 100.834 90.2333 104.79 90.8941 108.031C91.0083 108.59 91.5045 109.139 91.9834 109.076L92.1041 109.062C92.1654 109.054 92.227 109.045 92.2836 109.025C92.7384 108.866 93.1461 108.27 93.113 107.652L93.1042 107.472C93.0371 105.941 93.1687 104.177 94.6121 103.806C95.8361 103.491 96.5195 104.977 96.534 106.344C96.5368 106.587 96.7531 106.756 96.9234 106.626C97.8083 105.947 97.9615 104.596 97.6235 103.433C97.1951 101.96 96.1231 101.076 94.8945 101.004ZM116.219 101.852C114.128 100.973 111.872 102.378 110.859 104.709C110.504 104.838 110.149 105.183 110.199 105.712C110.27 106.472 110.377 106.952 110.795 107.528C111.449 108.43 112.675 107.969 112.946 106.859L112.958 106.809C113.267 105.373 114.52 104.426 115.662 104.929C116.995 105.516 116.957 107.291 117.892 108.326C118.002 108.447 118.134 108.467 118.266 108.386C119.259 107.781 119.081 105.959 118.726 104.917C118.262 103.548 117.359 102.331 116.219 101.852ZM119.067 93.8469C117.373 91.6671 112.954 89.5579 111.795 93.583C111.574 94.3497 112.044 95.3835 112.677 95.5425C113.714 95.8026 114.634 95.2351 115.664 95.3369C116.498 95.4198 117.368 95.771 118.034 96.4222C119.881 98.2257 120.287 101.276 121.573 103.572C121.636 103.683 121.758 103.636 121.769 103.505C122.062 100.163 120.923 96.2341 119.067 93.8469ZM96.9673 91.7007C95.8428 91.2 94.5694 91.2428 93.439 91.687C92.3003 92.1346 91.2549 92.9845 90.4496 94.0951C90.0841 94.5992 89.746 95.1556 89.4748 95.7478C89.3307 96.0617 89.1792 96.71 89.0155 97.0961C88.1297 97.7408 87.751 99.21 88.5441 100.255L88.5799 100.301L88.686 100.434C89.1123 100.966 89.7551 101.196 90.3371 100.984C91.6393 100.509 91.7975 99.2158 92.2483 97.8434C92.5461 96.9369 93.0563 96.1347 93.6748 95.5455C95.1366 94.1536 97.5336 93.7101 99.2935 94.3661C99.3872 94.4011 99.4973 94.2506 99.4305 94.1414C99.097 93.5968 98.9048 93.1498 98.4583 92.7105C98.0051 92.2646 97.5104 91.9425 96.9673 91.7007Z" fill="black"/>
</svg>
