<svg width="240" height="324" viewBox="0 0 240 324" fill="none" xmlns="http://www.w3.org/2000/svg">
<path fill-rule="evenodd" clip-rule="evenodd" d="M114.34 135.723C119.555 131.751 132.648 129.964 138.214 133.789C143.711 137.631 144.311 143.843 146.872 149.557C149.29 148.417 153.281 150.05 153.982 152.294C154.851 153.352 154.89 156.325 155.49 157.747C181.569 161.9 185.528 182.24 188.667 205.332C192.82 228.764 202.247 252.145 198.154 276.257C198.688 277.029 199.108 277.78 199.497 278.671C200.428 280.256 199.228 282.501 197.35 282.414C194.918 282.2 192.51 281.908 190.067 281.817C183.293 281.582 176.514 281.61 169.738 281.696L168.814 281.708C134.667 282.133 100.521 282.971 66.3713 283.194C65.1324 283.195 64.5259 282.084 64.6913 280.987C65.0245 278.78 65.3336 276.571 65.6562 274.363C57.579 276.497 48.9922 277.034 40.9379 274.587C40.3744 274.013 42.2507 274.324 42.5483 274.237C35.1358 269.17 37.3495 258.495 38.0061 250.807C42.0891 224.462 43.5284 195.313 59.3036 172.832C66.1281 163.658 76.1336 156.394 87.6305 154.76L87.9495 154.716C91.3112 154.267 95.0578 154.123 97.997 152.294C101.303 149.653 102.711 144.775 106.189 144.73C107.338 144.715 108.9 146.168 110.581 147.155C110.706 144.984 111.876 143.152 112.134 141.469L112.155 141.325C112.424 139.363 112.055 137.598 114.34 135.723ZM170.386 206.028C163.057 200.935 144.125 203.494 143.692 203.779C142.737 204.407 142.326 204.463 141.81 205.278C141.301 205.346 140.792 205.416 140.283 205.488C139.262 205.822 140.019 207.077 141.197 206.629C140.488 209.688 142.575 211.864 143.406 214.888C143.676 215.87 143.416 217.636 143.406 218.64C143.486 219.919 144.9 221.43 144.665 222.714C143.827 227.276 139.281 231.727 141.197 236.152C142.467 238.652 146.286 239.926 148.825 240.776C154.085 242.795 163.251 240.7 166.308 236.152C167.938 233.727 169.826 227.609 170.799 225.711L171.014 222.701C171.545 215.218 172.018 207.162 170.386 206.028Z" fill="white"/>
<path fill-rule="evenodd" clip-rule="evenodd" d="M104.912 144.288C105.418 143.84 106.167 144.403 105.845 145.009C105.123 146.37 104.381 147.659 103.412 148.862C102.824 149.592 102.194 150.282 101.556 150.964C103.194 152.381 104.598 154.141 105.925 155.791C107.621 157.9 109.225 160.099 111.129 162.029C113.007 163.933 115.084 165.264 117.594 166.151L118.101 166.327C120.623 167.213 123.319 168.409 124.741 170.798C125.021 171.269 124.457 171.851 123.982 171.557C121.512 170.027 118.609 169.719 115.92 168.708C113.323 167.732 111.058 166.229 109.057 164.31C107.06 162.395 105.383 160.216 103.634 158.083C101.904 155.974 100.041 154.172 97.9953 152.388C94.8378 154.513 91.2336 155.438 87.5687 156.346L87.1687 156.445C83.4994 157.354 79.8497 158.409 76.4073 159.992C73.3723 161.387 70.3871 163.053 67.9148 165.323C65.2904 167.733 63.2479 170.81 61.3784 173.819C57.1966 180.552 54.2566 187.928 51.6683 195.394C48.9764 203.159 46.7247 211.08 44.9069 219.095C43.9824 223.172 43.2316 227.278 42.6145 231.413C42.3174 233.404 42.0535 235.4 41.8218 237.4C41.5744 239.536 41.5176 241.733 40.8626 243.786C40.5818 244.666 39.9189 245.032 39.2553 245L39.1205 246.687C38.9418 248.935 38.7752 251.184 38.7189 253.446C38.6255 257.208 38.6679 260.959 38.9383 264.712L38.9766 265.224C39.1892 267.964 39.6641 271.042 41.7233 273.048C43.8559 275.126 47.1354 275.779 50.0097 275.816C56.7041 275.903 63.1482 272.739 69.0721 269.963C75.1731 267.104 81.1074 263.931 86.8995 260.489C89.8492 258.736 92.7671 256.925 95.6477 255.061C97.0613 254.146 98.4649 253.216 99.858 252.271C100.656 251.729 101.412 251.136 102.224 250.655C101.826 250.284 101.649 249.702 101.982 249.193C99.6339 247.153 98.6566 243.515 98.5423 240.57C98.4499 238.194 98.7996 235.824 99.0755 233.47C99.2147 232.282 99.3867 231.097 99.5652 229.916C99.6358 229.449 99.6897 228.949 99.7721 228.456C93.4313 231.942 86.9128 235.047 80.2218 237.804C76.7921 239.218 73.3184 240.489 69.7968 241.654L69.083 241.889C65.7463 242.982 62.3297 244.014 58.8802 244.638C58.6957 244.672 58.5459 244.399 58.7428 244.313C62.1045 242.829 65.5826 241.577 68.9948 240.21L69.5555 239.982V239.982C69.4911 239.978 69.4243 239.969 69.3546 239.953C67.3535 239.47 65.368 238.725 63.4053 238.098C61.5837 237.516 59.5372 237.151 57.8346 236.273C57.7036 236.205 57.7769 236.023 57.9045 236.014C59.8182 235.881 61.8956 236.439 63.7718 236.768L64.4767 236.891C65.6575 237.099 66.8645 237.323 68.0395 237.615C68.0819 237.222 68.3018 236.826 68.6147 236.594C72.0578 234.043 71.7081 228.892 72.0764 225.093L72.3494 222.272C72.8297 217.336 73.3378 212.4 74.1098 207.501C74.151 207.24 74.5556 207.315 74.5573 207.562C74.5971 213.635 74.1388 219.68 73.9091 225.743L73.8735 226.738C73.7466 230.48 73.647 234.365 71.2915 237.244C71.6209 237.051 72.0662 237.051 72.333 237.369C72.6609 237.759 72.8502 238.197 72.8443 238.627C74.9728 237.735 77.0921 236.819 79.2009 235.884C85.9811 232.879 92.6192 229.516 99.0816 225.878C99.7771 225.486 100.438 225.794 100.782 226.31L100.832 226.303C100.84 226.302 100.848 226.301 100.857 226.301L100.906 226.299C100.908 226.299 100.91 226.299 100.912 226.299C101.822 225.799 103.061 226.155 103.841 226.884C103.865 226.906 103.884 226.93 103.905 226.953C104.893 226.509 105.816 225.91 106.653 225.151C108.367 223.597 109.819 221.676 111.084 219.749C113.415 216.2 115.394 212.254 118.542 209.333C121.1 206.96 124.271 205.482 127.598 204.555C127.584 204.458 127.621 204.354 127.689 204.285C127.859 204.11 127.981 204.049 128.202 204.156C128.22 204.164 128.23 204.176 128.237 204.189L128.562 203.634C128.739 203.333 128.921 203.029 128.984 202.95C129.362 202.474 129.751 202.002 130.145 201.54C130.814 200.757 131.577 199.985 132.46 199.442C134.393 198.254 136.425 198.926 138.412 199.576C139.613 199.968 140.81 200.373 142.009 200.772L142.133 200.812C143.026 201.099 144.072 201.351 144.472 202.298C144.63 202.673 144.655 203.062 144.581 203.44C153.071 201.28 162.5 202.272 170.784 204.807C171.102 204.905 171.42 205.166 171.487 205.51C172.436 210.38 172.859 215.374 172.429 220.326C172.059 224.602 171.112 228.791 169.327 232.705L169.226 232.926C167.549 236.553 164.891 241.025 160.832 242.162C158.381 242.848 155.671 242.444 153.171 242.318C150.741 242.195 148.258 242.178 145.852 241.796C143.709 241.455 141.831 240.494 140.507 238.751C139.364 237.247 138.762 235.429 138.269 233.621C138.044 233.693 137.82 233.77 137.599 233.856C136.668 234.22 135.879 234.807 135.166 235.498C133.66 236.957 132.491 238.729 130.916 240.121C129.489 241.382 127.864 242.362 126.12 243.116C122.507 244.678 118.631 245.302 114.81 246.129L114.543 246.187C111.666 246.819 108.729 247.594 106.19 249.093C106.14 249.534 105.939 249.949 105.617 250.221C106.065 250.642 106.255 251.308 105.861 251.933C104.762 253.679 102.868 254.672 101.168 255.788L101.058 255.861C99.3852 256.97 97.6983 258.057 95.9976 259.122C92.5402 261.288 89.0105 263.334 85.431 265.29C79.6737 268.437 73.7929 271.405 67.8056 274.097C68.1649 275.866 68.0336 277.689 68.3037 279.47L68.3452 279.724C68.4605 280.385 68.3047 280.937 67.8497 281.369L67.8016 281.413L67.8024 281.407L67.7597 281.447L67.7455 281.459L67.7502 281.455C67.6978 281.503 67.6437 281.548 67.5885 281.586L67.5183 281.631V281.631C67.08 281.897 66.5159 281.894 66.0672 281.659L66.0159 281.631L65.9297 281.582C65.3369 281.24 64.9281 280.395 65.174 279.724C65.7785 278.074 66.0068 276.312 66.565 274.651L66.1222 274.849V274.849L65.5386 275.104C59.2263 277.834 52.2147 280.134 45.3371 278.272C42.2982 277.45 39.4579 275.709 37.9374 272.873C36.4412 270.082 36.2297 266.841 36.1503 263.736C36.0523 259.904 36.2576 256.014 36.7628 252.214C37.1018 249.664 37.5119 247.066 38.1445 244.542C37.8191 244.255 37.5799 243.843 37.5168 243.333C37.2183 240.922 37.7407 238.416 38.0606 236.019C38.373 233.677 38.7183 231.34 39.1087 229.011C39.8969 224.307 40.8128 219.612 41.879 214.963C43.7766 206.688 46.2825 198.561 49.2994 190.627L49.5636 189.936C52.3514 182.685 55.5792 175.589 60.0738 169.219C62.2239 166.171 64.4967 163.408 67.5347 161.212C70.3809 159.154 73.5914 157.672 76.9045 156.54C80.2211 155.407 83.6302 154.647 87.0994 154.175C90.6227 153.695 94.3416 153.401 97.6283 151.955C97.2126 151.21 97.5694 150.203 98.2691 149.74C100.624 148.184 102.801 146.159 104.912 144.288ZM180.294 211.967C180.392 211.817 180.627 211.912 180.583 212.089C179.438 216.783 178.363 221.487 177.661 226.27C176.393 234.904 176.627 243.65 176.73 252.348L176.735 252.797C176.789 257.482 176.863 262.167 177.017 266.85C177.096 269.217 177.25 271.607 177.166 273.975C177.12 275.26 176.778 276.475 176.657 277.744C176.551 278.854 176.645 279.98 176.698 281.092C176.734 281.831 175.644 281.799 175.569 281.092L175.475 280.177C175.351 279.019 175.199 277.868 174.82 276.76C174.364 275.427 174.145 274.118 173.987 272.718C173.744 270.573 173.636 268.407 173.543 266.248L173.479 264.754C173.088 255.728 173.102 246.66 173.734 237.644L173.781 237C174.407 228.478 175.493 219.269 180.294 211.967ZM155.88 158.253C155.581 158.13 155.686 157.678 156.017 157.757L156.62 157.9C161.034 158.958 165.368 160.104 169.489 162.072C173.611 164.042 177.102 166.982 179.876 170.597C185.267 177.625 187.508 186.166 189.276 194.698C191.242 204.18 193.032 213.696 195.014 223.174L195.383 224.94C197.217 233.768 198.949 242.601 200.226 251.533L200.317 252.181C201.604 261.367 202.379 270.87 200.974 280.08C200.696 281.902 197.666 281.448 197.784 279.648C198.126 274.444 198.371 269.267 198.135 264.052C197.898 258.835 197.408 253.641 196.679 248.47C196.066 244.118 195.151 239.82 194.342 235.503L194.215 234.821C193.537 231.149 192.839 227.481 192.141 223.813L191.099 218.32C189.538 210.096 187.946 201.864 186.147 193.692L186.04 193.211C184.28 185.348 181.684 177.112 176.404 170.868C171.045 164.532 163.374 161.341 155.88 158.253ZM136.409 241.652C136.538 241.364 136.988 241.396 137.127 241.652C137.67 242.654 137.73 243.933 137.833 245.065L137.844 245.181C137.974 246.562 138.09 247.948 138.161 249.333C138.295 251.962 138.359 254.587 138.351 257.22C138.342 259.917 138.288 262.612 138.143 265.306L138.103 266.027C137.971 268.368 137.748 270.979 136.636 273.026C136.232 273.77 135.133 273.551 134.899 272.799C134.132 270.335 134.526 267.414 134.722 264.891L134.875 262.922C135.026 260.953 135.171 258.984 135.285 257.012C135.442 254.315 135.571 251.616 135.695 248.918C135.736 248.041 135.78 247.165 135.826 246.288L135.897 244.974C135.957 243.874 135.952 242.668 136.409 241.652ZM50.1801 245.143L50.5196 244.815C51.5618 243.795 52.8788 242.223 54.4195 242.321C55.0338 242.36 55.4253 242.87 55.2979 243.475C55.0258 244.767 53.7077 245.438 52.7589 246.227C51.7195 247.091 50.7398 248.015 49.7621 248.948C48.8946 249.775 48.0604 250.625 47.2463 251.503L46.9418 251.833C46.65 252.151 44.5717 254.032 44.7964 254.52L44.8087 254.542C44.8712 254.635 44.7671 254.763 44.6633 254.731C43.7659 254.447 43.8218 253.678 44.1611 252.898C44.8131 251.4 45.9548 250.014 46.9518 248.735C47.9461 247.458 49.0222 246.27 50.1801 245.143V245.143ZM139.661 207.575C138.967 205.934 136.41 205.968 134.959 206.067C131.304 206.314 127.349 207.239 124.097 208.948C120.726 210.719 118.455 213.558 116.422 216.697L116.327 216.845C114.347 219.925 112.439 223.571 109.338 225.688C107.758 226.767 105.914 227.753 103.997 228.179C103.865 228.411 103.652 228.594 103.373 228.661L103.243 228.69C102.697 228.811 101.849 228.944 101.116 228.864C101.121 229.223 101.117 229.579 101.126 229.918C101.152 230.892 101.163 231.869 101.163 232.843C101.164 234.883 101.054 236.928 101.139 238.968C101.215 240.773 101.469 242.659 102.336 244.272C102.971 245.456 103.809 246.239 104.822 246.987C107.312 245.469 110.127 244.543 112.985 243.847C116.441 243.006 119.979 242.445 123.356 241.304C124.982 240.754 126.545 240.036 127.961 239.059C129.463 238.023 130.611 236.62 131.792 235.248L131.977 235.035C133.182 233.652 134.497 232.329 136.2 231.579C137.667 230.934 139.601 230.819 140.883 229.819C141.554 229.296 141.61 228.538 141.681 227.761C140.859 227.878 139.99 227.69 139.171 227.594L138.747 227.544C137.973 227.452 137.216 227.351 136.454 227.154C136.313 227.117 136.313 226.904 136.454 226.867C137.355 226.635 138.247 226.536 139.171 226.427L139.388 226.4C140.223 226.291 141.101 226.125 141.921 226.309C142.068 225.75 142.28 225.215 142.578 224.68C142.996 223.928 143.787 223.076 143.894 222.198C143.926 221.936 143.865 221.626 143.741 221.394L143.699 221.315C143.647 221.222 143.585 221.128 143.495 221.07C143.485 221.082 143.464 221.095 143.418 221.109C142.788 221.308 142.238 220.999 141.946 220.523C140.706 220.677 139.353 220.625 138.191 220.677L137.016 220.734C135.76 220.791 134.447 220.816 133.267 220.563C133.102 220.527 133.052 220.253 133.217 220.182C134.668 219.562 136.428 219.364 137.981 219.125C138.849 218.992 139.723 218.89 140.593 218.773C141.172 218.695 141.787 218.566 142.387 218.535C143.892 216.661 143.081 213.704 140.987 212.897C140.224 213.233 139.538 213.038 138.704 212.966C137.872 212.895 137.038 212.846 136.203 212.85C134.529 212.857 132.755 213.298 131.098 213.108C130.828 213.077 130.577 212.718 130.845 212.499C132.114 211.463 133.933 211.126 135.543 210.905L135.877 210.86C136.417 210.789 137.074 210.686 137.755 210.625C137.909 210.324 138.185 210.097 138.6 210.04C138.724 210.023 138.848 210.014 138.972 210.003L138.97 209.991V209.991C139.982 209.942 139.938 208.231 139.661 207.575ZM70.3503 239.579C70.3324 239.606 70.3128 239.633 70.292 239.658L70.2599 239.695L70.4264 239.628L70.3503 239.579V239.579ZM157.327 203.908C153.066 203.45 148.799 203.547 144.525 203.67C144.183 204.788 142.993 205.741 141.84 205.777C142.743 207.152 142.836 209.013 142.203 210.471C143.547 211.006 144.706 211.968 145.409 213.338C146.384 215.236 146.256 217.349 145.292 219.103C146.115 219.848 146.6 221.058 146.552 222.198C146.497 223.469 145.74 224.555 145.111 225.608C144.43 226.746 144.408 227.748 144.199 229.023C143.893 230.889 142.635 232.02 141.017 232.727L141.103 233.066C141.52 234.691 142.039 236.405 143.232 237.593C144.766 239.122 147.146 239.108 149.173 239.204L149.271 239.209C151.127 239.302 152.982 239.411 154.838 239.516L156.229 239.594C158.366 239.711 160.417 239.726 162.161 238.313C165.009 236.006 166.96 232.19 168.196 228.811C170.789 221.719 170.82 213.936 169.63 206.549C165.638 205.262 161.496 204.356 157.327 203.908ZM121.889 215.675L121.921 215.677C122.798 215.777 123.401 216.488 123.616 217.331C123.927 218.556 123.774 219.664 124.525 220.77C125.296 221.908 125.771 222.819 125.883 224.224C125.929 224.802 125.908 225.379 126.037 225.945L126.13 226.341C126.229 226.764 126.31 227.171 126.261 227.625C126.216 228.039 126.014 228.362 125.599 228.495C124.246 228.928 123.202 227.93 122.852 226.669C122.551 225.58 122.954 224.282 122.528 223.259C122.292 222.692 121.857 222.218 121.611 221.647C121.367 221.081 121.245 220.49 121.206 219.875C121.131 218.712 122.16 217.314 121.586 216.26C121.464 216.035 121.602 215.668 121.889 215.675ZM103.921 203.67C104.837 203.484 105.876 203.057 106.779 203.412C107.244 203.595 107.473 204.161 107.081 204.555C106.4 205.238 105.41 205.276 104.492 205.437L104.411 205.451C103.327 205.652 102.24 205.843 101.152 206.023C99.1042 206.362 97.0519 206.662 94.9925 206.917C92.8773 207.179 90.7561 207.412 88.632 207.588L87.8097 207.655C86.0155 207.799 84.1485 207.907 82.388 207.632C82.1322 207.592 82.1734 207.219 82.388 207.154C84.3167 206.57 86.4323 206.414 88.4263 206.166C90.5461 205.903 92.6624 205.625 94.7732 205.296C96.8806 204.966 98.9852 204.613 101.082 204.222C102.03 204.046 102.976 203.862 103.921 203.67ZM136.974 201.795C136.171 201.51 135.286 201.089 134.415 201.23C132.913 201.473 131.576 202.937 130.387 203.901L130.984 203.785C134.039 203.198 138.084 202.565 140.649 204.508C140.655 204.497 140.66 204.486 140.668 204.475C140.875 204.16 141.114 203.915 141.376 203.646C141.401 203.622 141.425 203.598 141.449 203.573L141.59 203.423L141.267 203.311C140.576 203.066 139.756 202.75 139.626 202.704L139.617 202.701C138.735 202.402 137.852 202.106 136.974 201.795ZM111.875 137.74C111.75 136.123 114.266 136.136 114.391 137.74C114.663 141.242 113.875 144.711 112.179 147.782C112.167 147.804 112.153 147.824 112.14 147.845C113.201 148.397 114.273 148.927 115.37 149.4C116.772 150.006 118.201 150.557 119.656 151.025C120.972 151.449 122.593 151.616 123.699 152.497C126.031 154.356 125.155 158.212 124.706 160.712L124.636 161.106C124.413 162.392 124.251 163.712 124.793 164.947C125.372 166.265 126.543 167.243 127.587 168.187L127.798 168.378C128.723 169.221 129.78 170.246 130.459 171.389C131.078 170.108 131.923 169.061 132.816 167.882C133.453 167.041 132.999 166.763 132.542 165.942C132.101 165.151 131.886 164.308 132.024 163.405C132.278 161.739 133.609 160.536 134.934 159.631C136.499 158.564 138.246 157.773 139.863 156.78C143.187 154.739 146.425 152.406 149.341 149.815C149.422 149.744 149.561 149.838 149.497 149.935C147.193 153.441 144.491 156.47 141.171 159.042C139.825 160.084 138.411 160.949 136.987 161.858L136.578 162.121C136.006 162.491 135.293 162.987 135.035 163.617C134.775 164.251 135.329 164.73 135.628 165.256C136.576 166.924 136.118 168.481 134.995 169.896L134.942 169.961C133.826 171.338 132.979 172.618 132.574 174.377C131.705 178.156 132.916 182.091 134.184 185.638L134.234 185.778C134.92 187.69 135.649 189.588 136.245 191.53L136.409 192.067C136.949 193.855 137.392 195.617 136.786 197.455C136.58 198.08 135.728 198.228 135.374 197.639C134.126 195.565 133.814 193.069 133.032 190.789C132.269 188.566 131.393 186.384 130.657 184.152C129.708 181.279 129.073 178.186 129.418 175.172C129.408 175.154 129.397 175.138 129.388 175.119L129.147 174.591C128.488 173.16 127.852 171.911 126.655 170.77C125.406 169.58 124.05 168.527 123.067 167.087C120.932 163.959 122.253 160.479 122.511 157.059L122.54 156.639C122.587 155.929 122.613 154.964 122.149 154.472C121.627 153.919 120.404 153.778 119.712 153.533C117.923 152.9 116.161 152.162 114.482 151.276C112.884 150.433 111.336 149.501 109.895 148.41L109.164 147.86C108.012 146.99 106.816 146.04 106.044 144.855C105.955 144.719 106.106 144.499 106.268 144.564C107.557 145.088 108.735 145.921 109.942 146.645C109.961 146.601 109.983 146.556 110.007 146.512C111.5 143.809 112.114 140.814 111.875 137.74ZM153.069 156.258C153.583 154.848 155.925 154.957 155.831 156.632C155.76 157.919 155.214 159.08 154.714 160.248L154.661 160.373C154.146 161.59 153.55 162.733 152.838 163.849C151.477 165.981 149.882 167.96 148.179 169.828C146.635 171.521 144.609 172.557 142.274 172.385C141.29 172.312 140.297 172.062 139.434 171.57C138.41 170.986 137.298 169.232 135.992 169.657C135.865 169.698 135.748 169.513 135.857 169.425C137.365 168.21 139.077 170.094 140.521 170.548C142.697 171.232 144.93 170.476 146.33 168.716C147.792 166.879 149.138 164.822 150.367 162.821C150.991 161.805 151.56 160.751 152.052 159.665C152.549 158.568 152.661 157.376 153.069 156.258ZM149.562 147.584C149.498 147.389 149.74 147.204 149.911 147.315C150.902 147.96 151.761 148.813 152.675 149.561C153.689 150.39 154.711 151.203 155.749 152.003C157.261 153.169 155.507 155.316 154.175 154.042C152.353 152.299 150.358 150.02 149.562 147.584ZM144.121 140.761C144.523 139.208 146.905 139.849 146.558 141.384L146.546 141.43C145.889 143.966 146.825 146.547 148.823 148.191L148.897 148.251C150.161 149.263 148.37 151.032 147.118 150.03C144.386 147.842 143.249 144.125 144.121 140.761Z" fill="black"/>
<path fill-rule="evenodd" clip-rule="evenodd" d="M157.804 86.4626C157.992 84.5685 155.947 79.5155 155.996 80.5404C152.717 75.0595 146.318 72.904 140.796 71.0947C129.075 66.9002 119.923 71.9659 111.687 80.9439C106.826 85.867 102.199 91.3663 99.7587 98.1815C94.9573 111.182 102.154 126.007 113.099 132.218C113.982 132.736 114.945 133.228 115.786 133.854C120.31 136.687 125.623 137.668 130.665 138.901C140.096 141.238 151.942 140.124 157.5 130.39C161.27 123.481 160.269 115.106 159.974 107.44C159.53 100.722 158.752 93.1308 157.804 86.4626Z" fill="white"/>
<path fill-rule="evenodd" clip-rule="evenodd" d="M107.389 67.2909C113.5 61.0985 122.531 58.0972 130.789 58.6221C135.261 58.9065 139.572 60.1213 143.614 62.2084C144.878 62.8611 146.11 63.6251 147.245 64.5247C148.012 64.9123 148.761 65.3317 149.486 65.7878C153.121 68.0701 155.93 71.5269 157.728 75.6275C158.587 77.5847 159.264 79.6485 159.648 81.775L159.709 82.1251C159.905 83.1921 160.292 84.5981 159.803 85.5966C159.478 86.2587 158.798 86.676 158.155 86.6199C158.294 87.2335 158.462 87.8469 158.569 88.4644L158.86 90.148C158.908 90.4286 158.956 90.7092 159.004 90.9898C159.285 92.6622 159.544 94.3326 159.751 96.0181C160.184 99.5277 160.576 103.045 160.921 106.567C161.168 109.086 161.4 111.608 161.625 114.129L161.759 115.642C161.991 118.246 162.172 120.872 162.015 123.488C161.778 127.411 160.665 130.99 158.505 133.902C158.711 134.438 158.78 135.043 158.935 135.71C159.149 136.633 159.429 137.537 159.726 138.434C159.865 138.786 160.005 139.138 160.142 139.491L160.505 140.427V140.427L160.788 141.04C161.094 141.708 161.391 142.385 161.579 143.075C162.8 143.782 163.797 144.935 163.846 146.514C163.889 147.941 163.206 149.453 162.051 150.18C160.912 150.899 159.739 150.616 158.648 150.067C157.697 150.367 156.679 150.405 155.737 150.085C155.012 150.797 154.077 151.288 153.04 151.421C151.476 151.622 149.992 151.148 148.558 150.524L148.458 150.48C148.413 150.461 148.368 150.44 148.325 150.42C146.675 150.334 145.032 149.627 143.862 148.373C143.481 147.968 143.151 147.504 142.886 146.984C141.921 145.092 141.771 142.771 142.72 140.894C142.516 140.904 142.311 140.913 142.107 140.919C139.392 141.003 136.672 140.852 133.964 140.659L133.325 140.612C131.573 140.475 128.988 140.153 128.939 137.798C128.932 137.497 129.218 137.271 129.481 137.351C130.476 137.656 131.455 138.135 132.487 138.307C133.836 138.534 135.234 138.558 136.597 138.64L136.989 138.664C139.739 138.827 142.587 138.926 145.291 138.335C147.31 137.896 149.414 137.095 151.264 136.103C153.04 135.15 154.653 133.902 155.954 132.272C158.821 128.688 159.2 123.632 159.06 119.097C158.891 113.681 158.304 108.273 157.973 102.865L157.823 100.435C157.7 98.4093 157.587 96.3804 157.54 94.3534C157.506 92.8736 157.528 91.3902 157.535 89.9104C157.538 89.1715 157.53 88.4289 157.545 87.6899C157.554 87.2746 157.599 86.8687 157.632 86.4626C157.48 86.3767 157.338 86.2568 157.211 86.098C157.11 85.9726 157.033 85.8398 156.979 85.7051C156.336 85.501 156.037 85.2298 155.619 84.6145C155.267 84.0963 154.869 83.6174 154.443 83.1685C153.535 82.2144 152.498 81.4343 151.402 80.7551C149.136 79.3504 146.655 78.4113 144.152 77.6405C140.321 76.462 136.342 75.8559 132.454 74.9091C131.382 76.5292 130.247 78.1007 129.06 79.6216C125.354 84.3657 121.106 88.5952 116.553 92.3667C115.627 93.1355 114.688 93.8932 113.736 94.6282C112.481 96.7021 111.213 98.7661 109.926 100.816L109.373 101.694L109.364 101.711C109.288 101.836 109.216 101.961 109.144 102.087C108.99 102.352 108.817 102.609 108.634 102.858C108.515 103.046 108.395 103.235 108.272 103.424C108.507 103.561 108.721 103.714 108.888 103.885C109.23 104.234 109.173 104.79 108.888 105.145C107.97 106.294 106.517 104.797 105.461 104.399C104.317 104.777 103.363 106.253 102.888 107.381C102.205 109.007 101.93 110.967 102.239 112.727C102.522 114.336 103.285 115.726 104.553 116.598C104.598 116.628 104.646 116.66 104.693 116.687C104.695 116.691 104.695 116.691 104.696 116.689C104.74 116.719 104.784 116.747 104.829 116.774C105.425 117.129 106.079 117.339 106.757 117.389C107.145 117.419 107.551 117.396 107.939 117.447C108.338 117.497 108.666 117.696 109.049 117.801C109.471 117.918 109.744 118.534 109.478 118.947C109.347 119.151 109.223 119.346 109.09 119.52C109.527 120.077 109.906 120.693 110.25 121.278C110.719 122.081 111.135 122.932 111.515 123.8C111.865 124.299 112.2 124.808 112.524 125.328C114.362 128.28 115.768 131.569 116.633 135.005C117.489 138.404 118.024 142.222 117.232 145.693C116.502 148.884 114.371 151.527 111.216 151.698C110.558 151.733 109.91 151.653 109.301 151.472C107.964 152.367 106.307 152.818 104.823 152.87C103.623 152.913 102.31 152.639 101.33 151.853C100.167 152.401 98.9061 152.712 97.8095 152.783C96.5823 152.863 95.2981 152.5 94.2977 151.782C93.3458 152.666 92.3187 153.412 91.1516 153.924C89.1447 154.803 86.7563 154.694 84.9185 153.379C83.0772 152.062 82.1401 149.698 82.7027 147.352C83.2204 145.19 84.8477 143.603 86.3767 142.237L86.6788 141.969C88.1911 140.631 89.7184 139.336 90.6891 137.45C91.7194 135.451 92.0956 133.127 92.1974 130.864C92.4183 125.88 91.4829 120.942 91.1982 115.984C90.9048 110.864 91.0688 105.729 91.7125 100.646C92.9636 90.7728 96.2562 81.0939 102.213 73.3976C103.075 72.284 103.998 71.2226 104.97 70.2165C105.713 69.1629 106.516 68.1754 107.389 67.2909ZM186.628 123.665C186.661 123.667 186.692 123.669 186.721 123.682C186.741 123.691 186.758 123.705 186.773 123.721L186.918 123.878C186.97 123.935 186.966 124.021 186.918 124.077C186.876 124.128 186.799 124.129 186.749 124.09L186.735 124.077L186.585 123.914C186.568 123.894 186.554 123.874 186.547 123.847C186.54 123.82 186.54 123.791 186.538 123.762C186.537 123.712 186.582 123.665 186.628 123.665ZM105.663 108.382C107.047 107.927 108.707 109.008 109.532 110.15C109.946 110.722 110.063 111.506 109.532 112.069C109.08 112.548 108.196 112.635 107.759 112.069C107.264 111.423 106.86 110.529 106.153 110.116C105.385 109.667 104.356 109.779 104.175 110.873C104.144 111.059 103.899 110.997 103.889 110.83C103.821 109.723 104.717 108.69 105.663 108.382Z" fill="black"/>
<path fill-rule="evenodd" clip-rule="evenodd" d="M142.522 127.204C141.362 126.691 140.327 125.835 139.57 124.742C139.307 124.362 139.239 123.961 139.294 123.594C139.356 123.181 139.581 122.807 139.889 122.556C140.197 122.305 140.582 122.181 140.955 122.244C141.279 122.299 141.601 122.491 141.856 122.89L141.909 122.969C142.359 123.629 142.945 124.17 143.613 124.519C144.257 124.856 144.977 125.013 145.722 124.921C147.142 124.747 148.12 123.915 149.159 122.786C149.288 122.643 149.417 122.496 149.547 122.346C149.629 122.211 149.742 122.124 149.868 122.078C150.008 122.027 150.167 122.03 150.312 122.085C150.452 122.138 150.577 122.238 150.661 122.372C150.74 122.499 150.785 122.655 150.771 122.836C150.676 124.007 150.111 125.052 149.309 125.872C148.418 126.783 147.237 127.414 146.125 127.635C144.9 127.878 143.652 127.704 142.522 127.204V127.204ZM146.703 109.141C148.006 110 149.992 112.002 148.59 114.131C146.94 116.007 144.564 113.855 143.393 112.882C142.308 112.128 141.088 114.068 142.095 114.949C150.555 121.738 153.989 109.365 147.362 108.131C146.633 107.995 146.362 108.875 146.703 109.141ZM131.543 101.243C131.687 99.3053 134.409 98.8654 134.679 100.782C134.922 102.5 134.636 104.077 133.923 105.623C133.241 107.101 131.527 106.411 131.398 105.066C131.224 103.263 131.453 102.448 131.543 101.243ZM152.262 100.385C152.642 99.8462 153.19 99.4784 153.846 99.6863C155.897 100.336 155.293 103.492 154.572 105.029C154.181 105.863 152.916 106.075 152.344 105.34C151.412 104.142 150.966 101.75 152.151 100.57C152.183 100.509 152.219 100.447 152.262 100.385ZM133.894 92.7654L134.218 92.704C135.22 92.5161 136.466 92.3355 137.175 93.209C137.551 93.6722 137.681 94.5331 137.175 94.9764C136.286 95.7565 135.303 95.4542 134.238 95.5202C133.36 95.5749 132.516 95.7324 131.67 95.9944C129.815 96.5693 128.303 97.6188 126.718 98.7711C126.51 98.9223 126.298 98.634 126.397 98.4232C127.312 96.4808 129.085 94.8853 130.861 93.9127C131.808 93.3936 132.846 92.963 133.894 92.7654ZM150.393 91.8954L150.641 91.9504C153.339 92.5618 156.845 93.7833 158.123 96.6566C158.172 97.0629 158.12 97.1499 158.078 97.2068L158.064 97.2258C158.03 97.2743 158.002 97.3413 157.84 97.3966C157.795 97.385 157.749 97.3726 157.703 97.3596C157.118 97.1932 156.654 96.9639 156.205 96.7261L155.719 96.4663C155.155 96.1663 154.585 95.8772 153.982 95.6638C152.694 95.2085 151.37 94.8877 150.025 94.7165C149.733 94.6794 149.452 94.5727 149.231 94.3899C149.021 94.2164 148.86 93.9762 148.787 93.6569C148.692 93.2436 148.719 92.9307 148.924 92.5579C149.077 92.278 149.298 92.0839 149.55 91.9725C149.808 91.8589 150.101 91.8321 150.393 91.8954Z" fill="black"/>
<path fill-rule="evenodd" clip-rule="evenodd" d="M147.177 136.396C147.177 136.396 139.516 137.616 136.087 135.892C132.669 134.173 129.344 132.509 126.242 130.232C123.066 127.899 120.37 125.129 118.446 121.583C116.656 118.283 115.169 114.782 113.671 111.307C113.583 111.104 112.724 109.086 112.42 108.409C111.952 107.36 110.585 107.689 110.585 109.318C110.585 110.947 110.518 123.285 113.145 128.138C115.514 132.521 119.53 135.584 123.519 138.257C127.934 141.213 133.798 144.408 139.064 145.253C143.831 146.016 149.27 143.872 152.721 140.338C156.33 136.643 157.351 131.622 159.213 126.814C159.629 125.739 158.155 125.091 157.722 126.148C156.908 128.138 147.177 136.396 147.177 136.396Z" fill="black"/>
<path fill-rule="evenodd" clip-rule="evenodd" d="M159.397 112.709C156.561 114.221 152.605 111.991 150.698 109.656C150.004 108.805 149.468 106.372 149.735 104.829C150.458 100.65 153.176 98.1425 156.044 97.2861C160.02 96.0986 164.022 99.1068 163.555 102.657C163.113 106.021 162.443 110.902 159.397 112.709M140.095 104.682C139.868 109.236 136.564 113.222 132.615 114.403C126.252 116.368 123.107 111.418 121.683 106.084C121.542 105.554 121.209 103.937 122.102 102.55C125.613 97.092 134.156 98.0223 138.423 99.5205C139.672 100.843 140.182 102.75 140.095 104.682M162.478 96.8274C162.476 96.8301 162.474 96.8324 162.472 96.8351C162.457 96.8253 162.443 96.8153 162.428 96.8057C162.444 96.8132 162.462 96.8197 162.478 96.8274M167.801 97.3538C167.432 92.7171 154.288 94.4925 152.751 94.8725C148.557 96.2378 144.935 99.9521 140.246 98.3194C135.387 92.3248 119.026 94.0439 115.596 97.0976C114.947 96.8156 114.158 96.9669 113.321 97.2329C109.026 97.0612 89.4154 98.7002 93.4265 104.768C94.0353 105.236 94.6435 104.76 94.6603 103.797C115.57 95.4429 113.543 103.268 116.023 102.354C116.402 102.475 116.797 102.551 117.142 102.632C119.062 103.315 119.714 103.104 119.966 105.489C121.703 123.904 143.859 117.548 142.042 102.443C143.841 102.333 145.415 101.472 147.317 102.313C148.638 116.542 158.983 117.117 162.097 112.184C164.445 108.76 163.514 103.594 166.741 100.901C168.015 102.081 168.097 98.0981 167.801 97.3538" fill="black"/>
</svg>
