<svg width="247" height="324" viewBox="0 0 247 324" fill="none" xmlns="http://www.w3.org/2000/svg">
<path fill-rule="evenodd" clip-rule="evenodd" d="M241.496 179.325C238.48 179.621 235.463 179.917 232.446 180.213C217.998 181.318 203.555 183.624 189.218 185.008C188.861 184.427 188.162 184.523 187.738 184.926C186.307 184.801 184.704 183.707 183.408 184.845C183.366 184.839 183.324 184.832 183.281 184.828C180.974 180.398 179.379 175.672 177.831 170.94C176.843 168.031 175.513 165.215 173.057 163.261C168.864 160.35 159.258 154.446 154.335 154.694C154.254 153.813 153.843 152.904 153.168 152.317C154.655 149.781 148.71 148.126 148.29 148.42C148.559 139.947 144.575 132.59 135.791 130.902C127.921 129.262 116.728 128.986 112.495 137.214C112.03 137.161 107.274 137.137 106.814 137.188C106.098 136.282 98.2413 144.871 101.462 147.862C72.6716 160.603 56.3015 159.082 48.3329 194.9C47.2556 198.264 47.1772 201.946 46.0396 205.236C41.9925 214.69 38.7099 224.757 37.893 235.043C35.9198 235.549 35.6929 239.03 37.9784 239.533C38.8514 239.726 39.5814 239.988 40.218 240.487C39.7204 248.917 41.7584 268.174 43.0425 268.115C45.6609 276.451 57.3401 278.804 65.6086 275.874C64.1832 278.557 65.6086 280.243 65.6086 281.677C95.3608 282.803 127.892 282.154 157.636 283.699C161.44 283.645 165.442 284.633 169.195 284.064C171.484 283.515 171.487 279.915 169.166 279.47L179.31 277.266C179.083 277.181 183.491 274.248 186.822 268.767C189.923 262.635 187.813 255.234 189.218 248.565C200.192 247.667 211.348 247.283 222.202 245.424C223.682 249.854 230.088 244.556 232.124 242.425C232.122 242.422 232.119 242.419 232.117 242.415C233.102 242.145 233.892 241.221 233.919 240.128C234.61 239.14 234.755 237.747 234.092 236.793C237.13 219.257 241.761 201.353 243.435 183.653C244.027 183.522 244.584 183.263 245.056 182.863L245.018 182.825C245.819 181.932 245.974 180.391 244.64 179.632C243.563 179.02 242.665 179.21 241.496 179.325Z" fill="white"/>
<path fill-rule="evenodd" clip-rule="evenodd" d="M113.043 135.303C113.94 133.049 116.97 133.925 116.632 136.293C116.43 137.711 115.654 139.209 114.956 140.452C114.388 141.464 113.741 142.451 112.862 143.209C114.426 144.669 116.048 146.074 117.712 147.409C119.528 148.866 121.437 150.208 123.411 151.442C125.141 152.524 126.95 153.483 128.581 154.718C130.098 155.865 131.479 157.246 132.183 159.048C132.932 160.967 132.606 162.949 132.055 164.867L131.991 165.084C131.428 166.984 130.452 169.274 131.805 171.064C132.493 171.976 133.494 172.621 134.359 173.35C135.127 173.997 135.848 174.702 136.509 175.458C137.951 177.107 139.124 178.962 139.864 181.03L139.93 181.218C140.564 183.048 141.028 185.29 140.171 187.087C139.925 187.602 139.132 187.434 138.994 186.933C138.683 185.797 138.699 184.607 138.438 183.454C138.166 182.256 137.714 181.119 137.123 180.042C135.981 177.96 134.434 176.182 132.606 174.679L132.058 174.233C130.632 173.063 129.322 171.82 129.033 169.883C128.723 167.81 129.553 165.835 130.087 163.873C130.459 162.505 130.581 161.194 130.178 159.959C129.687 160.761 129.017 161.522 128.487 162.201C127.431 163.554 126.366 164.899 125.303 166.246C124.213 167.627 123.15 169.03 122.138 170.47C121.685 171.114 121.237 171.762 120.791 172.41C120.455 172.897 119.987 173.384 119.621 173.881C119.71 174.147 119.703 174.454 119.542 174.671C117.602 177.294 114.841 171.822 114.121 170.439C112.655 167.623 111.564 164.632 110.093 161.816C108.568 158.898 106.833 156.058 104.898 153.393C103.728 151.782 102.416 150.268 101.346 148.605C98.8238 150.893 95.5052 152.427 92.4571 153.817C89.108 155.345 85.6286 156.593 82.1948 157.918L81.1805 158.312C75.264 160.622 69.2029 163.16 64.2852 167.263C58.5064 172.085 55.0876 178.805 52.5425 185.764C49.6126 193.775 47.1887 202.002 44.9292 210.225C43.773 214.431 42.6759 218.657 41.6445 222.897C40.7356 226.632 39.9822 230.404 38.9301 234.101C41.0639 234.025 43.4975 234.851 45.3192 235.09C53.6218 236.177 61.8127 237.91 69.6514 240.911C70.6196 241.282 70.8997 242.249 70.6889 243.033C71.2473 242.875 71.8052 242.716 72.3636 242.559C71.7518 241.621 72.0438 239.945 72.0919 238.905L72.0949 238.834C72.1443 237.449 72.2945 236.062 72.3919 234.68C72.5774 232.045 72.8188 229.428 73.1398 226.808L73.2218 226.153C73.5856 223.302 73.8545 220.435 74.2515 217.589L74.2984 217.264C74.108 216.535 73.8864 215.816 73.6538 215.1C73.034 213.193 72.1591 211.397 71.3924 209.55C71.302 209.332 71.6117 209.207 71.7564 209.338C73.0549 210.506 74.0863 211.989 74.9149 213.539C74.9292 213.466 74.9419 213.393 74.9569 213.32L75.0515 212.854C75.2846 211.719 75.5682 210.524 76.2645 209.603C76.3386 209.505 76.4852 209.485 76.5554 209.603C77.2217 210.731 77.2963 212.16 77.3988 213.443C77.5147 214.895 77.5293 216.366 77.5088 217.822C77.4689 220.667 77.2684 223.521 77.1087 226.361C76.952 229.153 76.6443 231.909 76.2477 234.673L76.1723 235.192C75.9785 236.507 75.8198 237.839 75.5641 239.146L75.4918 239.502C75.3552 240.15 75.2711 241.063 74.999 241.822C81.9999 239.869 89.0117 237.96 96.0368 236.084C101.114 234.729 106.197 233.394 111.277 232.05C111.546 231.566 111.879 231.115 112.296 230.712C113.669 229.382 115.488 228.788 117.156 229.812C117.292 229.896 117.303 230.108 117.156 230.189C116.836 230.363 116.516 230.543 116.201 230.729L119.252 229.903C121.532 229.285 123.84 228.512 126.174 228.081C130.472 225.959 135.096 224.423 139.624 222.905L140.158 222.724C142.476 221.934 144.875 221.048 147.27 220.61C149.024 220.289 151.082 220.676 151.788 222.474C152.68 223.062 153.52 223.754 154.331 224.434C154.917 224.926 155.479 225.448 156.05 225.957L156.155 226.05C156.622 226.455 156.992 226.727 157.107 227.372C157.166 227.705 156.955 228.156 156.544 228.112C155.286 227.977 154.264 226.519 153.411 225.649C152.753 224.976 152.089 224.28 151.487 223.54C151.137 223.731 150.656 223.697 150.433 223.274C149.276 221.083 146.107 222.601 144.354 223.121L141.842 223.865C140.586 224.237 139.33 224.612 138.077 224.992C134.633 226.039 131.205 227.21 127.729 228.171C128.04 228.513 127.997 229.121 127.407 229.353C124.686 230.421 121.701 230.973 118.875 231.706C117.09 232.169 115.307 232.634 113.524 233.103C113.218 233.598 112.998 234.159 112.905 234.811C112.565 237.21 113.221 239.978 113.861 242.298L113.957 242.645C114.482 244.51 115.255 246.797 116.864 247.975C117.257 248.262 117.757 248.462 118.261 248.507C121.41 246.885 124.56 245.264 127.711 243.645C128.294 243.345 128.834 243.751 128.965 244.234C130.076 244.052 131.184 243.764 132.194 243.422C133.89 242.845 135.215 241.746 136.806 240.986C139.883 239.515 143.025 241.321 145.781 242.695L146.416 243.007C147.651 243.607 150.222 244.759 150.815 243.119C151.388 241.532 149.575 239.836 148.404 239.122C147.009 238.27 145.384 237.815 143.806 237.435C142.906 237.218 141.994 237.041 141.077 236.912C140.037 236.766 138.962 236.788 137.961 236.45C137.463 236.283 137.386 235.492 137.961 235.361C139.502 235.01 141.343 235.393 142.952 235.784L143.793 235.992C145.414 236.39 147.05 236.889 148.527 237.683C149.601 238.26 150.734 239.137 151.474 240.211C152.117 239.614 152.917 239.634 153.75 239.855L154.203 239.981C154.95 240.188 155.555 240.331 156.282 240.187C156.379 239.658 156.478 239.129 156.583 238.6C157.619 233.398 158.755 228.215 160.009 223.061C162.171 214.17 164.673 205.376 167.493 196.673L167.776 195.803C168.427 193.812 168.95 191.643 169.999 189.815C170.991 188.085 172.58 187.089 174.468 186.562C176.611 185.963 178.862 185.65 181.048 185.246C181.536 185.156 182.024 185.07 182.512 184.981C182.1 184.237 181.792 183.391 181.515 182.742L181.466 182.63C180.87 181.271 180.335 179.888 179.819 178.497L179.432 177.452C178.499 174.934 177.536 172.458 176.224 170.104C174.843 167.626 173.011 165.6 170.728 163.924C166.072 160.505 160.46 158.761 155.944 155.107C155.759 154.958 155.996 154.702 156.184 154.796C159.233 156.329 162.525 157.371 165.697 158.619L166.322 158.866C168.829 159.86 171.375 160.942 173.545 162.552C175.964 164.347 177.869 166.576 179.301 169.226C180.712 171.839 181.615 174.763 182.61 177.554L182.877 178.298C183.278 179.413 183.693 180.524 184.169 181.609C184.546 182.471 185.25 183.454 185.57 184.438C186.446 184.286 187.321 184.134 188.198 183.987C207.184 180.816 226.382 178.953 245.623 178.408C246.375 178.387 246.765 179.105 246.654 179.762C244.807 190.685 243.166 201.645 241.366 212.576C240.58 217.347 239.779 222.114 238.958 226.879C238.543 229.293 238.062 231.698 237.669 234.116C237.351 236.068 237.12 238.036 236.575 239.943C236.085 241.653 235.335 243.302 234.101 244.607C232.772 246.013 230.917 246.694 229.049 247.015C224.308 247.832 219.445 248.165 214.666 248.709L189.219 251.605C189.591 254.986 189.619 258.315 189.448 261.735L189.351 263.603C189.271 265.105 189.176 266.609 188.961 268.096C188.69 269.96 187.838 271.539 186.582 272.932C185.428 274.211 184.027 275.303 182.664 276.348C181.25 277.434 179.788 278.482 178.125 279.154L177.909 279.24C176.45 279.81 173.712 280.692 171.718 280.37C171.978 281.676 172.483 283.081 172.036 284.374C171.828 284.975 171.043 285.274 170.562 284.764C169.61 283.751 169.536 282.414 169.31 281.093C169.075 279.718 168.873 278.338 168.693 276.956C168.345 274.282 168.075 271.584 167.992 268.887C167.907 266.118 167.94 263.345 168.089 260.579C168.166 259.158 168.261 257.739 168.441 256.327C168.518 255.725 168.596 255.123 168.686 254.523C168.719 254.304 168.755 254.086 168.794 253.868L166.51 254.126C163.008 254.517 159.505 254.87 155.978 254.925C155.56 254.932 155.239 254.741 155.029 254.464C154.805 254.829 154.415 255.09 153.857 255.088C148.932 255.069 144.345 253.458 139.866 251.559C137.608 250.602 135.385 249.565 133.123 248.616C131.013 247.73 128.756 247.098 126.696 246.1L121.283 248.94C121.244 249.08 121.193 249.212 121.139 249.323C120.786 250.042 120.091 250.433 119.382 250.727C118.701 251.009 117.995 251.097 117.308 251.026C113.203 253.178 109.097 255.328 104.988 257.473L100.879 259.616C92.6909 263.881 84.5354 268.215 76.2959 272.38L75.6893 272.686C72.8434 274.113 69.7875 275.56 66.6292 276.64C66.573 277.44 66.6085 278.218 66.6754 279.064L66.6916 279.248C66.7857 280.249 66.9876 281.502 66.1855 282.214C65.7683 282.585 65.0229 282.586 64.7392 282.028C64.2243 281.015 64.6866 279.419 64.8497 278.319C64.9076 277.927 64.9781 277.525 65.0825 277.135C61.4618 278.213 57.7314 278.736 54.0469 278.131C50.4596 277.542 47.6812 275.281 45.4414 272.516C43.0775 269.597 41.3977 266.197 40.4964 262.551C39.4707 258.403 39.4037 254.119 39.4278 249.869C39.4534 245.345 39.6207 240.797 40.1709 236.303C39.5681 236.161 38.8997 236.039 38.2906 236.081C37.9889 236.564 37.4037 236.767 36.8749 236.704C35.7249 237.973 38.6417 239.27 39.5738 239.594C39.8975 239.707 39.8628 240.233 39.4895 240.217L39.2544 240.206C37.8141 240.129 36.3261 239.883 35.4792 238.544C34.8007 237.471 35.0045 236.2 35.8135 235.324C36.3478 230.271 37.6251 225.349 38.8139 220.419C39.9805 215.581 41.2779 210.773 42.653 205.989L43.2695 203.848C45.4347 196.348 47.6978 188.787 50.6844 181.584C52.1757 177.988 53.8937 174.458 56.2226 171.322C58.3933 168.399 60.9562 165.897 63.9021 163.761C69.394 159.778 75.8382 157.371 82.1699 155.078L82.4533 154.976C85.7345 153.788 89.0077 152.587 92.2515 151.3C95.1203 150.163 97.8687 148.72 100.724 147.565C100.631 147.397 100.542 147.227 100.455 147.054L100.403 147.099C100.394 147.106 100.384 147.113 100.375 147.12C100.088 147.319 99.6649 147.221 99.4283 146.997C98.7601 146.367 98.9863 145.667 99.4323 145.013L99.4904 144.929C100.036 144.165 100.522 143.357 101.026 142.565L101.341 142.069C102.186 140.746 103.074 139.414 104.201 138.32C104.723 137.813 105.294 137.434 105.899 137.151C105.848 137.042 106.301 136.818 106.43 136.931C108.348 136.228 110.554 136.376 112.645 136.569M187.988 251.745L185.322 252.048C182.388 252.382 179.454 252.705 176.519 253.024L170.145 253.717C170.129 254.081 170.084 254.436 170.076 254.711C170.035 256.126 170.004 257.542 169.974 258.958C169.915 261.796 169.98 264.637 170.167 267.47C170.348 270.214 170.586 272.959 170.957 275.685L171.033 276.23L171.077 276.517C171.379 276.546 171.676 276.69 171.923 276.985C172.462 277.629 174.414 277.003 175.177 276.732C176.431 276.285 177.611 275.531 178.701 274.775C179.765 274.037 180.723 273.176 181.644 272.269L182.397 271.523C183.146 270.778 183.896 269.985 184.356 269.048C184.978 267.777 185.059 266.217 185.241 264.833C185.466 263.131 185.734 261.429 186.017 259.735M110.589 233.877L110.312 233.949C100.266 236.62 90.2352 239.369 80.1584 241.922C75.1716 243.185 70.1612 244.357 65.1683 245.596L64.36 245.798C60.4211 246.794 56.435 247.992 53.4187 250.851C53.3074 250.956 53.1457 250.794 53.2505 250.682C56.5013 247.22 61.1247 245.755 65.5638 244.484C66.3844 244.25 67.206 244.02 68.0268 243.787C61.9896 241.634 55.8571 239.761 49.5831 238.425C47.9676 238.081 46.3332 237.828 44.7189 237.483C43.5931 237.242 42.4936 236.893 41.3797 236.604L40.5035 236.384L40.4918 239.154C40.4773 243.078 40.4842 246.998 40.6843 250.922L40.7222 251.648C40.9557 256.014 41.3201 260.471 42.8688 264.587C44.1274 267.933 46.1333 271.084 48.7566 273.521C50.084 274.754 51.5112 275.713 53.2752 276.187C54.9132 276.627 56.6293 276.679 58.3131 276.561C66.3897 275.998 73.5791 271.608 80.5949 267.975C92.0703 262.031 103.547 256.09 115.034 250.169C114.723 249.956 114.431 249.712 114.165 249.437C112.625 247.845 111.812 245.667 111.279 243.557C110.71 241.311 110.371 238.904 110.331 236.585M125.205 252.463C125.307 252.409 125.424 252.477 125.429 252.592C125.464 253.469 124.979 254.335 124.617 255.126L124.579 255.21C124.139 256.189 123.657 257.156 123.158 258.107C122.162 260.007 121.127 261.887 120.047 263.74C117.874 267.469 115.46 271.04 112.606 274.287C111.961 275.02 110.901 274.08 111.315 273.29C113.309 269.484 115.634 265.89 118.027 262.327C119.225 260.543 120.423 258.758 121.633 256.982C122.137 256.241 122.649 255.502 123.174 254.775L123.49 254.341M244.35 180.588C234.269 180.893 224.2 181.55 214.167 182.581C204.836 183.54 195.539 184.816 186.295 186.406C184.364 186.738 182.436 187.084 180.51 187.444L179.355 187.661C177.428 188.026 175.075 188.177 173.36 189.206C171.552 190.292 171.063 192.56 170.461 194.43C169.754 196.63 169.065 198.836 168.394 201.047C165.73 209.828 163.297 218.684 161.126 227.599C160.049 232.024 159.093 236.473 158.086 240.914C157.191 244.86 156.203 248.762 155.172 252.668C155.299 252.569 155.455 252.494 155.643 252.454C160.766 251.363 165.995 250.889 171.194 250.287L171.697 250.228C177.076 249.596 182.455 248.968 187.837 248.362L223.469 244.354C225.57 244.117 227.822 244.085 229.867 243.521C233.344 242.561 234.159 238.673 234.742 235.576L234.76 235.482C236.518 226.125 237.918 216.687 239.559 207.306M156.001 241.791C154.618 241.699 152.724 240.432 151.675 240.523C152.226 241.448 152.474 242.502 152.157 243.629C151.273 246.764 147.276 245.142 145.351 244.184C143.773 243.399 142.249 242.437 140.501 242.069C138.522 241.653 137.181 242.441 135.508 243.348C134.135 244.094 132.639 244.629 131.1 244.906C130.282 245.054 129.505 245.069 128.73 245.012C128.683 245.05 128.63 245.085 128.57 245.117L128.16 245.332C130.015 245.417 131.905 245.99 133.631 246.514C135.42 247.057 137.177 247.712 138.924 248.382L140.642 249.042C144.881 250.666 149.269 252.209 153.857 252.195C154.187 252.194 154.457 252.285 154.67 252.434M148.261 231.968C149.628 231.801 150.889 231.98 151.981 232.87C153.298 233.944 154.183 235.724 156.076 235.841C156.628 235.875 156.757 236.651 156.208 236.813C154.799 237.231 153.658 236.468 152.697 235.478L152.052 234.803C151.103 233.82 150.228 233.06 148.618 233.119C146.893 233.182 145.166 233.58 143.453 233.783C141.512 234.013 139.572 234.208 137.625 234.377C137.535 234.385 137.519 234.242 137.604 234.222L139.784 233.679M146.942 229.379L147.167 229.356C149.152 229.164 150.967 229.156 152.739 230.224L153.079 230.43C154.677 231.402 156.417 232.546 157.416 234.119C157.58 234.377 157.309 234.68 157.036 234.614C155.115 234.153 153.711 232.744 152.096 231.688C150.283 230.505 148.411 230.7 146.344 230.884C144.343 231.062 142.343 231.307 140.361 231.64C138.499 231.954 136.632 232.448 134.751 232.606L134.751 232.602C134.536 232.602 134.414 232.279 134.633 232.169C136.542 231.216 138.752 230.765 140.828 230.329M207.23 206.756C207.038 205.838 208.167 205.413 208.69 206.141L208.801 206.294C209.932 207.843 211.566 209.787 211.483 211.757C212.476 211.778 213.506 212.382 213.893 213.279C214.072 213.694 214.133 214.185 214.093 214.694C214.996 214.765 215.981 215.358 216.533 215.935C217.448 216.892 217.52 218.245 216.864 219.363C215.432 221.801 212.306 222.688 209.666 222.886L209.572 222.893C206.846 223.082 202.918 223.031 201.049 220.691C199.245 218.434 201.238 216.606 203.282 215.614C202.75 215.128 202.474 214.431 202.733 213.697C203.188 212.405 204.794 211.906 205.702 211.008C206.808 209.913 207.539 208.412 207.247 206.842M208.729 208.741C208.428 210.048 207.689 211.243 206.661 212.191C206.267 212.553 205.837 212.875 205.38 213.153L205.325 213.184C204.919 213.412 203.922 213.839 203.999 214.35C204.078 214.876 205.702 215.698 206.145 215.699C206.246 215.699 206.303 215.856 206.2 215.902C205.398 216.256 204.697 216.408 203.912 216.034C203.387 216.569 202.878 217.123 202.373 217.673C201.481 218.645 201.787 219.671 202.841 220.395C204.535 221.558 207.11 221.529 209.086 221.445C211.075 221.36 213.202 220.916 214.756 219.59L214.823 219.531C215.668 218.78 216.439 217.507 215.146 216.783C214.639 216.5 214.092 216.516 213.611 216.379C213.161 217.261 212.432 217.968 211.541 218.104C210.821 218.214 210.325 217.309 210.98 216.876L211.127 216.785C211.949 216.26 212.651 215.451 212.632 214.398C212.62 213.667 211.599 212.744 210.934 213.431L210.904 213.463C210.348 214.091 209.368 213.3 209.734 212.605L209.751 212.574M78.985 172.393C78.9825 172.236 79.2032 172.177 79.2803 172.313C80.5716 174.586 81.2466 177.372 81.9345 179.876C82.6549 182.498 83.2366 185.148 83.759 187.817C84.8173 193.221 85.3812 198.595 85.4194 204.103C85.4247 204.889 84.144 205.099 84.0187 204.293C83.1869 198.935 82.39 193.571 81.5519 188.215C81.1302 185.521 80.6394 182.837 80.1698 180.151M91.7686 176.352C91.6735 176.038 92.1294 175.933 92.2461 176.22C94.8374 182.584 95.715 189.795 94.0513 196.509C93.7967 197.536 92.2932 197.091 92.4852 196.077M125.195 170.697C125.182 170.463 125.486 170.426 125.601 170.587C126.829 172.318 127.338 174.636 129.492 175.53C130.568 175.977 131.778 175.899 132.729 176.653C133.364 177.158 133.851 177.954 133.374 178.718C133.22 178.965 132.79 179.089 132.581 178.82C132.276 178.43 132.115 177.962 131.701 177.669C131.118 177.256 130.33 177.23 129.661 177.036C128.795 176.785 128.032 176.345 127.407 175.692M145.708 141.83C145.835 141.766 145.956 141.807 146.037 141.916C146.153 142.072 146.139 142.224 145.997 142.331C146.186 142.718 146.41 143.686 146.441 143.827C146.571 144.399 146.708 144.967 146.852 145.534C147.142 146.679 147.397 147.833 147.687 148.978C147.995 150.192 148.362 151.393 148.771 152.577C148.797 152.654 148.826 152.732 148.856 152.811L148.903 152.931L148.914 152.913C148.997 152.782 149.17 152.874 149.15 153.012C149.131 153.139 149.105 153.264 149.084 153.391L149.126 153.504C149.393 154.223 149.576 154.981 149.086 155.616C148.903 155.853 148.701 155.993 148.45 156.035C148.047 157.365 147.541 158.669 146.999 159.922L146.841 160.288C146.044 162.116 145.195 163.921 143.927 165.477C142.542 167.176 140.637 168.336 139.431 170.198C138.87 171.065 138.48 171.975 138.163 172.953L138.043 173.325C137.819 174.017 137.559 174.687 136.91 175.093C136.703 175.222 136.393 175.181 136.226 175.005C134.896 173.597 136.289 170.968 137.091 169.605C138.206 167.71 139.82 166.497 141.436 165.067C143.178 163.526 144.289 161.464 145.363 159.433C146.022 158.188 146.657 156.917 147.326 155.667C146.627 155.049 146.403 153.821 146.167 152.968L146.145 152.891C145.754 151.525 145.443 150.123 145.246 148.714C145.057 147.36 144.978 146.026 145.028 144.664L145.043 144.317M148.308 148.275C148.153 148.063 148.409 147.823 148.621 147.867C149.909 148.134 151.169 148.914 152.325 149.545L152.448 149.612C153.371 150.11 154.3 150.72 154.785 151.687C155.312 152.738 155.268 153.949 155.197 155.092L155.19 155.199C155.102 156.569 155.088 157.993 154.798 159.338C154.649 160.027 154.026 160.221 153.493 160.058C152.859 162.061 151.077 163.537 149.776 165.118C148.116 167.134 148.429 169.855 148.602 172.282C148.672 173.265 147.45 173.544 146.821 173.02L145.37 171.815C145.129 171.614 144.888 171.412 144.647 171.21C144.441 171.036 144.237 170.862 144.034 170.685L143.732 170.417C143.598 170.297 143.006 169.636 142.833 169.609C142.414 169.542 141.418 170.647 141.077 170.993L141.034 171.037C140.393 171.666 139.813 172.343 139.274 173.061C139.174 173.193 138.98 173.083 139.051 172.931C139.535 171.894 140.097 170.903 140.765 169.976L140.9 169.791C141.344 169.192 141.941 168.135 142.725 167.958C143.682 167.742 144.639 168.702 145.335 169.236L145.379 169.269C145.711 169.518 146.039 169.771 146.366 170.026C146.331 168.219 146.56 166.393 147.492 164.835C148.15 163.737 149.135 162.923 149.978 161.979C150.917 160.928 151.407 159.637 152.257 158.542C152.366 158.401 152.517 158.325 152.681 158.301C152.713 157.421 152.843 156.533 152.943 155.662L152.972 155.402C153.073 154.456 153.312 153.301 152.849 152.415C152.412 151.578 151.409 150.988 150.666 150.42L150.059 149.949M106.495 138.274C106.107 138.498 105.744 138.777 105.415 139.126C104.38 140.225 103.64 141.593 102.919 142.908C102.531 143.617 102.157 144.333 101.766 145.04C101.596 145.347 101.421 145.651 101.244 145.955C101.163 146.095 100.92 146.373 100.799 146.544C100.933 146.732 101.071 146.917 101.213 147.099C101.266 147.169 104.981 151.217 106.275 152.801C108.258 155.227 110.03 157.79 111.545 160.534C113.028 163.22 114.158 166.065 115.532 168.803C116.22 170.174 116.988 171.535 117.967 172.722C118.005 172.768 118.045 172.812 118.084 172.858C118.458 171.848 119.415 170.766 119.886 170.145L119.93 170.086C120.996 168.648 122.123 167.253 123.274 165.881C124.325 164.629 125.403 163.404 126.507 162.199L126.922 161.748C127.692 160.917 128.669 159.673 129.795 159.079C129.674 158.864 129.534 158.651 129.374 158.441C128.319 157.062 126.827 156.061 125.356 155.158L124.401 154.577C120.804 152.384 117.262 150.089 114.139 147.239C112.487 145.732 110.857 144.152 109.469 142.393L108.977 141.772M112.497 137.188C110.812 137.33 108.993 137.296 107.436 137.845C108.82 139.154 110.136 140.567 111.487 141.898C111.608 140.998 111.854 140.109 112.062 139.231" fill="black"/>
<path fill-rule="evenodd" clip-rule="evenodd" d="M159.427 88.9374C159.612 86.9911 157.593 81.7987 157.642 82.8519C154.404 77.2197 148.086 75.0049 142.634 73.1456C131.062 68.8354 122.025 74.0408 113.894 83.2665C109.094 88.3254 104.526 93.9764 102.116 100.98C97.3756 114.339 104.481 129.573 115.288 135.955C116.16 136.487 117.11 136.993 117.94 137.636C122.407 140.548 127.653 141.555 132.631 142.822C141.943 145.224 153.639 144.079 159.127 134.076C162.849 126.977 161.86 118.371 161.569 110.493C161.131 103.59 160.363 95.7896 159.427 88.9374Z" fill="white"/>
<path fill-rule="evenodd" clip-rule="evenodd" d="M109.65 69.2369C115.683 62.8737 124.601 59.7895 132.754 60.3289C137.17 60.6211 141.425 61.8695 145.416 64.0142C146.664 64.6849 147.88 65.4699 149.002 66.3944C149.758 66.7927 150.498 67.2237 151.214 67.6923C154.803 70.0375 157.577 73.5897 159.352 77.8034C160.199 79.8146 160.868 81.9354 161.247 84.1205L161.308 84.4802C161.501 85.5768 161.883 87.0215 161.4 88.0476C161.08 88.7279 160.408 89.1567 159.773 89.0991C159.911 89.7296 160.076 90.3599 160.182 90.9945L160.47 92.7245C160.517 93.0129 160.565 93.3012 160.611 93.5896C160.889 95.3081 161.144 97.0245 161.349 98.7565C161.777 102.363 162.163 105.977 162.504 109.597C162.748 112.185 162.977 114.777 163.199 117.367L163.332 118.922C163.56 121.597 163.739 124.296 163.584 126.984C163.351 131.015 162.252 134.693 160.119 137.685C160.322 138.237 160.39 138.857 160.543 139.543C160.755 140.492 161.031 141.421 161.325 142.342C161.462 142.704 161.6 143.066 161.736 143.429L162.094 144.39L162.373 145.021C162.676 145.706 162.968 146.402 163.154 147.112C164.36 147.838 165.344 149.022 165.392 150.645C165.435 152.112 164.76 153.665 163.62 154.413C162.495 155.152 161.337 154.861 160.26 154.297C159.321 154.605 158.316 154.644 157.386 154.315C156.67 155.046 155.746 155.551 154.723 155.687C153.179 155.894 151.714 155.407 150.298 154.766L150.199 154.721C150.155 154.701 150.11 154.68 150.068 154.659C148.439 154.571 146.817 153.844 145.661 152.556C145.285 152.139 144.96 151.662 144.697 151.128C143.745 149.184 143.597 146.799 144.534 144.871C144.333 144.88 144.13 144.89 143.929 144.896C141.248 144.982 138.562 144.828 135.888 144.629L135.258 144.581C133.527 144.44 130.975 144.109 130.927 141.689C130.92 141.38 131.203 141.147 131.462 141.23C132.445 141.543 133.411 142.035 134.43 142.212C135.762 142.445 137.142 142.47 138.489 142.554L138.876 142.579C141.59 142.746 144.402 142.848 147.072 142.241C149.066 141.789 151.143 140.966 152.969 139.948C154.723 138.967 156.316 137.685 157.6 136.011C160.431 132.328 160.805 127.132 160.667 122.472C160.5 116.907 159.921 111.35 159.594 105.792L159.446 103.296C159.324 101.214 159.213 99.1288 159.166 97.0459C159.132 95.5253 159.154 94.0009 159.161 92.4804C159.164 91.7211 159.156 90.9579 159.171 90.1986C159.18 89.7719 159.224 89.3547 159.257 88.9374C159.107 88.8492 158.967 88.726 158.841 88.5628C158.742 88.434 158.665 88.2975 158.613 88.1591C157.977 87.9493 157.682 87.6706 157.27 87.0384C156.922 86.5059 156.529 86.0138 156.108 85.5524C155.212 84.5721 154.188 83.7705 153.106 83.0725C150.869 81.629 148.418 80.664 145.948 79.872C142.165 78.661 138.236 78.0381 134.398 77.0653C133.34 78.73 132.218 80.3449 131.046 81.9077C127.388 86.7827 123.193 91.1288 118.698 95.0044C117.784 95.7945 116.856 96.573 115.916 97.3283C114.677 99.4594 113.425 101.58 112.155 103.687L111.609 104.589L111.6 104.606C111.525 104.735 111.454 104.864 111.382 104.993C111.231 105.266 111.06 105.529 110.88 105.785C110.762 105.979 110.643 106.173 110.522 106.367C110.754 106.507 110.965 106.665 111.13 106.84C111.467 107.199 111.411 107.77 111.13 108.136C110.224 109.316 108.789 107.778 107.746 107.369C106.617 107.757 105.674 109.274 105.206 110.433C104.531 112.103 104.26 114.118 104.565 115.927C104.844 117.58 105.598 119.008 106.85 119.904C106.894 119.935 106.942 119.967 106.988 119.996C106.99 120 106.99 120 106.991 119.998C107.034 120.029 107.078 120.058 107.123 120.085C107.71 120.45 108.356 120.665 109.026 120.717C109.409 120.748 109.81 120.725 110.193 120.777C110.587 120.828 110.91 121.032 111.289 121.14C111.706 121.261 111.975 121.894 111.713 122.318C111.583 122.528 111.461 122.728 111.329 122.907C111.76 123.479 112.135 124.112 112.474 124.713C112.938 125.538 113.348 126.413 113.723 127.305C114.069 127.818 114.4 128.341 114.72 128.875C116.535 131.909 117.923 135.288 118.777 138.819C119.622 142.312 120.15 146.235 119.368 149.802C118.647 153.081 116.543 155.797 113.429 155.972C112.779 156.008 112.139 155.926 111.538 155.74C110.218 156.66 108.581 157.123 107.117 157.177C105.932 157.221 104.635 156.94 103.667 156.131C102.52 156.695 101.274 157.015 100.192 157.088C98.98 157.169 97.712 156.797 96.7243 156.059C95.7845 156.967 94.7704 157.734 93.6181 158.26C91.6365 159.163 89.2784 159.051 87.4638 157.7C85.6458 156.347 84.7206 153.917 85.2761 151.506C85.7872 149.284 87.394 147.654 88.9035 146.251L89.2018 145.975C90.695 144.6 92.203 143.269 93.1614 141.332C94.1786 139.277 94.5501 136.889 94.6506 134.563C94.8687 129.442 93.9452 124.368 93.6641 119.273C93.3744 114.012 93.5363 108.735 94.1718 103.512C95.4071 93.3666 98.658 83.4206 104.54 75.512C105.391 74.3677 106.301 73.277 107.261 72.2432C107.995 71.1605 108.788 70.1457 109.65 69.2369ZM187.886 127.166C187.918 127.168 187.949 127.17 187.978 127.184C187.997 127.193 188.014 127.208 188.029 127.224L188.172 127.385C188.223 127.443 188.22 127.532 188.172 127.589C188.13 127.642 188.055 127.643 188.006 127.603L187.992 127.589L187.843 127.422C187.827 127.402 187.813 127.38 187.806 127.353C187.799 127.326 187.799 127.295 187.797 127.266C187.796 127.214 187.84 127.166 187.886 127.166ZM107.945 111.461C109.312 110.994 110.951 112.105 111.765 113.278C112.174 113.866 112.29 114.671 111.765 115.25C111.319 115.742 110.447 115.832 110.016 115.25C109.527 114.587 109.128 113.668 108.429 113.243C107.671 112.782 106.656 112.897 106.477 114.022C106.446 114.212 106.204 114.148 106.194 113.978C106.127 112.84 107.012 111.778 107.945 111.461Z" fill="black"/>
<path fill-rule="evenodd" clip-rule="evenodd" d="M155.583 95.4755C159.1 95.4755 161.108 96.4008 161.843 96.4729L161.865 96.4748C162.171 96.4987 162.446 96.53 162.734 96.6662C163.792 97.165 163.965 98.5234 163.347 99.3795C163.304 101.151 163.494 103.221 163.167 104.998C162.764 112.49 159.884 113.754 158.247 114.216C157.425 114.447 156.451 114.54 155.577 114.295C154.088 114.227 152.616 113.657 151.356 112.663C149.601 111.279 148.298 109.151 147.875 106.626C147.674 105.422 147.581 104.17 147.69 102.946L147.706 102.778C147.136 102.444 146.475 102.381 145.794 102.351C145.468 102.337 145.147 102.324 144.836 102.341C144.531 102.383 144.23 102.438 143.928 102.514C143.599 102.635 143.287 102.836 143 103.154L142.98 103.619C142.926 104.778 142.802 105.941 142.61 107.079C142.326 108.758 141.87 110.361 140.9 111.551C140.572 112.152 140.165 112.687 139.672 113.151C137.88 114.839 135.445 115.459 133.21 115.225C128.673 114.752 126.05 110.346 125.446 108.463L125.41 108.349C124.973 106.949 124.625 105.132 123.246 104.831L122.952 104.767C122.323 104.622 121.742 104.421 121.373 103.67C121.211 103.342 121.128 102.975 121.107 102.601C120.892 102.621 120.677 102.641 120.463 102.659C118.753 103.102 108.499 103.477 107.681 103.477C107.681 103.477 106.108 104.287 105.443 103.659C104.983 103.223 104.832 102.641 105.085 101.982C105.467 100.991 107.232 100.394 108.015 100.205C108.015 100.205 120.657 100.334 121.567 100.123C122.13 99.4126 123.137 99.5098 123.978 99.3976C124.675 98.79 125.649 98.383 126.419 98.1106C126.576 98.0379 126.731 97.9676 126.882 97.9013C128.294 97.2865 129.761 96.9609 131.25 96.7861C132.785 96.6075 134.325 96.6883 135.852 96.9442C136.495 97.0509 137.133 97.189 137.766 97.3695C138.899 97.5523 140.025 97.8533 141.159 98.2104L141.386 98.2825C142.58 98.6653 143.806 98.9965 145.042 98.737C146.048 98.527 147.016 98.0534 147.943 97.5413L148.064 97.4743C150.103 96.3351 153.289 95.4755 155.583 95.4755Z" fill="#231F20"/>
<path fill-rule="evenodd" clip-rule="evenodd" d="M148.934 140.249C148.934 140.249 141.371 141.502 137.985 139.73C134.61 137.964 131.327 136.255 128.265 133.915C125.128 131.517 122.467 128.67 120.567 125.026C118.8 121.636 117.331 118.038 115.852 114.468C115.766 114.259 114.917 112.185 114.617 111.489C114.155 110.411 112.806 110.749 112.806 112.424C112.806 114.098 112.739 126.775 115.333 131.763C117.672 136.267 121.637 139.414 125.576 142.161C129.935 145.198 135.724 148.482 140.924 149.349C145.63 150.134 151.001 147.931 154.408 144.299C157.971 140.502 158.98 135.342 160.818 130.402C161.229 129.297 159.773 128.631 159.346 129.717C158.542 131.763 148.934 140.249 148.934 140.249Z" fill="black"/>
<path fill-rule="evenodd" clip-rule="evenodd" d="M132.664 117.728C135.621 117.276 138.488 118.417 141.379 118.993C142.906 119.296 144.434 119.523 145.979 119.607C146.29 119.624 146.6 119.634 146.911 119.642C146.94 119.297 147.093 118.981 147.425 118.791C148.106 118.402 148.65 118.227 149.397 118.264C150.081 118.298 150.767 118.387 151.441 118.542C152.663 118.825 153.891 119.466 154.786 120.58C156.856 123.158 156.541 127.299 154.941 130.107C151.637 135.909 145.606 136.179 140.441 136.103L139.964 136.095C135.261 136.01 128.533 136.894 126.396 130.149C125.61 127.668 125.72 124.793 126.682 122.414C127.829 119.577 130.244 118.099 132.664 117.728ZM147.354 127.389L147.312 127.391C145.144 127.497 142.976 127.571 140.806 127.619C140.871 128.321 140.937 129.024 141.013 129.725C141.072 130.276 141.136 130.827 141.202 131.378C141.231 131.611 141.333 131.972 141.304 132.203L141.294 132.294C141.405 132.358 141.506 132.46 141.582 132.608C141.608 132.66 141.627 132.712 141.646 132.763C143.33 132.78 145.143 132.739 146.86 132.353L146.863 132.306C146.894 132.029 146.986 131.843 147.107 131.715C147.227 130.834 147.216 129.894 147.263 129.019C147.292 128.476 147.324 127.932 147.354 127.389ZM139.149 127.656C137.586 127.69 136.023 127.716 134.46 127.692L133.751 127.678C133.901 128.691 134.064 129.701 134.199 130.721C134.34 131.783 133.598 132.459 132.956 132.432C133.028 132.447 133.1 132.462 133.172 132.475C135.179 132.833 137.263 132.738 139.299 132.735C139.19 131.929 139.234 131.019 139.218 130.346L139.215 130.242C139.184 129.38 139.162 128.518 139.149 127.656ZM128.533 127.471C128.587 127.997 128.693 128.513 128.851 128.993C129.518 131.021 131.047 131.967 132.666 132.366C132.385 132.244 132.162 131.95 132.106 131.447C131.965 130.196 131.915 128.925 131.911 127.655C130.783 127.642 129.648 127.611 128.533 127.471ZM153.236 127.037C152.433 127.276 151.499 127.167 150.712 127.212C149.974 127.254 149.235 127.291 148.497 127.329C148.532 127.964 148.566 128.599 148.603 129.234C148.65 130.054 148.655 130.921 148.779 131.738C150.265 131.099 151.596 130.074 152.594 128.435C152.843 128.027 153.066 127.548 153.236 127.037ZM132.324 121.056C130.988 121.455 129.723 122.298 129.043 123.839C128.639 124.754 128.462 125.839 128.496 126.907C129.625 126.742 130.775 126.679 131.918 126.627C131.922 126.367 131.927 126.108 131.933 125.849L131.951 125.186C131.982 123.921 131.998 122.332 132.324 121.056ZM139.243 121.21L138.654 121.127C137.02 120.892 135.386 120.646 133.752 120.787C133.515 120.807 133.275 120.84 133.035 120.884C133.323 122.199 133.299 123.742 133.42 125.043C133.467 125.546 133.525 126.045 133.591 126.542L133.874 126.525C135.628 126.405 137.383 126.331 139.139 126.244C139.138 125.828 139.14 125.413 139.146 124.997L139.152 124.581C139.172 123.519 139.118 122.322 139.243 121.21ZM147.45 121.041C145.738 121.39 143.969 121.464 142.288 121.466C141.616 121.468 140.945 121.416 140.274 121.341C140.318 121.791 140.34 122.246 140.373 122.69C140.44 123.588 140.515 124.484 140.598 125.379L140.671 126.162C142.828 126.039 144.985 125.906 147.142 125.768L147.447 125.747L147.532 124.242C147.59 123.238 147.654 122.234 147.744 121.235L147.676 121.204C147.597 121.163 147.521 121.106 147.45 121.041ZM148.193 121.415C148.288 122.834 148.34 124.259 148.409 125.681L149.831 125.585C150.068 125.569 150.305 125.552 150.542 125.535C151.463 125.468 152.647 125.117 153.558 125.445C153.628 124.401 153.391 123.384 152.644 122.682C151.332 121.451 149.661 121.889 148.193 121.415ZM143.335 108.728C145.453 107.199 150.765 105.637 151.102 110.44C151.256 112.651 149.953 114.482 148.43 115.299L148.373 115.33C146.946 116.07 144.415 116.905 143.18 115.301C142.151 113.965 143.515 111.571 144.793 112.665C145.45 113.227 146.832 112.813 147.565 112.545L147.61 112.529C148.401 112.236 149.455 111.298 149.128 110.071C148.839 108.985 147.608 108.787 146.837 108.751C145.686 108.699 144.566 109.036 143.425 109.146C143.245 109.163 143.189 108.834 143.335 108.728ZM152.106 101.004C154.979 100.834 156.767 104.79 156.106 108.031C155.992 108.59 155.496 109.139 155.017 109.076L154.896 109.062C154.835 109.054 154.773 109.045 154.716 109.025C154.262 108.866 153.854 108.27 153.887 107.652L153.896 107.472C153.963 105.941 153.831 104.177 152.388 103.806C151.164 103.491 150.48 104.977 150.466 106.344C150.463 106.587 150.247 106.756 150.077 106.626C149.192 105.947 149.038 104.596 149.376 103.433C149.805 101.96 150.877 101.076 152.106 101.004ZM130.781 101.852C132.872 100.973 135.128 102.378 136.141 104.709C136.496 104.838 136.851 105.183 136.801 105.712C136.73 106.472 136.623 106.952 136.205 107.528C135.551 108.43 134.325 107.969 134.054 106.859L134.042 106.809C133.733 105.373 132.48 104.426 131.338 104.929C130.005 105.516 130.043 107.291 129.108 108.326C128.998 108.447 128.866 108.467 128.734 108.386C127.741 107.781 127.919 105.959 128.274 104.917C128.738 103.548 129.641 102.331 130.781 101.852ZM127.933 93.8469C129.627 91.6671 134.046 89.5579 135.205 93.583C135.426 94.3497 134.956 95.3835 134.323 95.5425C133.286 95.8026 132.366 95.2351 131.336 95.3369C130.502 95.4198 129.632 95.771 128.966 96.4222C127.119 98.2257 126.713 101.276 125.427 103.572C125.364 103.683 125.242 103.636 125.231 103.505C124.938 100.163 126.077 96.2341 127.933 93.8469ZM150.033 91.7007C151.157 91.2 152.431 91.2428 153.561 91.687C154.7 92.1346 155.745 92.9845 156.55 94.0951C156.916 94.5992 157.254 95.1556 157.525 95.7478C157.669 96.0617 157.821 96.71 157.984 97.0961C158.87 97.7408 159.249 99.21 158.456 100.255L158.42 100.301L158.314 100.434C157.888 100.966 157.245 101.196 156.663 100.984C155.361 100.509 155.202 99.2158 154.752 97.8434C154.454 96.9369 153.944 96.1347 153.325 95.5455C151.863 94.1536 149.466 93.7101 147.706 94.3661C147.613 94.4011 147.503 94.2506 147.569 94.1414C147.903 93.5968 148.095 93.1498 148.542 92.7105C148.995 92.2646 149.49 91.9425 150.033 91.7007Z" fill="black"/>
</svg>
