<svg width="240" height="324" viewBox="0 0 240 324" fill="none" xmlns="http://www.w3.org/2000/svg">
<path fill-rule="evenodd" clip-rule="evenodd" d="M114.34 135.723C119.555 131.751 132.648 129.964 138.214 133.789C143.711 137.631 144.311 143.843 146.872 149.557C149.29 148.417 153.281 150.05 153.982 152.294C154.851 153.352 154.89 156.325 155.49 157.747C181.569 161.9 185.528 182.24 188.667 205.332C192.82 228.764 202.247 252.145 198.154 276.257C198.688 277.029 199.108 277.78 199.497 278.671C200.428 280.256 199.228 282.5 197.35 282.414C194.918 282.2 192.51 281.908 190.067 281.817C183.293 281.582 176.514 281.61 169.738 281.696L168.814 281.708C134.667 282.133 100.521 282.971 66.3713 283.194C65.1324 283.195 64.5259 282.084 64.6913 280.987C65.0245 278.78 65.3336 276.571 65.6562 274.363C57.579 276.497 48.9922 277.034 40.9379 274.587C40.3744 274.013 42.2507 274.324 42.5483 274.237C35.1358 269.17 37.3495 258.495 38.0061 250.807C42.0891 224.462 43.5284 195.313 59.3036 172.832C66.1281 163.658 76.1336 156.394 87.6305 154.76L87.9495 154.716C91.3112 154.267 95.0578 154.123 97.997 152.294C101.303 149.653 102.711 144.775 106.189 144.73C107.338 144.715 108.9 146.168 110.581 147.155C110.706 144.984 111.876 143.152 112.134 141.469L112.155 141.325C112.424 139.363 112.055 137.598 114.34 135.723ZM170.386 206.028C163.057 200.935 144.125 203.494 143.692 203.779C142.737 204.407 142.326 204.463 141.81 205.278C141.301 205.346 140.792 205.416 140.283 205.488C139.262 205.822 140.019 207.077 141.197 206.629C140.488 209.688 142.575 211.864 143.406 214.888C143.676 215.87 143.416 217.636 143.406 218.64C143.486 219.919 144.9 221.43 144.665 222.714C143.827 227.276 139.281 231.727 141.197 236.152C142.467 238.652 146.286 239.926 148.825 240.776C154.085 242.795 163.251 240.7 166.308 236.152C167.938 233.727 169.826 227.609 170.799 225.711L171.014 222.701C171.545 215.218 172.018 207.162 170.386 206.028Z" fill="white"/>
<path fill-rule="evenodd" clip-rule="evenodd" d="M104.912 144.288C105.418 143.84 106.167 144.403 105.845 145.009C105.123 146.37 104.381 147.659 103.412 148.862C102.824 149.592 102.194 150.282 101.556 150.964C103.194 152.381 104.598 154.141 105.925 155.791C107.621 157.9 109.225 160.099 111.129 162.029C113.007 163.933 115.084 165.264 117.594 166.151L118.101 166.327C120.623 167.213 123.319 168.409 124.741 170.798C125.021 171.269 124.457 171.851 123.982 171.557C121.512 170.027 118.609 169.719 115.92 168.708C113.323 167.732 111.058 166.229 109.057 164.31C107.06 162.395 105.383 160.216 103.634 158.083C101.904 155.974 100.041 154.172 97.9953 152.388C94.8378 154.513 91.2336 155.438 87.5687 156.346L87.1687 156.445C83.4994 157.354 79.8497 158.409 76.4073 159.992C73.3723 161.387 70.3871 163.053 67.9148 165.323C65.2904 167.733 63.2479 170.81 61.3784 173.819C57.1966 180.552 54.2566 187.928 51.6683 195.394C48.9764 203.159 46.7247 211.08 44.9069 219.095C43.9824 223.172 43.2316 227.278 42.6145 231.413C42.3174 233.404 42.0535 235.4 41.8218 237.4C41.5744 239.536 41.5176 241.733 40.8626 243.786C40.5818 244.666 39.9189 245.032 39.2553 245L39.1205 246.687C38.9418 248.935 38.7752 251.184 38.7189 253.446C38.6255 257.208 38.6679 260.959 38.9383 264.712L38.9766 265.224C39.1892 267.964 39.6641 271.042 41.7233 273.048C43.8559 275.126 47.1354 275.779 50.0097 275.816C56.7041 275.903 63.1482 272.739 69.0721 269.963C75.1731 267.104 81.1074 263.931 86.8995 260.489C89.8492 258.736 92.7671 256.925 95.6477 255.061C97.0613 254.146 98.4649 253.216 99.858 252.271C100.656 251.729 101.412 251.136 102.224 250.655C101.826 250.284 101.649 249.702 101.982 249.193C99.6339 247.153 98.6566 243.515 98.5423 240.57C98.4499 238.194 98.7996 235.824 99.0755 233.47C99.2147 232.282 99.3867 231.097 99.5652 229.916C99.6358 229.449 99.6897 228.949 99.7721 228.456C93.4313 231.942 86.9128 235.047 80.2218 237.804C76.7921 239.218 73.3184 240.489 69.7968 241.654L69.083 241.889C65.7463 242.982 62.3297 244.014 58.8802 244.638C58.6957 244.672 58.5459 244.399 58.7428 244.313C62.1045 242.829 65.5826 241.577 68.9948 240.21L69.5555 239.982C69.4911 239.978 69.4243 239.969 69.3546 239.953C67.3535 239.47 65.368 238.725 63.4053 238.098C61.5837 237.516 59.5372 237.151 57.8346 236.273C57.7036 236.205 57.7769 236.023 57.9045 236.014C59.8182 235.881 61.8956 236.439 63.7718 236.768L64.4767 236.891C65.6575 237.099 66.8645 237.323 68.0395 237.615C68.0819 237.222 68.3018 236.826 68.6147 236.594C72.0578 234.043 71.7081 228.892 72.0764 225.093L72.3494 222.272C72.8297 217.336 73.3378 212.4 74.1098 207.501C74.151 207.24 74.5556 207.315 74.5573 207.562C74.5971 213.635 74.1388 219.68 73.9091 225.743L73.8735 226.738C73.7466 230.48 73.647 234.365 71.2915 237.244C71.6209 237.051 72.0662 237.051 72.333 237.369C72.6609 237.759 72.8502 238.197 72.8443 238.627C74.9728 237.735 77.0921 236.819 79.2009 235.884C85.9811 232.879 92.6192 229.516 99.0816 225.878C99.7771 225.486 100.438 225.794 100.782 226.31L100.832 226.303C100.84 226.302 100.848 226.301 100.857 226.301L100.906 226.299C100.908 226.299 100.91 226.299 100.912 226.299C101.822 225.799 103.061 226.155 103.841 226.884C103.865 226.906 103.884 226.93 103.905 226.953C104.893 226.509 105.816 225.91 106.653 225.151C108.367 223.597 109.819 221.676 111.084 219.749C113.415 216.2 115.394 212.254 118.542 209.333C121.1 206.96 124.271 205.482 127.598 204.555C127.584 204.458 127.621 204.354 127.689 204.285C127.859 204.11 127.981 204.049 128.202 204.156C128.22 204.164 128.23 204.176 128.237 204.189L128.562 203.634C128.739 203.333 128.921 203.029 128.984 202.95C129.362 202.474 129.751 202.002 130.145 201.54C130.814 200.757 131.577 199.985 132.46 199.442C134.393 198.254 136.425 198.926 138.412 199.576C139.613 199.968 140.81 200.373 142.009 200.772L142.133 200.812C143.026 201.099 144.072 201.351 144.472 202.298C144.63 202.673 144.655 203.062 144.581 203.44C153.071 201.28 162.5 202.272 170.784 204.807C171.102 204.905 171.42 205.166 171.487 205.51C172.436 210.38 172.859 215.374 172.429 220.326C172.059 224.602 171.112 228.791 169.327 232.705L169.226 232.926C167.549 236.553 164.891 241.025 160.832 242.162C158.381 242.848 155.671 242.444 153.171 242.318C150.741 242.195 148.258 242.178 145.852 241.796C143.709 241.455 141.831 240.494 140.507 238.751C139.364 237.247 138.762 235.429 138.269 233.621C138.044 233.693 137.82 233.77 137.599 233.856C136.668 234.22 135.879 234.807 135.166 235.498C133.66 236.957 132.491 238.729 130.916 240.121C129.489 241.382 127.864 242.362 126.12 243.116C122.507 244.678 118.631 245.302 114.81 246.129L114.543 246.187C111.666 246.819 108.729 247.594 106.19 249.093C106.14 249.534 105.939 249.949 105.617 250.221C106.065 250.642 106.255 251.308 105.861 251.933C104.762 253.679 102.868 254.672 101.168 255.788L101.058 255.861C99.3852 256.97 97.6983 258.057 95.9976 259.122C92.5402 261.288 89.0105 263.334 85.431 265.29C79.6737 268.437 73.7929 271.405 67.8056 274.097C68.1649 275.866 68.0336 277.689 68.3037 279.47L68.3452 279.724C68.4605 280.385 68.3047 280.937 67.8497 281.369L67.8016 281.413L67.8024 281.407L67.7597 281.447L67.7455 281.459L67.7502 281.455C67.6978 281.503 67.6437 281.548 67.5885 281.586L67.5183 281.631C67.08 281.897 66.5159 281.894 66.0672 281.659L66.0159 281.631L65.9297 281.582C65.3369 281.24 64.9281 280.395 65.174 279.724C65.7785 278.074 66.0068 276.312 66.565 274.651L66.1222 274.849L65.5386 275.104C59.2263 277.834 52.2147 280.134 45.3371 278.272C42.2982 277.45 39.4579 275.709 37.9374 272.873C36.4412 270.082 36.2297 266.841 36.1503 263.736C36.0523 259.904 36.2576 256.014 36.7628 252.214C37.1018 249.664 37.5119 247.066 38.1445 244.542C37.8191 244.255 37.5799 243.843 37.5168 243.333C37.2183 240.922 37.7407 238.416 38.0606 236.019C38.373 233.677 38.7183 231.34 39.1087 229.011C39.8969 224.307 40.8128 219.612 41.879 214.963C43.7766 206.688 46.2825 198.561 49.2994 190.627L49.5636 189.936C52.3514 182.685 55.5792 175.589 60.0738 169.219C62.2239 166.171 64.4967 163.408 67.5347 161.212C70.3809 159.154 73.5914 157.672 76.9045 156.54C80.2211 155.407 83.6302 154.647 87.0994 154.175C90.6227 153.695 94.3416 153.401 97.6283 151.955C97.2126 151.21 97.5694 150.203 98.2691 149.74C100.624 148.184 102.801 146.159 104.912 144.288ZM180.294 211.967C180.392 211.817 180.627 211.912 180.583 212.089C179.438 216.783 178.363 221.487 177.661 226.27C176.393 234.904 176.627 243.65 176.73 252.348L176.735 252.797C176.789 257.482 176.863 262.167 177.017 266.85C177.096 269.217 177.25 271.607 177.166 273.975C177.12 275.26 176.778 276.475 176.657 277.744C176.551 278.854 176.645 279.98 176.698 281.092C176.734 281.831 175.644 281.799 175.569 281.092L175.475 280.177C175.351 279.019 175.199 277.868 174.82 276.76C174.364 275.427 174.145 274.118 173.987 272.718C173.744 270.573 173.636 268.407 173.543 266.248L173.479 264.754C173.088 255.728 173.102 246.66 173.734 237.644L173.781 237C174.407 228.478 175.493 219.269 180.294 211.967ZM155.88 158.253C155.581 158.13 155.686 157.678 156.017 157.757L156.62 157.9C161.034 158.958 165.368 160.104 169.489 162.072C173.611 164.042 177.102 166.982 179.876 170.597C185.267 177.625 187.508 186.166 189.276 194.698C191.242 204.18 193.032 213.696 195.014 223.174L195.383 224.94C197.217 233.768 198.949 242.601 200.226 251.533L200.317 252.181C201.604 261.367 202.379 270.87 200.974 280.08C200.696 281.902 197.666 281.448 197.784 279.648C198.126 274.444 198.371 269.267 198.135 264.052C197.898 258.835 197.408 253.641 196.679 248.47C196.066 244.118 195.151 239.82 194.342 235.503L194.215 234.821C193.537 231.149 192.839 227.481 192.141 223.813L191.1 218.32C189.538 210.096 187.946 201.864 186.147 193.692L186.04 193.211C184.28 185.348 181.684 177.112 176.404 170.868C171.045 164.532 163.374 161.341 155.88 158.253ZM136.409 241.652C136.538 241.364 136.988 241.396 137.127 241.652C137.67 242.654 137.73 243.933 137.833 245.065L137.844 245.181C137.974 246.562 138.09 247.948 138.161 249.333C138.295 251.962 138.359 254.587 138.351 257.22C138.342 259.917 138.288 262.612 138.143 265.306L138.103 266.027C137.971 268.368 137.748 270.979 136.636 273.026C136.232 273.77 135.133 273.551 134.899 272.799C134.132 270.335 134.526 267.414 134.722 264.891L134.875 262.922C135.026 260.953 135.171 258.984 135.285 257.012C135.442 254.315 135.571 251.616 135.695 248.918C135.736 248.041 135.78 247.165 135.826 246.288L135.897 244.974C135.957 243.874 135.952 242.668 136.409 241.652ZM50.1801 245.143L50.5196 244.815C51.5618 243.795 52.8788 242.223 54.4195 242.321C55.0338 242.36 55.4253 242.87 55.2979 243.475C55.0258 244.767 53.7077 245.438 52.7589 246.227C51.7195 247.091 50.7398 248.015 49.7621 248.948C48.8946 249.775 48.0604 250.625 47.2463 251.503L46.9418 251.833C46.65 252.151 44.5717 254.032 44.7964 254.52L44.8087 254.542C44.8712 254.635 44.7671 254.763 44.6633 254.731C43.7659 254.447 43.8218 253.678 44.1611 252.898C44.8131 251.4 45.9548 250.014 46.9518 248.735C47.9461 247.458 49.0222 246.27 50.1801 245.143ZM139.661 207.575C138.967 205.934 136.41 205.968 134.959 206.067C131.304 206.314 127.349 207.239 124.097 208.948C120.726 210.719 118.455 213.558 116.422 216.697L116.327 216.845C114.347 219.925 112.439 223.571 109.338 225.688C107.758 226.767 105.914 227.753 103.997 228.179C103.865 228.411 103.652 228.594 103.373 228.661L103.243 228.69C102.697 228.811 101.849 228.944 101.116 228.864C101.121 229.223 101.117 229.579 101.126 229.918C101.152 230.892 101.163 231.869 101.163 232.843C101.164 234.883 101.054 236.928 101.139 238.968C101.215 240.773 101.469 242.659 102.336 244.272C102.971 245.456 103.809 246.239 104.822 246.987C107.312 245.469 110.127 244.543 112.985 243.847C116.441 243.006 119.979 242.445 123.356 241.304C124.982 240.754 126.545 240.036 127.961 239.059C129.463 238.023 130.611 236.62 131.792 235.248L131.977 235.035C133.182 233.652 134.497 232.329 136.2 231.579C137.667 230.934 139.601 230.819 140.883 229.819C141.554 229.296 141.61 228.538 141.681 227.761C140.859 227.878 139.99 227.69 139.171 227.594L138.747 227.544C137.973 227.452 137.216 227.351 136.454 227.154C136.313 227.117 136.313 226.904 136.454 226.867C137.355 226.635 138.247 226.536 139.171 226.427L139.388 226.4C140.223 226.291 141.101 226.125 141.921 226.309C142.068 225.75 142.28 225.215 142.578 224.68C142.996 223.928 143.787 223.076 143.894 222.198C143.926 221.936 143.865 221.626 143.741 221.394L143.699 221.315C143.647 221.222 143.585 221.128 143.495 221.07C143.485 221.082 143.464 221.095 143.418 221.109C142.788 221.308 142.238 220.999 141.946 220.523C140.706 220.677 139.353 220.625 138.191 220.677L137.016 220.734C135.76 220.791 134.447 220.816 133.267 220.563C133.102 220.527 133.052 220.253 133.217 220.182C134.668 219.562 136.428 219.364 137.981 219.125C138.849 218.992 139.723 218.89 140.593 218.773C141.172 218.695 141.787 218.566 142.387 218.535C143.892 216.661 143.081 213.704 140.987 212.897C140.224 213.233 139.538 213.038 138.704 212.966C137.872 212.895 137.038 212.846 136.203 212.85C134.529 212.857 132.755 213.298 131.098 213.108C130.828 213.077 130.577 212.718 130.845 212.499C132.114 211.463 133.933 211.126 135.543 210.905L135.877 210.86C136.417 210.789 137.074 210.686 137.755 210.625C137.909 210.324 138.185 210.097 138.6 210.04C138.724 210.023 138.848 210.014 138.972 210.003L138.97 209.991C139.982 209.942 139.938 208.231 139.661 207.575ZM70.3503 239.579C70.3324 239.606 70.3128 239.633 70.292 239.658L70.2599 239.695L70.4264 239.628L70.3503 239.579ZM157.327 203.908C153.066 203.45 148.799 203.547 144.525 203.67C144.183 204.788 142.993 205.741 141.84 205.777C142.743 207.152 142.836 209.013 142.203 210.471C143.547 211.006 144.706 211.968 145.409 213.338C146.384 215.236 146.256 217.349 145.292 219.103C146.115 219.848 146.6 221.058 146.552 222.198C146.497 223.469 145.74 224.555 145.111 225.608C144.43 226.746 144.408 227.748 144.199 229.023C143.893 230.889 142.635 232.02 141.017 232.727L141.103 233.066C141.52 234.691 142.039 236.405 143.232 237.593C144.766 239.122 147.146 239.108 149.173 239.204L149.271 239.209C151.127 239.302 152.982 239.411 154.838 239.516L156.229 239.594C158.366 239.711 160.417 239.726 162.161 238.313C165.009 236.006 166.96 232.19 168.196 228.811C170.789 221.719 170.82 213.936 169.63 206.549C165.638 205.262 161.496 204.356 157.327 203.908ZM121.889 215.675L121.921 215.677C122.798 215.777 123.401 216.488 123.616 217.331C123.927 218.556 123.774 219.664 124.525 220.77C125.296 221.908 125.771 222.819 125.883 224.224C125.929 224.802 125.908 225.379 126.037 225.945L126.13 226.341C126.229 226.764 126.31 227.171 126.261 227.625C126.216 228.039 126.014 228.362 125.599 228.495C124.246 228.928 123.202 227.93 122.852 226.669C122.551 225.58 122.954 224.282 122.528 223.259C122.292 222.692 121.857 222.218 121.611 221.647C121.367 221.081 121.245 220.49 121.206 219.875C121.131 218.712 122.16 217.314 121.586 216.26C121.464 216.035 121.602 215.668 121.889 215.675ZM103.921 203.67C104.837 203.484 105.876 203.057 106.779 203.412C107.244 203.595 107.473 204.161 107.081 204.555C106.4 205.238 105.41 205.276 104.492 205.437L104.411 205.451C103.327 205.652 102.24 205.843 101.152 206.023C99.1042 206.362 97.0519 206.662 94.9925 206.917C92.8773 207.179 90.7561 207.412 88.632 207.588L87.8097 207.655C86.0155 207.799 84.1485 207.907 82.388 207.632C82.1322 207.592 82.1734 207.219 82.388 207.154C84.3167 206.57 86.4323 206.414 88.4263 206.166C90.5461 205.903 92.6624 205.625 94.7732 205.296C96.8806 204.966 98.9852 204.613 101.082 204.222C102.03 204.046 102.976 203.862 103.921 203.67ZM136.974 201.795C136.171 201.51 135.286 201.089 134.415 201.23C132.913 201.473 131.576 202.937 130.387 203.901L130.984 203.785C134.039 203.198 138.084 202.565 140.649 204.508C140.655 204.497 140.66 204.486 140.668 204.475C140.875 204.16 141.114 203.915 141.376 203.646C141.401 203.622 141.425 203.598 141.449 203.573L141.59 203.423L141.267 203.311C140.576 203.066 139.756 202.75 139.626 202.704L139.617 202.701C138.735 202.402 137.852 202.106 136.974 201.795ZM111.875 137.74C111.75 136.123 114.266 136.136 114.391 137.74C114.663 141.242 113.875 144.711 112.179 147.782C112.167 147.804 112.153 147.824 112.14 147.845C113.201 148.397 114.273 148.927 115.37 149.4C116.772 150.006 118.201 150.557 119.656 151.025C120.972 151.449 122.593 151.616 123.699 152.497C126.031 154.356 125.155 158.212 124.706 160.712L124.636 161.106C124.413 162.392 124.251 163.712 124.793 164.947C125.372 166.265 126.543 167.243 127.587 168.187L127.798 168.378C128.723 169.221 129.78 170.246 130.459 171.389C131.078 170.108 131.923 169.061 132.816 167.882C133.453 167.041 132.999 166.763 132.542 165.942C132.101 165.151 131.886 164.308 132.024 163.405C132.278 161.739 133.609 160.536 134.934 159.631C136.499 158.564 138.246 157.773 139.863 156.78C143.187 154.739 146.425 152.406 149.341 149.815C149.422 149.744 149.561 149.838 149.497 149.935C147.193 153.441 144.491 156.47 141.171 159.042C139.825 160.084 138.411 160.949 136.987 161.858L136.578 162.121C136.006 162.491 135.293 162.987 135.035 163.617C134.775 164.251 135.329 164.73 135.628 165.256C136.576 166.924 136.118 168.481 134.995 169.896L134.942 169.961C133.826 171.338 132.979 172.618 132.574 174.377C131.705 178.156 132.916 182.091 134.184 185.638L134.234 185.778C134.92 187.69 135.649 189.588 136.245 191.53L136.409 192.067C136.949 193.855 137.392 195.617 136.786 197.455C136.58 198.08 135.728 198.228 135.374 197.639C134.126 195.565 133.814 193.069 133.032 190.789C132.269 188.566 131.393 186.384 130.657 184.152C129.708 181.279 129.073 178.186 129.418 175.172C129.408 175.154 129.397 175.138 129.388 175.119L129.147 174.591C128.488 173.16 127.852 171.911 126.655 170.77C125.406 169.58 124.05 168.527 123.067 167.087C120.932 163.959 122.253 160.479 122.511 157.059L122.54 156.639C122.587 155.929 122.613 154.964 122.149 154.472C121.627 153.919 120.404 153.778 119.712 153.533C117.923 152.9 116.161 152.162 114.482 151.276C112.884 150.433 111.336 149.501 109.895 148.41L109.164 147.86C108.012 146.99 106.816 146.04 106.044 144.855C105.955 144.719 106.106 144.499 106.268 144.564C107.557 145.088 108.735 145.921 109.942 146.645C109.961 146.601 109.983 146.556 110.007 146.512C111.5 143.809 112.114 140.814 111.875 137.74ZM153.069 156.258C153.583 154.848 155.925 154.957 155.831 156.632C155.76 157.919 155.214 159.08 154.714 160.248L154.661 160.373C154.146 161.59 153.55 162.733 152.838 163.849C151.477 165.981 149.882 167.96 148.179 169.828C146.635 171.521 144.609 172.557 142.274 172.385C141.29 172.312 140.297 172.062 139.434 171.57C138.41 170.986 137.298 169.232 135.992 169.657C135.865 169.698 135.748 169.513 135.857 169.425C137.365 168.21 139.077 170.094 140.521 170.548C142.697 171.232 144.93 170.476 146.33 168.716C147.792 166.879 149.138 164.822 150.367 162.821C150.991 161.805 151.56 160.751 152.052 159.665C152.549 158.568 152.661 157.376 153.069 156.258ZM149.562 147.584C149.498 147.389 149.74 147.204 149.911 147.315C150.902 147.96 151.761 148.813 152.675 149.561C153.689 150.39 154.711 151.203 155.749 152.003C157.261 153.169 155.507 155.316 154.175 154.042C152.353 152.299 150.358 150.02 149.562 147.584ZM144.121 140.761C144.523 139.208 146.905 139.849 146.558 141.384L146.546 141.43C145.889 143.966 146.825 146.547 148.823 148.191L148.897 148.251C150.161 149.263 148.37 151.032 147.118 150.03C144.386 147.842 143.249 144.125 144.121 140.761Z" fill="black"/>
<path fill-rule="evenodd" clip-rule="evenodd" d="M159.409 86.7809C159.603 84.8959 157.495 79.8672 157.545 80.8872C154.164 75.4326 147.566 73.2876 141.874 71.4869C129.789 67.3126 120.352 72.3539 111.861 81.2888C106.848 86.1882 102.078 91.661 99.5621 98.4434C94.6117 111.382 102.032 126.135 113.317 132.316C114.227 132.832 115.22 133.321 116.087 133.944C120.752 136.764 126.229 137.74 131.427 138.967C141.152 141.293 153.365 140.184 159.096 130.497C162.984 123.622 161.951 115.287 161.647 107.657C161.19 100.972 160.387 93.4171 159.409 86.7809Z" fill="white"/>
<path fill-rule="evenodd" clip-rule="evenodd" d="M186.628 123.665C186.661 123.667 186.692 123.669 186.721 123.682C186.741 123.691 186.758 123.705 186.773 123.721L186.918 123.878C186.97 123.935 186.966 124.021 186.918 124.077C186.876 124.128 186.799 124.129 186.749 124.09L186.735 124.077L186.585 123.914C186.568 123.894 186.554 123.874 186.547 123.847C186.54 123.82 186.54 123.791 186.538 123.763C186.537 123.712 186.582 123.665 186.628 123.665ZM105.663 108.382C107.047 107.927 108.707 109.008 109.532 110.15C109.946 110.722 110.063 111.506 109.532 112.069C109.08 112.548 108.196 112.635 107.759 112.069C107.264 111.423 106.86 110.529 106.153 110.116C105.385 109.667 104.356 109.779 104.175 110.873C104.144 111.059 103.899 110.997 103.889 110.83C103.821 109.723 104.717 108.69 105.663 108.382Z" fill="black"/>
<path fill-rule="evenodd" clip-rule="evenodd" d="M141.522 126.204C140.362 125.691 139.327 124.835 138.57 123.742C138.307 123.362 138.239 122.961 138.294 122.594C138.356 122.181 138.581 121.807 138.889 121.556C139.197 121.305 139.582 121.181 139.955 121.244C140.279 121.299 140.601 121.491 140.856 121.89L140.909 121.969C141.359 122.629 141.945 123.17 142.613 123.519C143.257 123.856 143.977 124.013 144.722 123.921C146.142 123.747 147.12 122.915 148.159 121.786C148.288 121.643 148.417 121.496 148.547 121.346C148.629 121.211 148.742 121.124 148.868 121.078C149.008 121.027 149.167 121.03 149.312 121.085C149.452 121.138 149.577 121.238 149.661 121.372C149.74 121.499 149.785 121.655 149.771 121.836C149.676 123.007 149.111 124.052 148.309 124.872C147.418 125.783 146.237 126.414 145.125 126.635C143.9 126.878 142.652 126.704 141.522 126.204ZM145.703 108.141C147.006 109 148.992 111.002 147.59 113.131C145.94 115.007 143.564 112.855 142.393 111.882C141.308 111.128 140.088 113.068 141.095 113.949C149.555 120.738 152.989 108.365 146.362 107.131C145.633 106.995 145.362 107.875 145.703 108.141ZM130.543 100.243C130.687 98.3053 133.409 97.8654 133.679 99.7825C133.922 101.5 133.636 103.077 132.923 104.623C132.241 106.101 130.527 105.411 130.398 104.066C130.224 102.263 130.453 101.448 130.543 100.243ZM151.262 99.385C151.642 98.8462 152.19 98.4784 152.846 98.6863C154.897 99.336 154.293 102.492 153.572 104.029C153.181 104.863 151.916 105.075 151.344 104.34C150.412 103.142 149.966 100.75 151.151 99.5696C151.183 99.5086 151.219 99.4471 151.262 99.385ZM132.894 91.7654L133.218 91.704C134.22 91.5161 135.466 91.3355 136.175 92.209C136.551 92.6722 136.681 93.5331 136.175 93.9764C135.286 94.7565 134.303 94.4542 133.238 94.5202C132.36 94.5749 131.516 94.7324 130.67 94.9945C128.815 95.5693 127.303 96.6188 125.718 97.7711C125.51 97.9223 125.298 97.634 125.397 97.4232C126.312 95.4808 128.085 93.8853 129.861 92.9127C130.808 92.3936 131.846 91.963 132.894 91.7654ZM149.393 90.8954L149.641 90.9504C152.339 91.5618 155.845 92.7833 157.123 95.6566C157.172 96.0629 157.12 96.1499 157.078 96.2068L157.064 96.2258C157.03 96.2743 157.002 96.3413 156.84 96.3966C156.795 96.385 156.749 96.3726 156.703 96.3596C156.118 96.1932 155.654 95.9639 155.205 95.7261L154.719 95.4663C154.155 95.1663 153.585 94.8772 152.982 94.6638C151.694 94.2085 150.37 93.8877 149.025 93.7165C148.733 93.6794 148.452 93.5727 148.231 93.3899C148.021 93.2164 147.86 92.9762 147.787 92.6569C147.692 92.2436 147.719 91.9307 147.924 91.5579C148.077 91.278 148.298 91.0839 148.55 90.9725C148.808 90.8589 149.101 90.8321 149.393 90.8954Z" fill="black"/>
<path fill-rule="evenodd" clip-rule="evenodd" d="M159.397 110.709C156.561 112.221 152.605 109.991 150.698 107.656C150.004 106.805 149.468 104.372 149.735 102.829C150.458 98.6505 153.176 96.1425 156.044 95.2861C160.02 94.0986 164.022 97.1068 163.555 100.657C163.113 104.021 162.443 108.902 159.397 110.709ZM140.095 102.682C139.868 107.236 136.564 111.222 132.615 112.403C126.252 114.368 123.107 109.418 121.683 104.084C121.542 103.554 121.209 101.937 122.102 100.55C125.613 95.092 134.156 96.0223 138.423 97.5205C139.672 98.8425 140.182 100.75 140.095 102.682ZM162.478 94.8274C162.476 94.8301 162.474 94.8324 162.472 94.8351C162.457 94.8253 162.443 94.8153 162.428 94.8057C162.444 94.8132 162.462 94.8197 162.478 94.8274ZM167.801 95.3538C167.432 90.7171 154.288 92.4925 152.751 92.8725C148.557 94.2378 144.935 97.9521 140.246 96.3194C135.387 90.3248 119.026 92.0439 115.596 95.0976C114.947 94.8156 114.158 94.9669 113.321 95.2329C109.026 95.0612 89.4154 96.7002 93.4265 102.768C94.0353 103.236 94.6435 102.76 94.6603 101.797C115.57 93.4429 113.543 101.268 116.023 100.354C116.402 100.475 116.797 100.551 117.142 100.632C119.062 101.315 119.714 101.104 119.966 103.489C121.703 121.904 143.859 115.548 142.042 100.443C143.841 100.333 145.415 99.4724 147.317 100.313C148.638 114.542 158.983 115.117 162.097 110.184C164.445 106.76 163.514 101.594 166.741 98.9006C168.015 100.081 168.097 96.0981 167.801 95.3538Z" fill="black"/>
<path fill-rule="evenodd" clip-rule="evenodd" d="M126.666 49.5827C127.005 48.5229 127.965 47.8856 129.065 48.0171C130.038 48.132 131.08 49.0973 130.962 50.1627C130.939 50.3684 130.91 50.561 130.874 50.7426L130.879 50.7442L130.884 50.7445L130.86 50.8149C130.787 51.154 130.687 51.4578 130.539 51.745C130.35 52.2953 130.168 52.8474 129.988 53.4014C130.248 53.3903 130.513 53.4051 130.782 53.4552C131.06 52.7437 131.34 52.034 131.618 51.3207C131.917 50.5592 132.126 49.5809 132.716 48.9917C133.47 48.2394 134.779 48.0838 135.699 48.6211C136.671 49.1881 137.017 50.196 136.806 51.2762C136.699 51.8272 136.33 52.2107 135.874 52.4516L135.825 52.4769L135.475 53.3069C135.582 53.2606 135.693 53.218 135.814 53.1828C136.003 53.1272 136.188 53.092 136.37 53.0772C136.871 52.1712 137.422 51.2911 137.991 50.4276C138.645 49.4345 139.925 49.0121 140.998 49.6402C141.959 50.2016 142.474 51.6765 141.786 52.6455C141.263 53.3811 140.768 54.1315 140.281 54.8893C140.364 54.9041 140.447 54.9226 140.527 54.9467C140.564 54.8967 140.603 54.8467 140.644 54.7966C141.176 54.137 141.795 53.6423 142.431 53.0939C143.027 52.5788 143.301 51.7691 144.083 51.3781C145.068 50.8871 146.255 51.1225 146.841 52.1008C148.098 54.1963 145.988 55.7267 144.638 56.9959C145.812 56.2641 147.033 55.5952 148.287 55.0171C148.991 54.6929 149.707 54.3797 150.434 54.1092C151.511 53.709 152.383 53.837 153.267 54.5817C153.662 54.9152 153.859 55.6436 153.677 56.1288C153.325 57.0589 152.768 57.6241 151.793 57.8927C151.107 58.0817 150.404 58.2095 149.718 58.4078C148.569 58.7376 147.452 59.1397 146.37 59.6418C146.448 59.69 146.522 59.7418 146.59 59.8011C147.399 59.5399 148.222 59.3138 149.049 59.1211C150.42 58.7998 151.816 58.5827 153.218 58.4469L153.684 58.4035C155.365 58.2423 157.386 57.9449 158.418 59.5529C158.757 60.0828 158.794 60.9573 158.418 61.4817C157.699 62.4896 156.983 62.6897 155.792 62.7082C156.964 62.8324 158.134 62.9862 159.299 63.1659C160.101 63.2882 160.904 63.4268 161.703 63.5806L162.102 63.6587C163.076 63.8533 164.162 63.9663 164.998 64.5296C166.823 65.7598 165.966 68.1556 163.945 68.4113C162.968 68.5335 161.883 68.1204 160.925 67.9277C159.994 67.7405 159.059 67.5756 158.121 67.4311C157.635 67.3551 157.15 67.2884 156.662 67.2273C157.654 67.37 158.639 67.5719 159.597 67.8573L159.863 67.9376C161.717 68.5019 164.218 69.4008 164.796 71.3795C165.147 72.582 164.188 73.6307 163.027 73.7011C161.948 73.7659 161.049 73.123 160.133 72.6487C159.466 72.3041 158.787 72.0465 158.067 71.826C157.324 71.5981 156.566 71.4091 155.802 71.2554C156.447 71.6108 157.076 72.0014 157.68 72.4384L157.957 72.6432C159.561 73.8376 162.007 75.6867 161.442 77.9256C161.264 78.6315 160.476 79.3059 159.72 79.2337C157.75 79.0502 156.664 76.9547 155.179 75.8319C154.791 75.5391 154.367 75.2501 153.922 74.9684C156.173 77.6513 157.964 80.753 159.326 83.9565C162.322 91.0043 163.24 97.5311 163.262 105.109L163.263 105.344C163.267 109.524 163.172 113.78 162.764 117.941C162.386 121.786 161.692 125.58 159.948 129.062C157.024 134.9 151.326 139.447 145.042 141.178C138.05 143.105 130.235 141.598 124.507 137.151C123.046 136.017 124.984 133.555 126.476 134.602C132.438 138.78 140.147 140.103 146.989 137.276C152.416 135.034 156.786 130.211 158.639 124.658C159.818 121.125 160.161 117.358 160.581 113.677L160.61 113.431C161.055 109.581 161.312 105.705 161.309 101.829C161.303 94.6307 160.268 88.7054 157.1 82.176C155.609 79.1003 153.675 76.2563 151.365 73.7604C150.664 73.9031 149.918 73.703 149.21 73.627C148.849 73.5881 148.487 73.551 148.126 73.5177C148.495 73.7563 148.857 74.0044 149.213 74.2584L149.68 74.5949C151.142 75.6407 152.996 76.8319 152.62 78.8538C152.518 79.4004 151.973 79.9025 151.444 80.0267C149.529 80.4825 148.213 78.6222 146.918 77.5179C145.793 76.5582 144.616 75.6985 143.416 74.8369C143.143 74.6423 142.869 74.4478 142.593 74.2551C142.852 74.5575 143.105 74.8646 143.351 75.1746L143.715 75.6358C144.817 77.0134 146.405 78.8041 145.424 80.5899C145.146 81.0939 144.553 81.4293 143.978 81.4182C142.001 81.3774 141.215 79.1355 140.288 77.7199C139.491 76.5063 138.625 75.3631 137.729 74.2199C137.483 73.9068 137.234 73.5936 136.982 73.2805C132.831 73.4954 128.694 74.0439 124.63 74.9203C121.837 75.5224 119.091 76.3027 116.366 77.1566L116.139 77.2286C114.664 77.7032 113.144 78.3106 112.081 79.3522C111.929 80.0699 112.046 80.8267 112.191 81.5434L112.304 82.092C112.77 84.3859 113.088 86.6374 112.85 88.9925C112.604 91.4216 111.871 93.6061 110.978 95.8629C110.555 96.9264 110.117 96.7337 109.967 97.875C109.852 98.7444 109.923 99.6418 110.002 100.518L110.067 101.262C110.232 103.208 110.315 105.331 109.038 106.937C108.84 107.184 108.415 107.085 108.274 106.839C108.219 106.741 108.159 106.646 108.094 106.556C107.479 105.664 106.535 105.157 105.456 104.96C105.319 104.936 105.372 104.753 105.487 104.738C106.4 104.63 107.264 104.858 107.998 105.329C107.65 104.126 104.954 104.711 104.068 104.945L104.038 104.953C102.932 105.249 101.887 105.731 100.965 106.413C99.111 107.784 98.0393 109.922 98.0931 112.225C98.1469 114.489 99.3168 116.581 101.327 117.665C102.296 118.188 103.4 118.44 104.497 118.429C105.643 118.417 106.663 117.915 107.811 117.986C108.474 118.026 108.983 118.738 108.599 119.359C108.343 119.774 108.009 120.1 107.623 120.35C108.563 122.516 109.763 124.582 111.146 126.488C111.912 127.546 112.78 128.523 113.735 129.414C114.48 130.111 116.095 130.917 116.004 132.078C115.973 132.497 115.756 132.753 115.374 132.908C114.186 133.394 112.742 131.723 111.948 130.918L111.884 130.854C110.894 129.868 109.991 128.778 109.205 127.622C107.811 125.569 106.945 123.255 106.587 120.824C104.683 121.397 102.161 120.859 100.607 120.157C95.7235 117.952 94.1271 111.38 97.0956 107.004C97.6704 106.157 98.3898 105.433 99.2093 104.847C99.0294 104.749 98.8607 104.623 98.7105 104.464C97.8797 103.582 97.2924 102.431 96.7094 101.37L96.6394 101.243C96.1219 100.31 95.6337 99.3612 95.1761 98.3981L95.0059 98.0362C93.9843 95.8406 93.0887 94.8809 92.3601 92.5722C91.6592 90.3451 91.1067 88.0754 90.7488 85.7668L90.6537 85.1557C90.4468 83.8161 90.251 82.3836 90.4021 81.0235C89.3619 81.3626 88.3162 81.5719 87.2871 81.0624C86.6085 80.7271 86.2339 79.7488 86.4657 79.0465C86.6344 78.5296 86.9163 78.1238 87.2741 77.8051C87.0609 77.6977 86.8606 77.5606 86.6845 77.4086L86.5306 77.2754C85.9076 76.7342 85.8631 75.7059 86.2414 75.0277C86.2784 74.9629 86.3155 74.8962 86.3508 74.8313C86.7105 74.1884 87.454 73.7678 88.1882 73.7789C88.3069 73.7808 88.4256 73.7808 88.5461 73.7789C88.2031 73.703 87.8675 73.5862 87.5485 73.3898C86.1097 72.506 86.2914 70.1103 88.0325 69.6879C88.763 69.5118 89.5696 69.5841 90.3743 69.7731C90.3446 69.7564 90.3149 69.7397 90.2853 69.7212C89.6771 69.3488 89.1672 68.6206 89.2247 67.8739C89.2877 67.0476 89.5547 66.4584 90.2853 66.0248C90.9194 65.6505 91.8168 65.6153 92.4472 66.0248C92.9942 66.3824 93.53 66.7771 94.0455 67.2014C93.5282 66.5658 93.0795 65.8747 92.8978 65.141C92.6734 64.2276 93.048 63.2326 93.8712 62.7508C94.5276 62.3673 95.221 62.4099 95.8403 62.7064C95.8069 62.2265 95.9237 61.7373 96.2427 61.3038C96.8953 60.4146 98.082 59.903 99.1147 60.5515C99.2501 60.6368 99.4318 60.7831 99.6079 60.9629C99.2649 59.8715 99.5746 58.7265 100.745 58.2336C101.458 57.9316 102.424 58.0836 103.044 58.6042C102.651 56.479 105.79 54.9171 107.01 57.1127C107.287 57.6101 107.561 58.1338 107.806 58.6696L107.896 58.871L107.905 58.8673L107.843 58.72L107.779 58.5727C107.44 57.7852 107.008 56.9663 106.889 56.1121C106.715 54.8485 107.279 53.6497 108.654 53.4644C109.364 53.3681 110.154 53.6905 110.631 54.2539C110.373 52.2934 112.565 50.8686 114.143 52.3324C114.89 53.0253 115.288 54.0388 115.763 54.9282C116.032 55.4303 116.306 55.9306 116.575 56.4345C116.644 56.353 116.718 56.2715 116.796 56.1918C116.397 54.9986 116.088 53.7757 115.826 52.5454C115.578 51.3856 116.158 50.1812 117.356 49.8534C118.444 49.5531 119.807 50.224 120.05 51.382C120.221 52.1971 120.423 53.0033 120.645 53.8054C120.797 53.7683 120.947 53.7424 121.096 53.7238C121.108 53.5731 121.122 53.4216 121.138 53.2709L121.196 52.7349C121.326 51.5103 121.457 50.1124 122.097 49.0714C123.189 47.2926 125.989 48.0301 126.018 50.133C126.035 51.2207 125.592 52.299 125.438 53.3755C125.371 53.8443 125.332 54.3186 125.31 54.7929C125.609 53.218 126.018 51.6635 126.493 50.133C126.549 49.9496 126.608 49.7662 126.666 49.5827Z" fill="black"/>
</svg>
